<?xml version="1.0" standalone="no"?>
<!DOCTYPE svg PUBLIC "-//W3C//DTD SVG 1.1//EN" "http://www.w3.org/Graphics/SVG/1.1/DTD/svg11.dtd" >
<svg>
<metadata>
Created by FontForge 20090914 at Fri Jun  1 15:10:22 2018
 By www-data
Copyright (c) 2013 by atipo. All rights reserved.
</metadata>
<defs>
<font id="Geomanist-Book" horiz-adv-x="231" >
  <font-face 
    font-family="Geomanist Book"
    font-weight="400"
    font-stretch="normal"
    units-per-em="1000"
    panose-1="2 0 5 3 0 0 0 2 0 4"
    ascent="750"
    descent="-250"
    x-height="522"
    cap-height="700"
    bbox="-51 -264.004 1121 998.002"
    underline-thickness="50"
    underline-position="-50"
    unicode-range="U+0020-U+F6C3"
  />
<missing-glyph horiz-adv-x="508" 
d="M4 0v700h500v-700h-500zM254 395l170 255h-340zM284 350l170 -255v510zM54 95l170 255l-170 255v-510zM84 50h340l-170 255z" />
    <glyph glyph-name="ellipsis" unicode="&#x2e;&#x2e;&#x2e;" horiz-adv-x="722" 
d="M43 57c0 19.333 7 36 21 50s30.667 21 50 21s36 -7 50 -21s21 -30.667 21 -50s-7 -35.833 -21 -49.5s-30.667 -20.5 -50 -20.5s-36 6.83301 -50 20.5s-21 30.167 -21 49.5zM290 57c0 19.333 7 36 21 50s30.667 21 50 21s36 -7 50 -21s21 -30.667 21 -50
s-7 -35.833 -21 -49.5s-30.667 -20.5 -50 -20.5s-36 6.83301 -50 20.5s-21 30.167 -21 49.5zM537 57c0 19.333 7 36 21 50s30.667 21 50 21s36 -7 50 -21s21 -30.667 21 -50s-7 -35.833 -21 -49.5s-30.667 -20.5 -50 -20.5s-36 6.83301 -50 20.5s-21 30.167 -21 49.5z" />
    <glyph glyph-name=".notdef" horiz-adv-x="508" 
d="M4 0v700h500v-700h-500zM254 395l170 255h-340zM284 350l170 -255v510zM54 95l170 255l-170 255v-510zM84 50h340l-170 255z" />
    <glyph glyph-name="space" unicode=" " horiz-adv-x="251" 
 />
    <glyph glyph-name="exclam" unicode="!" horiz-adv-x="275" 
d="M89 188l-8 512h114l-9 -512h-97zM67 57c0 19.333 7 36 21 50s30.667 21 50 21s36 -7 50 -21s21 -30.667 21 -50s-7 -35.833 -21 -49.5s-30.667 -20.5 -50 -20.5s-36 6.83301 -50 20.5s-21 30.167 -21 49.5z" />
    <glyph glyph-name="quotedbl" unicode="&#x22;" horiz-adv-x="334" 
d="M51 482l-5 218h91l-6 -218h-80zM203 482l-5 218h91l-6 -218h-80z" />
    <glyph glyph-name="numbersign" unicode="#" horiz-adv-x="654" 
d="M96 0l39 185h-107l17 85h107l33 159h-106l17 85h107l39 186h93l-38 -186h128l38 186h94l-38 -186h106l-16 -85h-108l-33 -159h107l-17 -85h-108l-38 -185h-94l38 185h-128l-38 -185h-94zM246 270h128l33 159h-128z" />
    <glyph glyph-name="dollar" unicode="$" horiz-adv-x="514" 
d="M28 145l94.0029 44c25.333 -66 71 -99 137 -99c32 0 57.5 8.33301 76.5 25s28.5 39.667 28.5 69c0 26.667 -10.833 49.834 -32.5 69.501s-48 36.5 -79 50.5s-61.833 29 -92.5 45s-56.834 38.833 -78.501 68.5s-32.5 65.167 -32.5 106.5c0 49.333 15.667 91 47 125
s73.666 54.333 126.999 61v56h74v-56c46.667 -7.33301 83.667 -24.833 111 -52.5s46.666 -56.834 57.999 -87.501l-92 -41c-26 54.667 -65 82 -117 82c-30 0 -53.667 -8.16699 -71 -24.5s-26 -36.833 -26 -61.5c0 -21.333 7.83301 -40.5 23.5 -57.5
s35.167 -30.833 58.5 -41.5s48.833 -23 76.5 -37s53.167 -28.5 76.5 -43.5s42.833 -35.667 58.5 -62s23.5 -56.833 23.5 -91.5c0 -52.667 -16.167 -97.5 -48.5 -134.5s-76.166 -59.5 -131.499 -67.5v-76h-74v75c-54.667 5.33301 -97.834 23.333 -129.501 54
s-53.5 64.667 -65.5 102z" />
    <glyph glyph-name="percent" unicode="%" horiz-adv-x="781" 
d="M71 0l531 700h108l-532 -700h-107zM196 394c-46.667 0 -85.332 15.1689 -115.999 45.502s-46 68.166 -46 113.499c0 44.667 15.333 82.5 46 113.5s69 46.5 115 46.5c47.333 0 86.666 -15.5 117.999 -46.5s47 -68.833 47 -113.5s-15.5 -82.334 -46.5 -113.001
s-70.167 -46 -117.5 -46zM197.002 474.002c23.333 0 42.001 7.5 56.001 22.5s21 33.833 21 56.5c0 22 -7.33301 40.667 -22 56s-33.334 23 -56.001 23s-41 -7.5 -55 -22.5s-21 -33.833 -21 -56.5c0 -22 7.33301 -40.667 22 -56s33 -23 55 -23zM419.003 146.002
c0 44.667 15.501 82.502 46.501 113.502s69.5 46.5 115.5 46.5c47.333 0 86.666 -15.5 117.999 -46.5s47 -68.833 47 -113.5s-15.667 -82.334 -47 -113.001s-70.333 -46 -117 -46s-85.5 15.167 -116.5 45.5s-46.5 68.166 -46.5 113.499zM505.004 146.004
c0 -22.667 7.16602 -41.5 21.499 -56.5s32.833 -22.5 55.5 -22.5c23.333 0 42 7.5 56 22.5s21 33.833 21 56.5s-7.16699 41.5 -21.5 56.5s-33.166 22.5 -56.499 22.5c-22 0 -40.167 -7.66699 -54.5 -23s-21.5 -34 -21.5 -56z" />
    <glyph glyph-name="ampersand" unicode="&#x26;" horiz-adv-x="641" 
d="M548 -13l-68.001 71.999c-50.667 -48 -116.334 -72 -197.001 -72c-77.333 0 -138.5 19.833 -183.5 59.5s-67.5 90.167 -67.5 151.5c0 78.667 40 142.667 120 192c-44.667 48.667 -67 97 -67 145c0 50 17.833 92.167 53.5 126.5s83.834 51.5 144.501 51.5
c62.667 0 111.834 -16.667 147.501 -50s53.5 -76.666 53.5 -129.999c0 -73.333 -47.667 -138 -143 -194l135 -130c17.333 33.333 26 75.333 26 126h102c0 -81.333 -17.333 -149.333 -52 -204l71 -73zM283.999 84.999c50.667 0 92.332 16.335 124.999 49.002l-190 185
c-23.333 -10.667 -42.166 -25.834 -56.499 -45.501s-21.5 -42.5 -21.5 -68.5c0 -36.667 13.833 -65.834 41.5 -87.501s61.5 -32.5 101.5 -32.5zM185.997 530.001c0 -24.667 7.5 -46.833 22.5 -66.5s37.167 -41.5 66.5 -65.5c73.333 40 110 84 110 132
c0 27.333 -9.16699 49.833 -27.5 67.5s-42.833 26.5 -73.5 26.5c-28.667 0 -52.167 -8.83301 -70.5 -26.5s-27.5 -40.167 -27.5 -67.5z" />
    <glyph glyph-name="quotesingle" unicode="'" horiz-adv-x="183" 
d="M51 482l-5 218h91l-6 -218h-80z" />
    <glyph glyph-name="parenleft" unicode="(" horiz-adv-x="319" 
d="M164 601v-567c0 -58 28.333 -87 85 -87v-94c-128.667 0 -193 64.333 -193 193v543c0 128.667 64.333 193 193 193v-94c-56.667 0 -85 -29 -85 -87z" />
    <glyph glyph-name="parenright" unicode=")" horiz-adv-x="319" 
d="M155 34v567c0 58 -28.333 87 -85 87v94c128.667 0 193 -64.333 193 -193v-543c0 -128.667 -64.333 -193 -193 -193v94c56.667 0 85 29 85 87z" />
    <glyph glyph-name="asterisk" unicode="*" horiz-adv-x="431" 
d="M43 579l39 65l94 -54v110h78v-111l94 55l38 -64l-95 -55l96 -54l-39 -66l-94 55v-110h-78v110l-94 -55l-39 65l96 54z" />
    <glyph glyph-name="plus" unicode="+" horiz-adv-x="550" 
d="M38 267v89h190v203h94v-203h190v-89h-190v-203h-94v203h-190z" />
    <glyph glyph-name="comma" unicode="," horiz-adv-x="228" 
d="M43 57c0 19.333 6.83203 36.001 20.499 50.001s30.167 21 49.5 21c20.667 0 38 -6.83301 52 -20.5s21 -32.167 21 -55.5c0 -76 -31.333 -139 -94 -189l-46 48c32.667 23.333 51.334 49 56.001 77c-18 3.33301 -32.333 11.666 -43 24.999s-16 28 -16 44z" />
    <glyph glyph-name="hyphen" unicode="-" horiz-adv-x="354" 
d="M43 253v99h267v-99h-267z" />
    <glyph glyph-name="period" unicode="." horiz-adv-x="229" 
d="M43 57c0 19.333 7 36 21 50s30.667 21 50 21s36 -7 50 -21s21 -30.667 21 -50s-7 -35.833 -21 -49.5s-30.667 -20.5 -50 -20.5s-36 6.83301 -50 20.5s-21 30.167 -21 49.5z" />
    <glyph glyph-name="slash" unicode="/" horiz-adv-x="439" 
d="M20 -108l302 858h97l-302 -858h-97z" />
    <glyph glyph-name="zero" unicode="0" horiz-adv-x="565" 
d="M516 350c0 -122 -17.833 -213 -53.5 -273s-95.834 -90 -180.501 -90s-144.667 30 -180 90s-53 151 -53 273s17.667 213 53 273s95.333 90 180 90s144.834 -30 180.501 -90s53.5 -151 53.5 -273zM161 350c0 -34.667 0.666016 -63.8291 1.99902 -87.4961
s4.5 -47.167 9.5 -70.5s11.833 -41.833 20.5 -55.5s20.334 -24.667 35.001 -33s32.667 -12.5 54 -12.5s39.5 4.16699 54.5 12.5s26.833 19.333 35.5 33s15.334 32.167 20.001 55.5s7.66699 46.666 9 69.999s2 52.666 2 87.999s-0.666992 64.666 -2 87.999
s-4.33301 46.666 -9 69.999s-11.334 41.833 -20.001 55.5s-20.5 24.667 -35.5 33s-33.167 12.5 -54.5 12.5c-26 0 -47.333 -5.83301 -64 -17.5s-29 -30 -37 -55s-13.333 -51.333 -16 -79s-4 -63.5 -4 -107.5z" />
    <glyph glyph-name="one" unicode="1" horiz-adv-x="326" 
d="M61 561l-30 92l127 47h90v-700h-110v590z" />
    <glyph glyph-name="two" unicode="2" horiz-adv-x="526" 
d="M43 0l0.000976562 40.0068c0 30.667 8 61.5 24 92.5s35.833 58.333 59.5 82l77 74.5l77 71c23.667 21.333 43.5 44.833 59.5 70.5s24 50.5 24 74.5c0 31.333 -9.66699 56.666 -29 75.999s-46 29 -80 29c-59.333 0 -97.666 -31.667 -114.999 -95l-97 28
c4 18 10.667 36 20 54s22.166 36.167 38.499 54.5s38.166 33.166 65.499 44.499s58 17 92 17c66 0 118.833 -18.833 158.5 -56.5s59.5 -86.834 59.5 -147.501c0 -36.667 -9.83301 -72.334 -29.5 -107.001s-44 -65.334 -73 -92.001s-58 -51.834 -87 -75.501
s-54.5 -47.334 -76.5 -71.001s-34.667 -45.5 -38 -65.5h313v-98h-443z" />
    <glyph glyph-name="three" unicode="3" horiz-adv-x="533" 
d="M465 700l0.000976562 -100l-164 -183c52 0 96.833 -17.5 134.5 -52.5s56.5 -86.167 56.5 -153.5c0 -64.667 -21.833 -118.167 -65.5 -160.5s-98.5 -63.5 -164.5 -63.5c-65.333 0 -116.333 16.167 -153 48.5s-60.667 70.5 -72 114.5l95 31c19.333 -61.333 62 -92 128 -92
c34.667 0 63.167 11.167 85.5 33.5s33.5 50.833 33.5 85.5c0 36 -10.833 64.167 -32.5 84.5s-52.834 30.5 -93.501 30.5h-79v87l166 192h-278v98h403z" />
    <glyph glyph-name="four" unicode="4" horiz-adv-x="574" 
d="M29 170v81l303 449h125v-434h87v-96h-87v-170h-109v170h-319zM146 266h202v303z" />
    <glyph glyph-name="five" unicode="5" horiz-adv-x="532" 
d="M262 89c36.667 0 66.001 12.667 88.001 38s33 57.333 33 96c0 37.333 -11.333 68.833 -34 94.5s-54.334 38.5 -95.001 38.5c-36.667 0 -70 -13.667 -100 -41l-92 15l15 370h376v-99h-277l-8 -179c31.333 19.333 67.333 29 108 29c62.667 0 114.834 -20.5 156.501 -61.5
s62.5 -94.167 62.5 -159.5c0 -70 -21.333 -128 -64 -174s-97.334 -69 -164.001 -69c-64.667 0 -116.167 16.333 -154.5 49s-63.5 70.667 -75.5 114l96 31c18 -61.333 61 -92 129 -92z" />
    <glyph glyph-name="six" unicode="6" horiz-adv-x="554" 
d="M283 91c36 0 64.332 12.001 84.999 36.001s31 57.667 31 101c0 39.333 -10.167 71.166 -30.5 95.499s-49.5 36.5 -87.5 36.5c-52 0 -93.333 -25.333 -124 -76c0 -28.667 1.33301 -53.167 4 -73.5s8.16699 -40.333 16.5 -60s21.333 -34.5 39 -44.5s39.834 -15 66.501 -15z
M316.999 713.001c59.333 0 112.998 -16.0029 160.998 -48.0029l-46 -88c-31.333 21.333 -67.666 32 -108.999 32c-40.667 0 -73.667 -11.833 -99 -35.5s-42 -50.167 -50 -79.5s-12 -61.333 -12 -96c32.667 41.333 79.334 62 140.001 62
c63.333 0 113.666 -20.667 150.999 -62s56 -97 56 -167c0 -74 -20.667 -133.167 -62 -177.5s-96.666 -66.5 -165.999 -66.5c-44.667 0 -82.834 7.83301 -114.501 23.5s-56.167 38.334 -73.5 68.001s-29.666 62.334 -36.999 98.001s-11 76.834 -11 123.501
c0 275.333 90.667 413 272 413z" />
    <glyph glyph-name="seven" unicode="7" horiz-adv-x="497" 
d="M27 700h446v-81l-238 -619h-119l235 601h-324v99z" />
    <glyph glyph-name="eight" unicode="8" horiz-adv-x="557" 
d="M278 -13c-71.333 0 -128.667 19.5 -172 58.5s-65 90.833 -65 155.5c0 43.333 11 79.5 33 108.5s46.667 50.167 74 63.5c-22 12.667 -41.833 31.834 -59.5 57.501s-26.5 55.5 -26.5 89.5c0 57.333 20 103.833 60 139.5s92 53.5 156 53.5s116.167 -18 156.5 -54
s60.5 -82.333 60.5 -139c0 -34 -9 -63.833 -27 -89.5s-38 -44.834 -60 -57.501c28 -13.333 53 -34.5 75 -63.5s33 -65.167 33 -108.5c0 -64 -22 -115.667 -66 -155s-101.333 -59 -172 -59zM277.999 318c-36.667 0 -66.5 -10.5 -89.5 -31.5s-34.5 -49.167 -34.5 -84.5
c0 -32 11 -59 33 -81s52.333 -33 91 -33s69 11 91 33s33 49 33 81c0 35.333 -11.5 63.5 -34.5 84.5s-52.833 31.5 -89.5 31.5zM277.999 416c30.667 0 55.998 9.5 75.998 28.5s30 42.5 30 70.5s-9.33301 51.167 -28 69.5s-44.667 27.5 -78 27.5
s-59.166 -9.16699 -77.499 -27.5s-27.5 -41.5 -27.5 -69.5s9.83301 -51.5 29.5 -70.5s44.834 -28.5 75.501 -28.5z" />
    <glyph glyph-name="nine" unicode="9" horiz-adv-x="554" 
d="M271 609c-36 0 -64.332 -12.001 -84.999 -36.001s-31 -57.667 -31 -101c0 -39.333 10.167 -71.166 30.5 -95.499s49.5 -36.5 87.5 -36.5c52 0 93.333 25.333 124 76c0 28.667 -1.33301 53.167 -4 73.5s-8.16699 40.333 -16.5 60s-21.333 34.5 -39 44.5
s-39.834 15 -66.501 15zM237.001 -13.001c-59.333 0 -112.998 16.0029 -160.998 48.0029l46 88c31.333 -21.333 67.666 -32 108.999 -32c40.667 0 73.667 11.833 99 35.5s42 50.167 50 79.5s12 61.333 12 96c-32.667 -41.333 -79.334 -62 -140.001 -62
c-63.333 0 -113.666 20.667 -150.999 62s-56 97 -56 167c0 74 20.667 133.167 62 177.5s96.666 66.5 165.999 66.5c44.667 0 82.834 -7.83301 114.501 -23.5s56.167 -38.334 73.5 -68.001s29.666 -62.334 36.999 -98.001s11 -76.834 11 -123.501
c0 -275.333 -90.667 -413 -272 -413z" />
    <glyph glyph-name="colon" unicode=":" horiz-adv-x="228" 
d="M43 57c0 19.333 7 36 21 50s30.667 21 50 21s36 -7 50 -21s21 -30.667 21 -50s-7 -35.833 -21 -49.5s-30.667 -20.5 -50 -20.5s-36 6.83301 -50 20.5s-21 30.167 -21 49.5zM43 429c0 19.333 7 36 21 50s30.667 21 50 21s36 -7 50 -21s21 -30.667 21 -50s-7 -36 -21 -50
s-30.667 -21 -50 -21s-36 7 -50 21s-21 30.667 -21 50z" />
    <glyph glyph-name="semicolon" unicode=";" horiz-adv-x="228" 
d="M43 429c0 19.333 7 36 21 50s30.667 21 50 21s36 -7 50 -21s21 -30.667 21 -50s-7 -36 -21 -50s-30.667 -21 -50 -21s-36 7 -50 21s-21 30.667 -21 50zM43 57c0 19.333 6.83301 36.001 20.5 50.001s30.167 21 49.5 21c20.667 0 38 -6.83301 52 -20.5s21 -32.167 21 -55.5
c0 -76 -31.333 -139 -94 -189l-46 48c33.333 23.333 52 49 56 77c-18 3.33301 -32.333 11.666 -43 24.999s-16 28 -16 44z" />
    <glyph glyph-name="less" unicode="&#x3c;" horiz-adv-x="501" 
d="M44 271v82l412 187v-97l-305 -130l305 -132v-97z" />
    <glyph glyph-name="equal" unicode="=" horiz-adv-x="550" 
d="M38 352v88h474v-88h-474zM38 174v89h474v-89h-474z" />
    <glyph glyph-name="greater" unicode="&#x3e;" horiz-adv-x="501" 
d="M457 353v-82l-413 -187v97l306 132l-306 130v97z" />
    <glyph glyph-name="question" unicode="?" horiz-adv-x="475" 
d="M161 188v48c0 24.667 5.66699 47.834 17 69.501s25.333 40.334 42 56.001l49.5 46c16.333 15 30.166 31.833 41.499 50.5s17 38.334 17 59.001c0 28.667 -9 52.167 -27 70.5s-43 27.5 -75 27.5c-47.333 0 -82.666 -25 -105.999 -75l-86 39
c12 34.667 34.167 65.667 66.5 93s75.833 41 130.5 41c62.667 0 113.167 -17.833 151.5 -53.5s57.5 -81.167 57.5 -136.5c0 -28.667 -6 -55.334 -18 -80.001s-26.333 -45.334 -43 -62.001s-33.5 -32.5 -50.5 -47.5s-31.5 -31.333 -43.5 -49s-18 -35.834 -18 -54.501v-42
h-106zM144 57c0 19.333 7 36 21 50s30.667 21 50 21s36 -7 50 -21s21 -30.667 21 -50s-7 -35.833 -21 -49.5s-30.667 -20.5 -50 -20.5s-36 6.83301 -50 20.5s-21 30.167 -21 49.5z" />
    <glyph glyph-name="at" unicode="@" horiz-adv-x="898" 
d="M250 259c0 57.333 17.666 104.503 52.999 141.503s79.666 55.5 132.999 55.5c50 0 88.667 -16.333 116 -49v43h85v-246c0 -44.667 18.667 -67 56 -67c24.667 0 44.334 14 59.001 42s22 68.667 22 122c0 91.333 -28.667 164.166 -86 218.499s-135.333 81.5 -234 81.5
c-97.333 0 -176.333 -32.333 -237 -97s-91 -144.667 -91 -240c0 -98 30.333 -178 91 -240s140 -93 238 -93c70 0 132.667 16 188 48l38 -61c-59.333 -42 -134.666 -63 -225.999 -63c-119.333 0 -218.5 38.333 -297.5 115s-118.5 174 -118.5 292
c0 119.333 39.5 218.166 118.5 296.499s178.5 117.5 298.5 117.5c122 0 219.5 -35.333 292.5 -106s109.5 -159.334 109.5 -266.001c0 -77.333 -15.333 -137 -46 -179s-72.667 -63 -126 -63c-28.667 0 -52.667 6.66699 -72 20s-33 30.666 -41 51.999
c-5.33301 -9.33301 -12.666 -18.666 -21.999 -27.999s-24.333 -19 -45 -29s-43 -15 -67 -15c-54.667 0 -99.834 18.333 -135.501 55s-53.5 84 -53.5 142zM341.999 259.003c0 -34.667 10 -63 30 -85s45.333 -33 76 -33s56.167 10.667 76.5 32s30.5 50.666 30.5 87.999
c0 33.333 -9.83301 60.833 -29.5 82.5s-45.5 32.5 -77.5 32.5c-30.667 0 -56 -10.667 -76 -32s-30 -49.666 -30 -84.999z" />
    <glyph glyph-name="A" unicode="A" horiz-adv-x="646" 
d="M451 204h-256l-73 -204h-112l255 700h115l255 -700h-112zM420 297l-97 283l-97 -283h194z" />
    <glyph glyph-name="B" unicode="B" horiz-adv-x="558" 
d="M73 0l-0.000976562 700.003h206c67.333 0 121 -16.667 161 -50s60 -77.333 60 -132c0 -32.667 -7.83301 -62.334 -23.5 -89.001s-37.167 -47.334 -64.5 -62.001c34.667 -14.667 61.834 -35.834 81.501 -63.501s29.5 -60.167 29.5 -97.5
c0 -61.333 -21.833 -111 -65.5 -149s-97.5 -57 -161.5 -57h-223zM183.999 407.003l99 0.000976562c30 0 54.667 9.16699 74 27.5s29 42.5 29 72.5c0 29.333 -9.33301 52.666 -28 69.999s-44 26 -76 26h-98v-196zM183.999 96.0039h101c36.667 0 66.334 9.5 89.001 28.5
s34 46.167 34 81.5c0 36 -11.333 63.333 -34 82s-52.334 28 -89.001 28h-101v-220z" />
    <glyph glyph-name="C" unicode="C" horiz-adv-x="647" 
d="M582 157l32.998 -96.999c-63.333 -48.667 -136.666 -73 -219.999 -73c-105.333 0 -191.666 34.5 -258.999 103.5s-101 155.5 -101 259.5c0 103.333 34.167 189.666 102.5 258.999s153.833 104 256.5 104c81.333 0 152 -22.667 212 -68l-33 -98
c-54 41.333 -112.667 62 -176 62c-72 0 -131.167 -24.833 -177.5 -74.5s-69.5 -111.167 -69.5 -184.5c0 -74 22.833 -135.667 68.5 -185s105.5 -74 179.5 -74c64 0 125.333 22 184 66z" />
    <glyph glyph-name="D" unicode="D" horiz-adv-x="646" 
d="M73 0v700h165c116.667 0 208 -31 274 -93s99 -147.667 99 -257c0 -112.667 -33 -199.167 -99 -259.5s-157.333 -90.5 -274 -90.5h-165zM184 97l65 0.000976562c76.667 0 137 21.667 181 65s66 106 66 188c0 79.333 -22.167 141.166 -66.5 185.499
s-104.5 66.5 -180.5 66.5h-65v-505z" />
    <glyph glyph-name="E" unicode="E" horiz-adv-x="478" 
d="M73 0v700h346v-100h-235v-195h204v-99h-204v-206h245v-100h-356z" />
    <glyph glyph-name="F" unicode="F" horiz-adv-x="469" 
d="M73 0v700h345v-100h-234v-203h205v-99h-205v-298h-111z" />
    <glyph glyph-name="G" unicode="G" horiz-adv-x="742" 
d="M393 713c112.667 0 201.666 -36.3369 266.999 -109.004l-70 -73c-52.667 52.667 -117 79 -193 79c-73.333 0 -132.666 -24.5 -177.999 -73.5s-68 -110.833 -68 -185.5c0 -77.333 23.167 -140.166 69.5 -188.499s105.166 -72.5 176.499 -72.5
c46.667 0 85.834 6.83301 117.501 20.5s54.5 27.834 68.5 42.501v118h-144v95h249v-267c-80 -74.667 -179 -112 -297 -112c-101.333 0 -186 33.833 -254 101.5s-102 154.834 -102 261.501c0 102.667 33.833 188.834 101.5 258.501s153.167 104.5 256.5 104.5z" />
    <glyph glyph-name="H" unicode="H" horiz-adv-x="700" 
d="M73 0v700h111v-295h332v295h111v-700h-111v304h-332v-304h-111z" />
    <glyph glyph-name="I" unicode="I" horiz-adv-x="258" 
d="M73 0v700h111v-700h-111z" />
    <glyph glyph-name="J" unicode="J" horiz-adv-x="360" 
d="M21 4l13.001 99c22 -5.33301 42.667 -8 62 -8c52.667 0 79 29.667 79 89v516h111v-534c0 -57.333 -15.833 -100.333 -47.5 -129s-74.834 -43 -129.501 -43c-34.667 0 -64 3.33301 -88 10z" />
    <glyph glyph-name="K" unicode="K" horiz-adv-x="590" 
d="M73 0v700h111v-323l258 323h125l-273 -338l283 -362h-128l-265 346v-346h-111z" />
    <glyph glyph-name="L" unicode="L" horiz-adv-x="452" 
d="M73 0v700h111v-600h245v-100h-356z" />
    <glyph glyph-name="M" unicode="M" horiz-adv-x="882" 
d="M215 700l226 -511l226 511h143v-700h-107v542l-209 -480h-106l-209 480v-542h-107v700h143z" />
    <glyph glyph-name="N" unicode="N" horiz-adv-x="709" 
d="M72 0v700h112l343 -526v526h109v-700h-110l-344 523v-523h-110z" />
    <glyph glyph-name="O" unicode="O" horiz-adv-x="790" 
d="M34 350c0 103.333 34.167 189.667 102.5 259s154.5 104 258.5 104s190 -34.833 258 -104.5s102 -155.834 102 -258.501c0 -103.333 -34 -189.666 -102 -258.999s-154.333 -104 -259 -104c-104 0 -190 34.5 -258 103.5s-102 155.5 -102 259.5zM150 350.001
c0 -74.667 23.167 -136.5 69.5 -185.5s104.833 -73.5 175.5 -73.5c70 0 128.333 24.5 175 73.5s70 110.833 70 185.5c0 74 -23.333 135.667 -70 185s-105 74 -175 74c-70.667 0 -129.167 -24.667 -175.5 -74s-69.5 -111 -69.5 -185z" />
    <glyph glyph-name="P" unicode="P" horiz-adv-x="525" 
d="M73 0v700.001h203c66 0 119.833 -19.333 161.5 -58s62.5 -89.334 62.5 -152.001c0 -62 -21.167 -113 -63.5 -153s-95.5 -60 -159.5 -60h-93v-277h-111zM184 374.001h78.999c36.667 0 66.334 10.667 89.001 32s34 49.333 34 84c0 34 -11.333 61.333 -34 82s-52 31 -88 31
h-80v-229z" />
    <glyph glyph-name="Q" unicode="Q" horiz-adv-x="790" 
d="M34 350c0 103.333 34.167 189.669 102.5 259.002s154.5 104 258.5 104s190 -34.833 258 -104.5s102 -155.834 102 -258.501c0 -84.667 -24.667 -159.334 -74 -224.001l72 -68l-71 -73l-73 69c-60 -44.667 -131.667 -67 -215 -67c-104 0 -190 34.5 -258 103.5
s-102 155.5 -102 259.5zM150 350.003c0 -74.667 23.168 -136.501 69.501 -185.501s104.833 -73.5 175.5 -73.5c49.333 0 92.666 13 129.999 39l-71 68l70 73l70 -67c30.667 42.667 46 91.334 46 146.001c0 74 -23.333 135.667 -70 185s-105 74 -175 74
c-70.667 0 -129.167 -24.667 -175.5 -74s-69.5 -111 -69.5 -185z" />
    <glyph glyph-name="R" unicode="R" horiz-adv-x="566" 
d="M73 0v700h188c73.333 0 130.666 -19.167 171.999 -57.5s62 -87.833 62 -148.5c0 -40.667 -10.167 -77.167 -30.5 -109.5s-48.166 -55.833 -83.499 -70.5l170 -314h-123l-147 289h-97v-289h-111zM184 384h75c36 0 65.167 9.66699 87.5 29s33.5 46.333 33.5 81
c0 33.333 -10.333 59.833 -31 79.5s-50.667 29.5 -90 29.5h-75v-219z" />
    <glyph glyph-name="S" unicode="S" horiz-adv-x="514" 
d="M28 145l94.002 44c25.333 -66 71 -99 137 -99c32 0 57.5 8.33301 76.5 25s28.5 39.667 28.5 69c0 26.667 -10.833 49.834 -32.5 69.501s-48 36.5 -79 50.5s-61.833 29 -92.5 45s-56.834 38.833 -78.501 68.5s-32.5 65.167 -32.5 106.5
c0 55.333 19.167 100.666 57.5 135.999s89.166 53 152.499 53c31.333 0 59.833 -5 85.5 -15s46.5 -23 62.5 -39s28.5 -31.167 37.5 -45.5s16.167 -28.833 21.5 -43.5l-92 -41c-26 54.667 -65 82 -117 82c-30 0 -53.667 -8.16699 -71 -24.5s-26 -36.833 -26 -61.5
c0 -21.333 7.83301 -40.5 23.5 -57.5s35.167 -30.833 58.5 -41.5s48.833 -23 76.5 -37s53.167 -28.5 76.5 -43.5s42.833 -35.667 58.5 -62s23.5 -56.833 23.5 -91.5c0 -60 -20.167 -109.167 -60.5 -147.5s-94.5 -57.5 -162.5 -57.5c-34 0 -64.667 5.16699 -92 15.5
s-49.833 24 -67.5 41s-31.667 33.667 -42 50s-18.5 33.5 -24.5 51.5z" />
    <glyph glyph-name="T" unicode="T" horiz-adv-x="511" 
d="M196 0v600h-176v100h463v-100h-176v-600h-111z" />
    <glyph glyph-name="U" unicode="U" horiz-adv-x="681" 
d="M341 -13c-86 0 -152.668 24.332 -200.001 72.999s-71 114.334 -71 197.001v443h111v-442c0 -52 13.833 -93 41.5 -123s67.167 -45 118.5 -45c50.667 0 90 15.167 118 45.5s42 71.5 42 123.5v441h110v-442c0 -80.667 -24.167 -146 -72.5 -196s-114.166 -75 -197.499 -75z
" />
    <glyph glyph-name="V" unicode="V" horiz-adv-x="659" 
d="M389 0h-120l-261 700h122l199 -569l200 569h122z" />
    <glyph glyph-name="W" unicode="W" horiz-adv-x="960" 
d="M631 0l-151 534l-151 -534h-125l-194 700h119l143 -562l155 562h105l156 -562l143 562h118l-193 -700h-125z" />
    <glyph glyph-name="X" unicode="X" horiz-adv-x="621" 
d="M10 0l233 359l-221 341h132l155 -255l156 255h131l-221 -341l234 -359h-125l-176 276l-174 -276h-124z" />
    <glyph glyph-name="Y" unicode="Y" horiz-adv-x="558" 
d="M224 0v324l-216 376h126l145 -273l148 273h123l-216 -376v-324h-110z" />
    <glyph glyph-name="Z" unicode="Z" horiz-adv-x="599" 
d="M34 0v76l378 525h-367v99h513v-76l-379 -525h382v-99h-527z" />
    <glyph glyph-name="bracketleft" unicode="[" horiz-adv-x="319" 
d="M56 -147v929h193v-94h-85v-741h85v-94h-193z" />
    <glyph glyph-name="backslash" unicode="\" horiz-adv-x="439" 
d="M117 750l302 -858h-97l-302 858h97z" />
    <glyph glyph-name="bracketright" unicode="]" horiz-adv-x="316" 
d="M263 782v-929h-193v94h85v741h-85v94h193z" />
    <glyph glyph-name="asciicircum" unicode="^" horiz-adv-x="540" 
d="M42 318l183 382h90l183 -382h-104l-124 276l-125 -276h-103z" />
    <glyph glyph-name="underscore" unicode="_" horiz-adv-x="610" 
d="M29 -29h552v-87h-552v87z" />
    <glyph glyph-name="grave" unicode="`" horiz-adv-x="486" 
d="M266 725l70 -143h-93l-92 143h115z" />
    <glyph glyph-name="a" unicode="a" horiz-adv-x="518" 
d="M29 161c0 50.667 18.668 92.001 56.001 124.001s86 48 146 48c55.333 0 97 -12.667 125 -38v49c0 30 -9.83301 53.5 -29.5 70.5s-46.834 25.5 -81.501 25.5c-48 0 -96.667 -13.667 -146 -41l-42 76c62 40 128.333 60 199 60c138.667 0 208 -66 208 -198v-337h-95l-9 39
c-31.333 -34.667 -76 -52 -134 -52c-56 0 -102.833 16.167 -140.5 48.5s-56.5 74.166 -56.5 125.499zM138.001 164.001c0 -26 10.3311 -47.5 30.998 -64.5s47.334 -25.5 80.001 -25.5c32 0 58.333 8.33301 79 25s31 38.334 31 65.001c0 27.333 -10.167 49.166 -30.5 65.499
s-47.166 24.5 -80.499 24.5c-32.667 0 -59.167 -8.5 -79.5 -25.5s-30.5 -38.5 -30.5 -64.5z" />
    <glyph glyph-name="b" unicode="b" horiz-adv-x="616" 
d="M61 0l0.000976562 723h109v-271c11.333 18 31.5 36.333 60.5 55s65.167 28 108.5 28c74 0 133.833 -25.5 179.5 -76.5s68.5 -117.167 68.5 -198.5c0 -80 -23.833 -145.5 -71.5 -196.5s-108.834 -76.5 -183.501 -76.5c-70 0 -126 27 -168 81v-68h-103zM166.001 259
c0 -49.333 14.167 -91 42.5 -125s65.833 -51 112.5 -51c45.333 0 82.666 16.167 111.999 48.5s44 74.833 44 127.5s-14.5 95.667 -43.5 129s-66.167 50 -111.5 50s-82.666 -16 -111.999 -48s-44 -75.667 -44 -131z" />
    <glyph glyph-name="c" unicode="c" horiz-adv-x="501" 
d="M475 471l-32.999 -92c-39.333 38 -85.333 57 -138 57c-48.667 0 -88.334 -16.667 -119.001 -50s-46 -75 -46 -125s16.167 -92 48.5 -126s72.5 -51 120.5 -51s93.333 19.333 136 58l31 -90c-48.667 -43.333 -106.334 -65 -173.001 -65c-79.333 0 -144.666 26 -195.999 78
s-77 117.333 -77 196c0 78 26 143.167 78 195.5s116.667 78.5 194 78.5c66.667 0 124.667 -21.333 174 -64z" />
    <glyph glyph-name="d" unicode="d" horiz-adv-x="616" 
d="M555 723l0.000976562 -723h-103v68c-42 -54 -98 -81 -168 -81c-74.667 0 -135.834 25.5 -183.501 76.5s-71.5 116.5 -71.5 196.5c0 81.333 22.833 147.5 68.5 198.5s105.5 76.5 179.5 76.5c43.333 0 79.5 -9.33301 108.5 -28s49.167 -37 60.5 -55v271h109zM450.001 259
c0 55.333 -14.667 99 -44 131s-66.666 48 -111.999 48s-82.5 -16.667 -111.5 -50s-43.5 -76.333 -43.5 -129s14.667 -95.167 44 -127.5s66.666 -48.5 111.999 -48.5c46.667 0 84.167 17 112.5 51s42.5 75.667 42.5 125z" />
    <glyph glyph-name="e" unicode="e" horiz-adv-x="562" 
d="M30 259c0 80 24.334 146.002 73.001 198.002s109 78 181 78c78 0 139.333 -24.833 184 -74.5s67 -115.834 67 -198.501c0 -12 -0.333008 -21 -1 -27h-393c0.666992 -46 16.167 -83 46.5 -111s68.833 -42 115.5 -42c62.667 0 110.667 24.333 144 73l72 -54
c-16.667 -28.667 -43.334 -54.834 -80.001 -78.501s-82.667 -35.5 -138 -35.5c-80.667 0 -146 25.333 -196 76s-75 116 -75 196zM145.001 310.002h279c-2 42 -16 74.833 -42 98.5s-58.333 35.5 -97 35.5c-38 0 -70 -12.167 -96 -36.5s-40.667 -56.833 -44 -97.5z" />
    <glyph glyph-name="f" unicode="f" horiz-adv-x="310" 
d="M81 0v432h-57v90h57v23c0 62 16.667 107 50 135s76 42 128 42l39 -2v-93c-9.33301 1.33301 -18 2 -26 2c-54.667 0 -82 -28.667 -82 -86v-21h101v-90h-101v-432h-109z" />
    <glyph glyph-name="g" unicode="g" horiz-adv-x="611" 
d="M94 -142l34.998 83.999c46 -26.667 97 -40 153 -40c48.667 0 88.167 10.333 118.5 31s45.5 54 45.5 100v35c-6.66699 -10 -15.167 -19.833 -25.5 -29.5s-28.666 -20.667 -54.999 -33s-55.166 -18.5 -86.499 -18.5c-74.667 0 -135 25.333 -181 76s-69 116.334 -69 197.001
s23.5 146.667 70.5 198s107.5 77 181.5 77c42.667 0 78.5 -9.16699 107.5 -27.5s49.833 -36.833 62.5 -55.5v70h103v-453c0 -92 -24.5 -158.5 -73.5 -199.5s-114.833 -61.5 -197.5 -61.5c-69.333 0 -132.333 16.667 -189 50zM448.998 260.999
c0 52.667 -14.667 95.334 -44 128.001s-66.666 49 -111.999 49s-82.5 -16.5 -111.5 -49.5s-43.5 -75.5 -43.5 -127.5c0 -52.667 14.667 -95.334 44 -128.001s66.666 -49 111.999 -49c46.667 0 84.167 16.5 112.5 49.5s42.5 75.5 42.5 127.5z" />
    <glyph glyph-name="h" unicode="h" horiz-adv-x="555" 
d="M316 535c62.667 0 108.668 -21 138.001 -63s44 -94.667 44 -158v-314h-108v323c0 35.333 -9.83301 63.166 -29.5 83.499s-44.834 30.5 -75.501 30.5c-34 0 -61.667 -11.333 -83 -34s-32 -52 -32 -88v-315h-109v723h109v-269c12.667 22.667 32 41.834 58 57.501
s55.333 23.5 88 23.5z" />
    <glyph glyph-name="i" unicode="i" 
d="M61 0v522h109v-522h-109zM47 651c0 19.333 6.5 35.5 19.5 48.5s29.167 19.5 48.5 19.5s35.5 -6.5 48.5 -19.5s19.5 -29.167 19.5 -48.5s-6.5 -35.5 -19.5 -48.5s-29.167 -19.5 -48.5 -19.5s-35.5 6.5 -48.5 19.5s-19.5 29.167 -19.5 48.5z" />
    <glyph glyph-name="j" unicode="j" 
d="M61 -8v530h109v-534c0 -119.333 -60.667 -179 -182 -179l-30 2v92c9.33301 -0.666992 17 -1 23 -1c53.333 0 80 30 80 90zM47 651c0 19.333 6.5 35.5 19.5 48.5s29.167 19.5 48.5 19.5s35.5 -6.5 48.5 -19.5s19.5 -29.167 19.5 -48.5s-6.5 -35.5 -19.5 -48.5
s-29.167 -19.5 -48.5 -19.5s-35.5 6.5 -48.5 19.5s-19.5 29.167 -19.5 48.5z" />
    <glyph glyph-name="k" unicode="k" horiz-adv-x="505" 
d="M61 0v723h109v-424l193 223h124l-209 -236l223 -286h-129l-202 274v-274h-109z" />
    <glyph glyph-name="l" unicode="l" 
d="M61 0v723h109v-723h-109z" />
    <glyph glyph-name="m" unicode="m" horiz-adv-x="855" 
d="M798 341l-0.000976562 -340.998h-108v313c0 82.667 -33.333 124 -100 124c-31.333 0 -56.833 -11 -76.5 -33s-29.5 -52.667 -29.5 -92v-312h-109v323c0 35.333 -8.83301 63.166 -26.5 83.499s-42.167 30.5 -73.5 30.5c-30 0 -55 -11.333 -75 -34s-30 -52.334 -30 -89.001
v-314h-109v522h107v-68c10.667 22 28.5 41 53.5 57s54.167 24 87.5 24c72.667 0 122.667 -29 150 -87c32.667 58 86.334 87 161.001 87c57.333 0 101.333 -17.667 132 -53s46 -82.333 46 -141z" />
    <glyph glyph-name="n" unicode="n" horiz-adv-x="554" 
d="M315 535c62.667 0 108.668 -21 138.001 -63s44 -94.667 44 -158v-314h-108v323c0 35.333 -9.83301 63.166 -29.5 83.499s-44.834 30.5 -75.501 30.5c-34 0 -61.5 -11.333 -82.5 -34s-31.5 -52 -31.5 -88v-315h-109v522h107v-68c12.667 22.667 32.167 41.834 58.5 57.501
s55.833 23.5 88.5 23.5z" />
    <glyph glyph-name="o" unicode="o" horiz-adv-x="611" 
d="M139 260c0 -51.333 15.5 -93.498 46.5 -126.498s70.833 -49.5 119.5 -49.5s88.834 16.667 120.501 50s47.5 75.666 47.5 126.999s-15.833 93.666 -47.5 126.999s-71.834 50 -120.501 50s-88.5 -16.833 -119.5 -50.5s-46.5 -76.167 -46.5 -127.5zM29 260.002
c0 78.667 26.332 144.168 78.999 196.501s118.334 78.5 197.001 78.5c80 0 146.167 -26 198.5 -78s78.5 -117.333 78.5 -196s-26.333 -144 -79 -196s-118.667 -78 -198 -78c-80 0 -146 25.667 -198 77s-78 116.666 -78 195.999z" />
    <glyph glyph-name="p" unicode="p" horiz-adv-x="617" 
d="M61 -187l-0.000976562 708.999h103v-69c8 10.667 17.167 21 27.5 31s28.666 21 54.999 33s54.833 18 85.5 18c74.667 0 135.834 -25.667 183.501 -77s71.5 -116.666 71.5 -195.999c0 -81.333 -22.833 -147.5 -68.5 -198.5s-105.5 -76.5 -179.5 -76.5
c-42.667 0 -78.667 9.16699 -108 27.5s-49.666 36.5 -60.999 54.5v-256h-109zM165.999 261.999c0 -54.667 14.8311 -98 44.498 -130s66.834 -48 111.501 -48c45.333 0 82.5 16.5 111.5 49.5s43.5 75.833 43.5 128.5s-14.667 95.167 -44 127.5s-66.666 48.5 -111.999 48.5
c-46.667 0 -84.167 -17 -112.5 -51s-42.5 -75.667 -42.5 -125z" />
    <glyph glyph-name="q" unicode="q" horiz-adv-x="617" 
d="M555 522l-0.00195312 -709h-108v256c-11.333 -18 -31.666 -36.167 -60.999 -54.5s-65.333 -27.5 -108 -27.5c-74 0 -133.833 25.5 -179.5 76.5s-68.5 117.167 -68.5 198.5c0 80 23.833 145.5 71.5 196.5s108.834 76.5 183.501 76.5c30.667 0 59 -6 85 -18
s44.5 -23.167 55.5 -33.5s19.833 -20.5 26.5 -30.5v69h103zM449.998 262c0 50 -14.002 91.833 -42.002 125.5s-65.667 50.5 -113 50.5c-45.333 0 -82.666 -16.167 -111.999 -48.5s-44 -74.833 -44 -127.5c0 -52 14.5 -94.667 43.5 -128s66.167 -50 111.5 -50
c44.667 0 81.834 16 111.501 48s44.5 75.333 44.5 130z" />
    <glyph glyph-name="r" unicode="r" horiz-adv-x="337" 
d="M317 535l-0.000976562 -110c-98 0 -147 -66.667 -147 -200v-225h-109v522h107v-82c10.667 27.333 29.334 50 56.001 68s57.667 27 93 27z" />
    <glyph glyph-name="s" unicode="s" horiz-adv-x="426" 
d="M24 91l68.001 53.999c31.333 -45.333 73 -68 125 -68c24 0 43.333 5.66699 58 17s22 27.333 22 48c0 18 -8.66699 33.333 -26 46s-38.5 23.5 -63.5 32.5s-50 19.167 -75 30.5s-46.167 28.5 -63.5 51.5s-26 51.167 -26 84.5c0 45.333 16.833 81.333 50.5 108
s76.5 40 128.5 40c44 0 80.167 -9.83301 108.5 -29.5s48.833 -42.167 61.5 -67.5l-75 -50c-24 38.667 -57.667 58 -101 58c-20.667 0 -37.5 -5.16699 -50.5 -15.5s-19.5 -24.166 -19.5 -41.499c0 -18 8.83301 -33 26.5 -45s38.834 -22.333 63.501 -31s49.5 -18.5 74.5 -29.5
s46.333 -28 64 -51s26.5 -51.5 26.5 -85.5c0 -48 -17.833 -86.667 -53.5 -116s-80.834 -44 -135.501 -44c-86.667 0 -149.334 34.667 -188.001 104z" />
    <glyph glyph-name="t" unicode="t" horiz-adv-x="314" 
d="M70 522l0.000976562 109h108v-109h106v-90h-106v-243c0 -38.667 7 -64.834 21 -78.501s36.667 -20.5 68 -20.5l21 1v-94c-12.667 -2.66699 -30.334 -4 -53.001 -4c-60 0 -102.5 18.333 -127.5 55s-37.5 89.334 -37.5 158.001v226h-58v90h58z" />
    <glyph glyph-name="u" unicode="u" horiz-adv-x="550" 
d="M239 -13c-62.667 0 -108.668 21 -138.001 63s-44 94.667 -44 158v314h108v-323c0 -35.333 9.83301 -63.166 29.5 -83.499s44.834 -30.5 75.501 -30.5c34 0 61.5 11.333 82.5 34s31.5 52 31.5 88v315h109v-522h-107v68c-12.667 -22.667 -32 -41.834 -58 -57.501
s-55.667 -23.5 -89 -23.5z" />
    <glyph glyph-name="v" unicode="v" horiz-adv-x="520" 
d="M322 0h-123l-194 522h116l140 -404l139 404h114z" />
    <glyph glyph-name="w" unicode="w" horiz-adv-x="822" 
d="M528 0l-117 374l-118 -374h-120l-166 522h118l114 -400c0.666992 2 40.667 135.333 120 400h104l119 -400l115 400h118l-166 -522h-121z" />
    <glyph glyph-name="x" unicode="x" horiz-adv-x="518" 
d="M390 0l-131 187l-131 -187h-120l189 268l-178 254h124l116 -177l116 177h124l-178 -254l189 -268h-120z" />
    <glyph glyph-name="y" unicode="y" horiz-adv-x="524" 
d="M244 -179h-105l74 188l-207 513h117l141 -380l139 380h114z" />
    <glyph glyph-name="z" unicode="z" horiz-adv-x="465" 
d="M30 0v71l267 359h-259v92h391v-72l-266 -359h270v-91h-403z" />
    <glyph glyph-name="braceleft" unicode="{" horiz-adv-x="368" 
d="M105 46l0.000976562 106.998c0 42 -6.16699 71.5 -18.5 88.5s-30.5 25.5 -54.5 25.5v101c25.333 0 43.833 8.33301 55.5 25s17.5 46.334 17.5 89.001v107c0 128.667 64.333 193 193 193v-94c-56.667 0 -85 -29 -85 -87v-153c0 -22 -2.83301 -41.667 -8.5 -59
s-12.834 -30.666 -21.501 -39.999s-16.5 -16.5 -23.5 -21.5s-13.5 -8.5 -19.5 -10.5c15.333 -4 31.333 -16.667 48 -38s25 -52 25 -92v-153c0 -58 28.333 -87 85 -87v-94c-128.667 0 -193 64.333 -193 193z" />
    <glyph glyph-name="bar" unicode="|" horiz-adv-x="267" 
d="M82 -221v1025h103v-1025h-103z" />
    <glyph glyph-name="braceright" unicode="}" horiz-adv-x="367" 
d="M263 153l0.000976562 -106.998c0 -128.667 -64.333 -193 -193 -193v94c56.667 0 85 29 85 87v153c0 40 8.33301 70.667 25 92s32.667 34 48 38c-6 2 -12.5 5.5 -19.5 10.5s-14.833 12.167 -23.5 21.5s-15.834 22.666 -21.501 39.999s-8.5 37 -8.5 59v153
c0 58 -28.333 87 -85 87v94c128.667 0 193 -64.333 193 -193v-107c0 -42.667 5.83301 -72.334 17.5 -89.001s30.167 -25 55.5 -25v-101c-24 0 -42.167 -8.5 -54.5 -25.5s-18.5 -46.5 -18.5 -88.5z" />
    <glyph glyph-name="asciitilde" unicode="~" horiz-adv-x="541" 
d="M358 324c18 0 31.668 5.66699 41.001 17s14.333 25.666 15 42.999h87c-0.666992 -42.667 -12.834 -79.5 -36.501 -110.5s-56.5 -46.5 -98.5 -46.5c-30.667 0 -63.667 9.83301 -99 29.5s-63.666 29.5 -84.999 29.5c-18 0 -31.667 -5.66699 -41 -17
s-14.333 -25.666 -15 -42.999h-86c0 46.667 12.333 84.667 37 114s58 44 100 44c26.667 0 59.667 -10 99 -30s66.666 -30 81.999 -30z" />
    <glyph glyph-name="exclamdown" unicode="&#xa1;" horiz-adv-x="275" 
d="M81 -153l8 512h97l9 -512h-114zM67 489c0 19.333 7 36 21 50s30.667 21 50 21s36 -7 50 -21s21 -30.667 21 -50s-7 -36 -21 -50s-30.667 -21 -50 -21s-36 7 -50 21s-21 30.667 -21 50z" />
    <glyph glyph-name="cent" unicode="&#xa2;" horiz-adv-x="505" 
d="M268 0l0.00292969 66.002c-70.667 7.33301 -128 36.166 -172 86.499s-66 111.833 -66 184.5c0 72 22.333 133.5 67 184.5s101.667 80.167 171 87.5v91h74v-92c51.333 -6 95.666 -26 132.999 -60l-32 -93c-40.667 38.667 -86.667 58 -138 58
c-48.667 0 -88.334 -16.667 -119.001 -50s-46 -75 -46 -125c0 -50.667 16 -93 48 -127s72 -51 120 -51c51.333 0 96.666 19.667 135.999 59l31 -91c-38.667 -34.667 -83 -55.334 -133 -62.001v-66h-74z" />
    <glyph glyph-name="sterling" unicode="&#xa3;" horiz-adv-x="564" 
d="M45 304l-0.000976562 86.001h55v116c0 61.333 19 111.166 57 149.499s89.667 57.5 155 57.5c54.667 0 98.167 -14.167 130.5 -42.5s53.5 -59.833 63.5 -94.5l-90 -39c-6.66699 19.333 -18.667 36.333 -36 51s-39.666 22 -66.999 22c-32.667 0 -58 -9.83301 -76 -29.5
s-27 -46.5 -27 -80.5v-110h162v-86h-162v-206h312v-98h-485v98h63v206h-55z" />
    <glyph glyph-name="yen" unicode="&#xa5;" horiz-adv-x="570" 
d="M75 324v75h112l-173 301h126l145 -273l148 273h123l-173 -301h112v-75h-155v-81h155v-75h-155v-168h-110v168h-155v75h155v81h-155z" />
    <glyph glyph-name="section" unicode="&#xa7;" horiz-adv-x="494" 
d="M459 233c0 -30.667 -8 -57.665 -24 -80.998s-37.667 -41.333 -65 -54c50 -38.667 75 -85.667 75 -141c0 -52 -18 -94.167 -54 -126.5s-84.333 -48.5 -145 -48.5c-58 0 -104 14.333 -138 43s-57.333 60 -70 94l90 39c24 -50.667 63.333 -76 118 -76
c28 0 49.667 6.66699 65 20s23 32 23 56c0 34.667 -24.667 67 -74 97l-133 80c-62 37.333 -93 86.333 -93 147c0 30 8 56.833 24 80.5s37.667 41.5 65 53.5c-50 39.333 -75 86.666 -75 141.999c0 51.333 18.167 93.333 54.5 126s84.5 49 144.5 49c58 0 104 -14.5 138 -43.5
s57.333 -60.5 70 -94.5l-90 -38c-24 50.667 -63.333 76 -118 76c-28 0 -49.667 -6.83301 -65 -20.5s-23 -32.5 -23 -56.5c0 -20 6.16699 -37.333 18.5 -52s30.833 -29.334 55.5 -44.001l113 -67c75.333 -44.667 113 -98 113 -160zM357 231.002
c0 30.667 -19.333 56.668 -58 78.001l-88 48c-22 -0.666992 -40 -8 -54 -22s-21 -31 -21 -51c0 -28.667 12.667 -50.334 38 -65.001l108 -62c22 0.666992 40 8.16699 54 22.5s21 31.5 21 51.5z" />
    <glyph glyph-name="dieresis" unicode="&#xa8;" horiz-adv-x="486" 
d="M271 653c0 16.667 5.5 30.667 16.5 42s25.167 17 42.5 17c16.667 0 30.667 -5.83301 42 -17.5s17 -25.5 17 -41.5c0 -16.667 -5.66699 -30.667 -17 -42s-25.333 -17 -42 -17c-17.333 0 -31.5 5.66699 -42.5 17s-16.5 25.333 -16.5 42zM96 653
c0 16 5.66699 29.833 17 41.5s25.333 17.5 42 17.5s30.667 -5.83301 42 -17.5s17 -25.5 17 -41.5c0 -16.667 -5.66699 -30.667 -17 -42s-25.333 -17 -42 -17s-30.667 5.66699 -42 17s-17 25.333 -17 42z" />
    <glyph glyph-name="copyright" unicode="&#xa9;" horiz-adv-x="797" 
d="M39 348c0 102 34.168 188.333 102.501 259s153.5 106 255.5 106c103.333 0 189.166 -35.167 257.499 -105.5s102.5 -156.833 102.5 -259.5s-34 -188.667 -102 -258s-153.667 -104 -257 -104s-189 34.833 -257 104.5s-102 155.5 -102 257.5zM117.001 349
c0 -84 26.332 -153.832 78.999 -209.499s120 -83.5 202 -83.5c82.667 0 150.167 27.667 202.5 83s78.5 125.666 78.5 210.999c0 84 -26.167 153.667 -78.5 209s-120.166 83 -203.499 83c-82 0 -149.167 -27.833 -201.5 -83.5s-78.5 -125.5 -78.5 -209.5zM218 348.001
c0 55.333 17 101.334 51 138.001s78.333 55 133 55c62.667 0 112 -24.667 148 -74l-58 -50c-24.667 30.667 -54.667 46 -90 46c-31.333 0 -55.5 -10.5 -72.5 -31.5s-25.5 -48.5 -25.5 -82.5s8.5 -61.5 25.5 -82.5s41.167 -31.5 72.5 -31.5c35.333 0 65.333 15 90 45l58 -49
c-36 -50 -85.333 -75 -148 -75c-55.333 0 -99.833 18.167 -133.5 54.5s-50.5 82.166 -50.5 137.499z" />
    <glyph glyph-name="ordfeminine" unicode="&#xaa;" horiz-adv-x="410" 
d="M39 432c0 38.667 13.998 70 41.998 94s64.667 36 110 36c38 0 68.667 -8.66699 92 -26v32c0 22 -7.16699 39.167 -21.5 51.5s-34.166 18.5 -59.499 18.5c-36 0 -72.667 -10.333 -110 -31l-33 60c46.667 30.667 97.334 46 152.001 46c104 0 156 -50.333 156 -151v-253h-73
l-7 27c-24 -24 -57 -36 -99 -36c-42.667 0 -78.167 12 -106.5 36s-42.5 56 -42.5 96zM122.998 434c0 -19.333 7.66699 -35.167 23 -47.5s35 -18.5 59 -18.5s43.5 6 58.5 18s22.5 28 22.5 48s-7.5 35.833 -22.5 47.5s-34.5 17.5 -58.5 17.5s-43.667 -6.16699 -59 -18.5
s-23 -27.833 -23 -46.5z" />
    <glyph glyph-name="guillemotleft" unicode="&#xab;" horiz-adv-x="459" 
d="M204 293l124 186h100l-124 -186l124 -185h-100zM154 108l-123 185l123 186h100l-123 -186l123 -185h-100z" />
    <glyph glyph-name="registered" unicode="&#xae;" horiz-adv-x="452" 
d="M228 508h-24v-79h-53v216h82c24 0 42.5 -6.16699 55.5 -18.5s19.5 -28.833 19.5 -49.5c0 -28.667 -11 -48 -33 -58l40 -90h-55zM230 600h-26v-48h26c15.333 0 23 8 23 24s-7.66699 24 -23 24zM17 536c0 58.667 19.168 107.666 57.501 146.999s87.833 59 148.5 59
c63.333 0 114.166 -19.5 152.499 -58.5s57.5 -87.833 57.5 -146.5c0 -58 -19 -106.667 -57 -146s-88.333 -59 -151 -59c-62 0 -112.167 19.333 -150.5 58s-57.5 87.334 -57.5 146.001zM68.001 535.999c0 -45.333 14.166 -82.998 42.499 -112.998s66.5 -45 114.5 -45
c48.667 0 87 14.667 115 44s42 67.666 42 114.999s-14.167 85.5 -42.5 114.5s-67.166 43.5 -116.499 43.5c-47.333 0 -85 -14.833 -113 -44.5s-42 -67.834 -42 -114.501z" />
    <glyph glyph-name="macron" unicode="&#xaf;" horiz-adv-x="448" 
d="M96 616v82h255v-82h-255z" />
    <glyph glyph-name="degree" unicode="&#xb0;" horiz-adv-x="367" 
d="M28 560c0 42.667 14.667 78.833 44 108.5s66.333 44.5 111 44.5s81.667 -14.667 111 -44s44 -65.333 44 -108c0 -43.333 -14.5 -79.5 -43.5 -108.5s-66.167 -43.5 -111.5 -43.5s-82.5 14.5 -111.5 43.5s-43.5 64.833 -43.5 107.5zM109 560.999
c0 -22 6.66699 -40.167 20 -54.5s31.333 -21.5 54 -21.5s40.667 7.16699 54 21.5s20 32.5 20 54.5c0 21.333 -6.66699 39.333 -20 54s-31.333 22 -54 22c-22 0 -39.833 -7.33301 -53.5 -22s-20.5 -32.667 -20.5 -54z" />
    <glyph glyph-name="twosuperior" unicode="&#xb2;" horiz-adv-x="351" 
d="M42 303v43.999c0 26.667 9.5 52.167 28.5 76.5s39.833 43.833 62.5 58.5s43.5 31 62.5 49s28.5 35 28.5 51c0 14.667 -4.83301 26.667 -14.5 36s-22.834 14 -39.501 14c-27.333 0 -48.333 -16 -63 -48l-67 25c8 26 23 49 45 69s51.333 30 88 30
c40.667 0 73.667 -11.333 99 -34s38 -52.667 38 -90c0 -24 -8.33301 -46.5 -25 -67.5s-35.167 -38 -55.5 -51s-39.666 -27.667 -57.999 -44s-28.833 -32.166 -31.5 -47.499h176v-71h-274z" />
    <glyph glyph-name="threesuperior" unicode="&#xb3;" horiz-adv-x="349" 
d="M303 700v-58l-97 -101c31.333 -1.33301 57.5 -12.5 78.5 -33.5s31.5 -48.833 31.5 -83.5c0 -40.667 -13.5 -72.334 -40.5 -95.001s-60.833 -34 -101.5 -34c-38 0 -68.333 9.83301 -91 29.5s-38.667 42.834 -48 69.501l67 26c14.667 -33.333 37.667 -50 69 -50
c17.333 0 31.5 5 42.5 15s16.5 24 16.5 42c0 39.333 -23 59 -69 59h-41v58l79 85h-146v71h250z" />
    <glyph glyph-name="acute" unicode="&#xb4;" horiz-adv-x="486" 
d="M150 582l69 143h116l-93 -143h-92z" />
    <glyph glyph-name="paragraph" unicode="&#xb6;" horiz-adv-x="525" 
d="M227 -45v370.999c-52.667 0.666992 -97.167 19 -133.5 55s-54.5 80.333 -54.5 133s18 96.834 54 132.501s80.333 53.5 133 53.5h89v-745h-88zM377 -45.001v745h88v-745h-88z" />
    <glyph glyph-name="periodcentered" unicode="&#xb7;" horiz-adv-x="238" 
d="M48 314c0 19.333 6.83301 36 20.5 50s30.167 21 49.5 21s36 -7 50 -21s21 -30.667 21 -50s-7 -36 -21 -50s-30.667 -21 -50 -21s-35.833 7 -49.5 21s-20.5 30.667 -20.5 50z" />
    <glyph glyph-name="cedilla" unicode="&#xb8;" horiz-adv-x="448" 
d="M173 11h61l-8 -54c52 -9.33301 78 -39 78 -89c0 -32.667 -11 -57 -33 -73s-50.333 -24 -85 -24c-17.333 0 -34 2.33301 -50 7l13 61c10.667 -2.66699 21 -4 31 -4c33.333 0 50 12.333 50 37c0 24 -18.333 36 -55 36l-17 -1z" />
    <glyph glyph-name="onesuperior" unicode="&#xb9;" horiz-adv-x="270" 
d="M65 599l-21 71l82 30h69v-397h-84v314z" />
    <glyph glyph-name="ordmasculine" unicode="&#xba;" horiz-adv-x="474" 
d="M113 505c0 -37.333 11.5 -68.333 34.5 -93s52.5 -37 88.5 -37s65.667 12.5 89 37.5s35 56.167 35 93.5c0 38 -11.667 69.333 -35 94s-53 37 -89 37s-65.5 -12.5 -88.5 -37.5s-34.5 -56.5 -34.5 -94.5zM28 505c0 60 19.833 109.667 59.5 149s89.5 59 149.5 59
c60.667 0 110.5 -19.5 149.5 -58.5s58.5 -88.5 58.5 -148.5c0 -59.333 -19.833 -108.5 -59.5 -147.5s-89.5 -58.5 -149.5 -58.5c-60.667 0 -110.5 19.333 -149.5 58s-58.5 87.667 -58.5 147z" />
    <glyph glyph-name="guillemotright" unicode="&#xbb;" horiz-adv-x="459" 
d="M131 479l124 -186l-124 -185h-100l124 185l-124 186h100zM428 293l-123 -185h-100l123 185l-123 186h100z" />
    <glyph glyph-name="onequarter" unicode="&#xbc;" horiz-adv-x="810" 
d="M258 -41h-96l382 782h96zM647 0v76h-188v63l182 258h88v-248h49v-73h-49v-76h-82zM541 149h106v154zM84 599l-21 71l82 30h69v-397h-84v314z" />
    <glyph glyph-name="onehalf" unicode="&#xbd;" horiz-adv-x="821" 
d="M84 599l-21 71l82 30h69v-397h-84v314zM241 -41h-96l382 782h96zM497 0v43.999c0 26.667 9.5 52.167 28.5 76.5s39.833 43.833 62.5 58.5s43.5 31 62.5 49s28.5 35 28.5 51c0 14.667 -4.83301 26.667 -14.5 36s-22.834 14 -39.501 14c-27.333 0 -48.333 -16 -63 -48
l-67 25c8 26 23 49 45 69s51.333 30 88 30c40.667 0 73.667 -11.333 99 -34s38 -52.667 38 -90c0 -24 -8.33301 -46.5 -25 -67.5s-35.167 -38 -55.5 -51s-39.666 -27.667 -57.999 -44s-28.833 -32.166 -31.5 -47.499h176v-71h-274z" />
    <glyph glyph-name="threequarters" unicode="&#xbe;" horiz-adv-x="860" 
d="M309 -41h-96l382 782h96zM313 700v-58l-97 -101c31.333 -1.33301 57.5 -12.5 78.5 -33.5s31.5 -48.833 31.5 -83.5c0 -40.667 -13.5 -72.334 -40.5 -95.001s-60.833 -34 -101.5 -34c-38 0 -68.333 9.83301 -91 29.5s-38.667 42.834 -48 69.501l67 26
c14.667 -33.333 37.667 -50 69 -50c17.333 0 31.5 5 42.5 15s16.5 24 16.5 42c0 39.333 -23 59 -69 59h-41v58l79 85h-146v71h250zM685 0v76h-188v63l182 258h88v-248h49v-73h-49v-76h-82zM579 149h106v154z" />
    <glyph glyph-name="questiondown" unicode="&#xbf;" horiz-adv-x="475" 
d="M313 359l-0.000976562 -48.001c0 -25.333 -5.66699 -48.666 -17 -69.999s-25.166 -39.833 -41.499 -55.5l-49.5 -46.5c-16.667 -15.333 -30.667 -32.333 -42 -51s-17 -38.334 -17 -59.001c0 -28.667 9 -52.167 27 -70.5s43 -27.5 75 -27.5c48 0 83.667 25 107 75l85 -39
c-12 -34.667 -34 -65.5 -66 -92.5s-75.667 -40.5 -131 -40.5c-62.667 0 -113.167 17.667 -151.5 53s-57.5 81 -57.5 137c0 28.667 6 55.167 18 79.5s26.5 44.833 43.5 61.5l50.5 47.5c16.667 15 31 31.333 43 49s18 35.834 18 54.501v43h106zM329.999 488.999
c0 -19.333 -6.83301 -36 -20.5 -50s-30.167 -21 -49.5 -21s-36 7 -50 21s-21 30.667 -21 50s7 36 21 50s30.667 21 50 21s35.833 -7 49.5 -21s20.5 -30.667 20.5 -50z" />
    <glyph glyph-name="Agrave" unicode="&#xc0;" horiz-adv-x="646" 
d="M451 204h-256l-73 -204h-112l255 700h115l255 -700h-112zM420 297l-97 283l-97 -283h194zM301 884l70 -143h-93l-92 143h115z" />
    <glyph glyph-name="Aacute" unicode="&#xc1;" horiz-adv-x="646" 
d="M451 204h-256l-73 -204h-112l255 700h115l255 -700h-112zM420 297l-97 283l-97 -283h194zM269 741l69 143h116l-93 -143h-92z" />
    <glyph glyph-name="Acircumflex" unicode="&#xc2;" horiz-adv-x="646" 
d="M451 204h-256l-73 -204h-112l255 700h115l255 -700h-112zM420 297l-97 283l-97 -283h194zM378 744l-55 77l-55 -77h-96l95 135h112l94 -135h-95z" />
    <glyph glyph-name="Atilde" unicode="&#xc3;" horiz-adv-x="646" 
d="M451 204h-256l-73 -204h-112l255 700h115l255 -700h-112zM420 297l-97 283l-97 -283h194zM390 751c-18.667 0 -41.667 6.83398 -69 20.501s-46.333 20.5 -57 20.5c-22 0 -33.667 -13.667 -35 -41h-72c0 36 9.5 65 28.5 87s43.5 33 73.5 33
c19.333 0 42.333 -6.83301 69 -20.5s45 -20.5 55 -20.5c10.667 0 19.167 3.66699 25.5 11s9.5 17.333 9.5 30h72c0 -36.667 -9.16699 -65.834 -27.5 -87.501s-42.5 -32.5 -72.5 -32.5z" />
    <glyph glyph-name="Adieresis" unicode="&#xc4;" horiz-adv-x="646" 
d="M451 204h-256l-73 -204h-112l255 700h115l255 -700h-112zM420 297l-97 283l-97 -283h194zM355 812c0 16.667 5.5 30.667 16.5 42s25.167 17 42.5 17c16.667 0 30.667 -5.83301 42 -17.5s17 -25.5 17 -41.5c0 -16.667 -5.66699 -30.667 -17 -42s-25.333 -17 -42 -17
c-17.333 0 -31.5 5.66699 -42.5 17s-16.5 25.333 -16.5 42zM180 812c0 16 5.66699 29.833 17 41.5s25.333 17.5 42 17.5s30.667 -5.83301 42 -17.5s17 -25.5 17 -41.5c0 -16.667 -5.66699 -30.667 -17 -42s-25.333 -17 -42 -17s-30.667 5.66699 -42 17s-17 25.333 -17 42z
" />
    <glyph glyph-name="Aring" unicode="&#xc5;" horiz-adv-x="646" 
d="M451 204h-256l-73 -204h-112l255 700h115l255 -700h-112zM420 297l-97 283l-97 -283h194zM224 829c0 27.333 9.33496 49.666 28.002 66.999s42 26 70 26c29.333 0 53.166 -8.66699 71.499 -26s27.5 -39.333 27.5 -66c0 -27.333 -9.33301 -49.833 -28 -67.5
s-42.334 -26.5 -71.001 -26.5c-28 0 -51.333 8.83301 -70 26.5s-28 39.834 -28 66.501zM283.002 829c0 -12 3.66602 -21.667 10.999 -29s17 -11 29 -11s21.5 3.66699 28.5 11s10.5 17.333 10.5 30c0 12 -3.66699 21.667 -11 29s-17 11 -29 11
c-11.333 0 -20.666 -3.83301 -27.999 -11.5s-11 -17.5 -11 -29.5z" />
    <glyph glyph-name="AE" unicode="&#xc6;" horiz-adv-x="834" 
d="M8 0l361 700h407v-100h-235v-195h203v-99h-203v-206h244v-100h-355v204h-201l-100 -204h-121zM420 600l-148 -303h158v303h-10z" />
    <glyph glyph-name="Ccedilla" unicode="&#xc7;" horiz-adv-x="647" 
d="M582 157l33 -96.999c-63.333 -48.667 -136.666 -73 -219.999 -73l-16 1l-4 -31c52 -9.33301 78 -39 78 -89c0 -32.667 -11 -57 -33 -73s-50.333 -24 -85 -24c-16.667 0 -33.334 2.33301 -50.001 7l13 61c10.667 -2.66699 21 -4 31 -4c33.333 0 50 12.333 50 37
c0 24 -18.333 36 -55 36l-17 -1l12 87c-85.333 16 -154 56.667 -206 122s-78 143.333 -78 234c0 103.333 34.167 189.666 102.5 258.999s153.833 104 256.5 104c81.333 0 152 -22.667 212 -68l-33 -98c-54 41.333 -112.667 62 -176 62c-72 0 -131.167 -24.833 -177.5 -74.5
s-69.5 -111.167 -69.5 -184.5c0 -74 22.833 -135.667 68.5 -185s105.5 -74 179.5 -74c64 0 125.333 22 184 66z" />
    <glyph glyph-name="Egrave" unicode="&#xc8;" horiz-adv-x="478" 
d="M73 0v700h346v-100h-235v-195h204v-99h-204v-206h245v-100h-356zM246 884l70 -143h-93l-92 143h115z" />
    <glyph glyph-name="Eacute" unicode="&#xc9;" horiz-adv-x="478" 
d="M73 0v700h346v-100h-235v-195h204v-99h-204v-206h245v-100h-356zM191 741l69 143h116l-93 -143h-92z" />
    <glyph glyph-name="Ecircumflex" unicode="&#xca;" horiz-adv-x="478" 
d="M73 0v700h346v-100h-235v-195h204v-99h-204v-206h245v-100h-356zM306 744l-55 77l-55 -77h-96l95 135h112l94 -135h-95z" />
    <glyph glyph-name="Edieresis" unicode="&#xcb;" horiz-adv-x="478" 
d="M73 0v700h346v-100h-235v-195h204v-99h-204v-206h245v-100h-356zM285 812c0 16.667 5.5 30.667 16.5 42s25.167 17 42.5 17c16.667 0 30.667 -5.83301 42 -17.5s17 -25.5 17 -41.5c0 -16.667 -5.66699 -30.667 -17 -42s-25.333 -17 -42 -17
c-17.333 0 -31.5 5.66699 -42.5 17s-16.5 25.333 -16.5 42zM110 812c0 16 5.66699 29.833 17 41.5s25.333 17.5 42 17.5s30.667 -5.83301 42 -17.5s17 -25.5 17 -41.5c0 -16.667 -5.66699 -30.667 -17 -42s-25.333 -17 -42 -17s-30.667 5.66699 -42 17s-17 25.333 -17 42z
" />
    <glyph glyph-name="Igrave" unicode="&#xcc;" horiz-adv-x="258" 
d="M73 0v700h111v-700h-111zM119 884l70 -143h-93l-92 143h115z" />
    <glyph glyph-name="Iacute" unicode="&#xcd;" horiz-adv-x="258" 
d="M73 0v700h111v-700h-111zM72 741l69 143h116l-93 -143h-92z" />
    <glyph glyph-name="Icircumflex" unicode="&#xce;" horiz-adv-x="258" 
d="M73 0v700h111v-700h-111zM186 744l-55 77l-55 -77h-96l95 135h112l94 -135h-95z" />
    <glyph glyph-name="Idieresis" unicode="&#xcf;" horiz-adv-x="258" 
d="M73 0v700h111v-700h-111zM164 812c0 16.667 5.5 30.667 16.5 42s25.167 17 42.5 17c16.667 0 30.667 -5.83301 42 -17.5s17 -25.5 17 -41.5c0 -16.667 -5.66699 -30.667 -17 -42s-25.333 -17 -42 -17c-17.333 0 -31.5 5.66699 -42.5 17s-16.5 25.333 -16.5 42zM-11 812
c0 16 5.66699 29.833 17 41.5s25.333 17.5 42 17.5s30.667 -5.83301 42 -17.5s17 -25.5 17 -41.5c0 -16.667 -5.66699 -30.667 -17 -42s-25.333 -17 -42 -17s-30.667 5.66699 -42 17s-17 25.333 -17 42z" />
    <glyph glyph-name="Eth" unicode="&#xd0;" horiz-adv-x="653" 
d="M23 304v98h57v298h165c116.667 0 208 -31 274 -93s99 -147.667 99 -257c0 -112.667 -33 -199.167 -99 -259.5s-157.333 -90.5 -274 -90.5h-165v304h-57zM191 97l65 0.000976562c76.667 0 137 21.667 181 65s66 106 66 188c0 79.333 -22.167 141.166 -66.5 185.499
s-104.5 66.5 -180.5 66.5h-65v-200h127v-98h-127v-207z" />
    <glyph glyph-name="Ntilde" unicode="&#xd1;" horiz-adv-x="709" 
d="M72 0v700h112l343 -526v526h109v-700h-110l-344 523v-523h-110zM436 751c-18.667 0 -41.667 6.83398 -69 20.501s-46.333 20.5 -57 20.5c-22 0 -33.667 -13.667 -35 -41h-72c0 36 9.5 65 28.5 87s43.5 33 73.5 33c19.333 0 42.333 -6.83301 69 -20.5s45 -20.5 55 -20.5
c10.667 0 19.167 3.66699 25.5 11s9.5 17.333 9.5 30h72c0 -36.667 -9.16699 -65.834 -27.5 -87.501s-42.5 -32.5 -72.5 -32.5z" />
    <glyph glyph-name="Ograve" unicode="&#xd2;" horiz-adv-x="790" 
d="M34 350c0 103.333 34.167 189.667 102.5 259s154.5 104 258.5 104s190 -34.833 258 -104.5s102 -155.834 102 -258.501c0 -103.333 -34 -189.666 -102 -258.999s-154.333 -104 -259 -104c-104 0 -190 34.5 -258 103.5s-102 155.5 -102 259.5zM150 350.001
c0 -74.667 23.167 -136.5 69.5 -185.5s104.833 -73.5 175.5 -73.5c70 0 128.333 24.5 175 73.5s70 110.833 70 185.5c0 74 -23.333 135.667 -70 185s-105 74 -175 74c-70.667 0 -129.167 -24.667 -175.5 -74s-69.5 -111 -69.5 -185zM379 884.001l70 -143h-93l-92 143h115z
" />
    <glyph glyph-name="Oacute" unicode="&#xd3;" horiz-adv-x="790" 
d="M34 350c0 103.333 34.167 189.667 102.5 259s154.5 104 258.5 104s190 -34.833 258 -104.5s102 -155.834 102 -258.501c0 -103.333 -34 -189.666 -102 -258.999s-154.333 -104 -259 -104c-104 0 -190 34.5 -258 103.5s-102 155.5 -102 259.5zM150 350.001
c0 -74.667 23.167 -136.5 69.5 -185.5s104.833 -73.5 175.5 -73.5c70 0 128.333 24.5 175 73.5s70 110.833 70 185.5c0 74 -23.333 135.667 -70 185s-105 74 -175 74c-70.667 0 -129.167 -24.667 -175.5 -74s-69.5 -111 -69.5 -185zM334 741.001l69 143h116l-93 -143h-92z
" />
    <glyph glyph-name="Ocircumflex" unicode="&#xd4;" horiz-adv-x="790" 
d="M34 350c0 103.333 34.167 189.667 102.5 259s154.5 104 258.5 104s190 -34.833 258 -104.5s102 -155.834 102 -258.501c0 -103.333 -34 -189.666 -102 -258.999s-154.333 -104 -259 -104c-104 0 -190 34.5 -258 103.5s-102 155.5 -102 259.5zM150 350.001
c0 -74.667 23.167 -136.5 69.5 -185.5s104.833 -73.5 175.5 -73.5c70 0 128.333 24.5 175 73.5s70 110.833 70 185.5c0 74 -23.333 135.667 -70 185s-105 74 -175 74c-70.667 0 -129.167 -24.667 -175.5 -74s-69.5 -111 -69.5 -185zM449 744.001l-55 77l-55 -77h-96l95 135
h112l94 -135h-95z" />
    <glyph glyph-name="Otilde" unicode="&#xd5;" horiz-adv-x="790" 
d="M34 350c0 103.333 34.167 189.667 102.5 259s154.5 104 258.5 104s190 -34.833 258 -104.5s102 -155.834 102 -258.501c0 -103.333 -34 -189.666 -102 -258.999s-154.333 -104 -259 -104c-104 0 -190 34.5 -258 103.5s-102 155.5 -102 259.5zM150 350.001
c0 -74.667 23.167 -136.5 69.5 -185.5s104.833 -73.5 175.5 -73.5c70 0 128.333 24.5 175 73.5s70 110.833 70 185.5c0 74 -23.333 135.667 -70 185s-105 74 -175 74c-70.667 0 -129.167 -24.667 -175.5 -74s-69.5 -111 -69.5 -185zM463 751.001
c-19.333 0 -42.333 6.83398 -69 20.501s-45.667 20.5 -57 20.5c-22 0 -33.667 -13.667 -35 -41h-72c0 36 9.5 65 28.5 87s43.5 33 73.5 33c19.333 0 42.333 -6.83301 69 -20.5s45 -20.5 55 -20.5c10.667 0 19.167 3.66699 25.5 11s9.5 17.333 9.5 30h72
c0 -36.667 -9.16699 -65.834 -27.5 -87.501s-42.5 -32.5 -72.5 -32.5z" />
    <glyph glyph-name="Odieresis" unicode="&#xd6;" horiz-adv-x="790" 
d="M34 350c0 103.333 34.167 189.667 102.5 259s154.5 104 258.5 104s190 -34.833 258 -104.5s102 -155.834 102 -258.501c0 -103.333 -34 -189.666 -102 -258.999s-154.333 -104 -259 -104c-104 0 -190 34.5 -258 103.5s-102 155.5 -102 259.5zM150 350.001
c0 -74.667 23.167 -136.5 69.5 -185.5s104.833 -73.5 175.5 -73.5c70 0 128.333 24.5 175 73.5s70 110.833 70 185.5c0 74 -23.333 135.667 -70 185s-105 74 -175 74c-70.667 0 -129.167 -24.667 -175.5 -74s-69.5 -111 -69.5 -185zM427 812.001
c0 16.667 5.5 30.667 16.5 42s25.167 17 42.5 17c16.667 0 30.667 -5.83301 42 -17.5s17 -25.5 17 -41.5c0 -16.667 -5.66699 -30.667 -17 -42s-25.333 -17 -42 -17c-17.333 0 -31.5 5.66699 -42.5 17s-16.5 25.333 -16.5 42zM252 812.001c0 16 5.66699 29.833 17 41.5
s25.333 17.5 42 17.5s30.667 -5.83301 42 -17.5s17 -25.5 17 -41.5c0 -16.667 -5.66699 -30.667 -17 -42s-25.333 -17 -42 -17s-30.667 5.66699 -42 17s-17 25.333 -17 42z" />
    <glyph glyph-name="multiply" unicode="&#xd7;" horiz-adv-x="530" 
d="M40 136l163 173l-163 174l63 63l161 -173l163 173l61 -62l-163 -174l164 -175l-62 -62l-163 173l-161 -173z" />
    <glyph glyph-name="Oslash" unicode="&#xd8;" horiz-adv-x="790" 
d="M35 350c0 103.333 34 189.667 102 259s154 104 258 104c70 0 134 -17.667 192 -53l49 62l63 -50l-48 -62c70 -68.667 105 -155.334 105 -260.001c0 -103.333 -34.167 -189.666 -102.5 -258.999s-154.5 -104 -258.5 -104c-72.667 0 -137.667 17.667 -195 53l-49 -62
l-63 50l49 62c-68 69.333 -102 156 -102 260zM150 350.001c0 -66.667 19.666 -123.333 58.999 -170l310 394c-37.333 23.333 -78.666 35 -123.999 35c-70.667 0 -129.167 -24.667 -175.5 -74s-69.5 -111 -69.5 -185zM639.999 350.002c0 66.667 -19.999 123.667 -59.999 171
l-312 -395c37.333 -23.333 79.666 -35 126.999 -35c70 0 128.333 24.5 175 73.5s70 110.833 70 185.5z" />
    <glyph glyph-name="Ugrave" unicode="&#xd9;" horiz-adv-x="681" 
d="M341 -13c-86 0 -152.668 24.332 -200.001 72.999s-71 114.334 -71 197.001v443h111v-442c0 -52 13.833 -93 41.5 -123s67.167 -45 118.5 -45c50.667 0 90 15.167 118 45.5s42 71.5 42 123.5v441h110v-442c0 -80.667 -24.167 -146 -72.5 -196s-114.166 -75 -197.499 -75z
M332.999 883.999l70 -143h-93l-92 143h115z" />
    <glyph glyph-name="Uacute" unicode="&#xda;" horiz-adv-x="681" 
d="M341 -13c-86 0 -152.668 24.332 -200.001 72.999s-71 114.334 -71 197.001v443h111v-442c0 -52 13.833 -93 41.5 -123s67.167 -45 118.5 -45c50.667 0 90 15.167 118 45.5s42 71.5 42 123.5v441h110v-442c0 -80.667 -24.167 -146 -72.5 -196s-114.166 -75 -197.499 -75z
M285.999 740.999l69 143h116l-93 -143h-92z" />
    <glyph glyph-name="Ucircumflex" unicode="&#xdb;" horiz-adv-x="681" 
d="M341 -13c-86 0 -152.668 24.332 -200.001 72.999s-71 114.334 -71 197.001v443h111v-442c0 -52 13.833 -93 41.5 -123s67.167 -45 118.5 -45c50.667 0 90 15.167 118 45.5s42 71.5 42 123.5v441h110v-442c0 -80.667 -24.167 -146 -72.5 -196s-114.166 -75 -197.499 -75z
M394.999 743.999l-55 77l-55 -77h-96l95 135h112l94 -135h-95z" />
    <glyph glyph-name="Udieresis" unicode="&#xdc;" horiz-adv-x="681" 
d="M341 -13c-86 0 -152.668 24.332 -200.001 72.999s-71 114.334 -71 197.001v443h111v-442c0 -52 13.833 -93 41.5 -123s67.167 -45 118.5 -45c50.667 0 90 15.167 118 45.5s42 71.5 42 123.5v441h110v-442c0 -80.667 -24.167 -146 -72.5 -196s-114.166 -75 -197.499 -75z
M369.999 811.999c0 16.667 5.5 30.667 16.5 42s25.167 17 42.5 17c16.667 0 30.667 -5.83301 42 -17.5s17 -25.5 17 -41.5c0 -16.667 -5.66699 -30.667 -17 -42s-25.333 -17 -42 -17c-17.333 0 -31.5 5.66699 -42.5 17s-16.5 25.333 -16.5 42zM194.999 811.999
c0 16 5.66699 29.833 17 41.5s25.333 17.5 42 17.5s30.667 -5.83301 42 -17.5s17 -25.5 17 -41.5c0 -16.667 -5.66699 -30.667 -17 -42s-25.333 -17 -42 -17s-30.667 5.66699 -42 17s-17 25.333 -17 42z" />
    <glyph glyph-name="Yacute" unicode="&#xdd;" horiz-adv-x="558" 
d="M224 0v324l-216 376h126l145 -273l148 273h123l-216 -376v-324h-110zM226 741l69 143h116l-93 -143h-92z" />
    <glyph glyph-name="Thorn" unicode="&#xde;" horiz-adv-x="536" 
d="M73 0v700h111v-130h109c66 0 118.333 -18.667 157 -56s58 -88.333 58 -153s-19.833 -116.5 -59.5 -155.5s-91.5 -58.5 -155.5 -58.5h-109v-147h-111zM184 244h96.001c35.333 0 63.166 10.5 83.499 31.5s30.5 49.167 30.5 84.5s-10 63 -30 83s-47.667 30 -83 30h-97v-229z
" />
    <glyph glyph-name="germandbls" unicode="&#xdf;" horiz-adv-x="549" 
d="M257 629c-27.333 0 -48.832 -7.49902 -64.499 -22.499s-23.5 -37.167 -23.5 -66.5v-540h-109v545c0 60.667 18 105.334 54 134.001s83.667 43 143 43c63.333 0 112 -14.167 146 -42.5s51 -66.5 51 -114.5c0 -57.333 -22 -97.666 -66 -120.999
c89.333 -38 134 -106.333 134 -205c0 -76.667 -25.333 -135.667 -76 -177s-117.667 -62 -201 -62v91c46.667 0 86.334 12.333 119.001 37s49 61.667 49 111s-16.333 85.666 -49 108.999s-72.334 35 -119.001 35v90c28 0 51.5 7.16699 70.5 21.5s28.5 34.166 28.5 59.499
c0 21.333 -7.83301 39.166 -23.5 53.499s-36.834 21.5 -63.501 21.5z" />
    <glyph glyph-name="agrave" unicode="&#xe0;" horiz-adv-x="518" 
d="M29 161c0 50.667 18.668 92.001 56.001 124.001s86 48 146 48c55.333 0 97 -12.667 125 -38v49c0 30 -9.83301 53.5 -29.5 70.5s-46.834 25.5 -81.501 25.5c-48 0 -96.667 -13.667 -146 -41l-42 76c62 40 128.333 60 199 60c138.667 0 208 -66 208 -198v-337h-95l-9 39
c-31.333 -34.667 -76 -52 -134 -52c-56 0 -102.833 16.167 -140.5 48.5s-56.5 74.166 -56.5 125.499zM138.001 164.001c0 -26 10.3311 -47.5 30.998 -64.5s47.334 -25.5 80.001 -25.5c32 0 58.333 8.33301 79 25s31 38.334 31 65.001c0 27.333 -10.167 49.166 -30.5 65.499
s-47.166 24.5 -80.499 24.5c-32.667 0 -59.167 -8.5 -79.5 -25.5s-30.5 -38.5 -30.5 -64.5zM251.999 725.001l70 -143h-93l-92 143h115z" />
    <glyph glyph-name="aacute" unicode="&#xe1;" horiz-adv-x="518" 
d="M29 161c0 50.667 18.668 92.001 56.001 124.001s86 48 146 48c55.333 0 97 -12.667 125 -38v49c0 30 -9.83301 53.5 -29.5 70.5s-46.834 25.5 -81.501 25.5c-48 0 -96.667 -13.667 -146 -41l-42 76c62 40 128.333 60 199 60c138.667 0 208 -66 208 -198v-337h-95l-9 39
c-31.333 -34.667 -76 -52 -134 -52c-56 0 -102.833 16.167 -140.5 48.5s-56.5 74.166 -56.5 125.499zM138.001 164.001c0 -26 10.3311 -47.5 30.998 -64.5s47.334 -25.5 80.001 -25.5c32 0 58.333 8.33301 79 25s31 38.334 31 65.001c0 27.333 -10.167 49.166 -30.5 65.499
s-47.166 24.5 -80.499 24.5c-32.667 0 -59.167 -8.5 -79.5 -25.5s-30.5 -38.5 -30.5 -64.5zM200.999 582.001l69 143h116l-93 -143h-92z" />
    <glyph glyph-name="acircumflex" unicode="&#xe2;" horiz-adv-x="518" 
d="M29 161c0 50.667 18.668 92.001 56.001 124.001s86 48 146 48c55.333 0 97 -12.667 125 -38v49c0 30 -9.83301 53.5 -29.5 70.5s-46.834 25.5 -81.501 25.5c-48 0 -96.667 -13.667 -146 -41l-42 76c62 40 128.333 60 199 60c138.667 0 208 -66 208 -198v-337h-95l-9 39
c-31.333 -34.667 -76 -52 -134 -52c-56 0 -102.833 16.167 -140.5 48.5s-56.5 74.166 -56.5 125.499zM138.001 164.001c0 -26 10.3311 -47.5 30.998 -64.5s47.334 -25.5 80.001 -25.5c32 0 58.333 8.33301 79 25s31 38.334 31 65.001c0 27.333 -10.167 49.166 -30.5 65.499
s-47.166 24.5 -80.499 24.5c-32.667 0 -59.167 -8.5 -79.5 -25.5s-30.5 -38.5 -30.5 -64.5zM313.999 589.001l-55 77l-55 -77h-96l95 135h112l94 -135h-95z" />
    <glyph glyph-name="atilde" unicode="&#xe3;" horiz-adv-x="518" 
d="M29 161c0 50.667 18.668 92.001 56.001 124.001s86 48 146 48c55.333 0 97 -12.667 125 -38v49c0 30 -9.83301 53.5 -29.5 70.5s-46.834 25.5 -81.501 25.5c-48 0 -96.667 -13.667 -146 -41l-42 76c62 40 128.333 60 199 60c138.667 0 208 -66 208 -198v-337h-95l-9 39
c-31.333 -34.667 -76 -52 -134 -52c-56 0 -102.833 16.167 -140.5 48.5s-56.5 74.166 -56.5 125.499zM138.001 164.001c0 -26 10.3311 -47.5 30.998 -64.5s47.334 -25.5 80.001 -25.5c32 0 58.333 8.33301 79 25s31 38.334 31 65.001c0 27.333 -10.167 49.166 -30.5 65.499
s-47.166 24.5 -80.499 24.5c-32.667 0 -59.167 -8.5 -79.5 -25.5s-30.5 -38.5 -30.5 -64.5zM321.999 594.001c-18.667 0 -41.667 6.83398 -69 20.501s-46.333 20.5 -57 20.5c-22 0 -33.667 -13.667 -35 -41h-72c0 36 9.5 65 28.5 87s43.5 33 73.5 33
c19.333 0 42.333 -6.83301 69 -20.5s45 -20.5 55 -20.5c10.667 0 19.167 3.66699 25.5 11s9.5 17.333 9.5 30h72c0 -36.667 -9.16699 -65.834 -27.5 -87.501s-42.5 -32.5 -72.5 -32.5z" />
    <glyph glyph-name="adieresis" unicode="&#xe4;" horiz-adv-x="518" 
d="M29 161c0 50.667 18.668 92.001 56.001 124.001s86 48 146 48c55.333 0 97 -12.667 125 -38v49c0 30 -9.83301 53.5 -29.5 70.5s-46.834 25.5 -81.501 25.5c-48 0 -96.667 -13.667 -146 -41l-42 76c62 40 128.333 60 199 60c138.667 0 208 -66 208 -198v-337h-95l-9 39
c-31.333 -34.667 -76 -52 -134 -52c-56 0 -102.833 16.167 -140.5 48.5s-56.5 74.166 -56.5 125.499zM138.001 164.001c0 -26 10.3311 -47.5 30.998 -64.5s47.334 -25.5 80.001 -25.5c32 0 58.333 8.33301 79 25s31 38.334 31 65.001c0 27.333 -10.167 49.166 -30.5 65.499
s-47.166 24.5 -80.499 24.5c-32.667 0 -59.167 -8.5 -79.5 -25.5s-30.5 -38.5 -30.5 -64.5zM294.999 653.001c0 16.667 5.5 30.667 16.5 42s25.167 17 42.5 17c16.667 0 30.667 -5.83301 42 -17.5s17 -25.5 17 -41.5c0 -16.667 -5.66699 -30.667 -17 -42
s-25.333 -17 -42 -17c-17.333 0 -31.5 5.66699 -42.5 17s-16.5 25.333 -16.5 42zM119.999 653.001c0 16 5.66699 29.833 17 41.5s25.333 17.5 42 17.5s30.667 -5.83301 42 -17.5s17 -25.5 17 -41.5c0 -16.667 -5.66699 -30.667 -17 -42s-25.333 -17 -42 -17
s-30.667 5.66699 -42 17s-17 25.333 -17 42z" />
    <glyph glyph-name="aring" unicode="&#xe5;" horiz-adv-x="518" 
d="M29 161c0 50.667 18.668 92.001 56.001 124.001s86 48 146 48c55.333 0 97 -12.667 125 -38v49c0 30 -9.83301 53.5 -29.5 70.5s-46.834 25.5 -81.501 25.5c-48 0 -96.667 -13.667 -146 -41l-42 76c62 40 128.333 60 199 60c138.667 0 208 -66 208 -198v-337h-95l-9 39
c-31.333 -34.667 -76 -52 -134 -52c-56 0 -102.833 16.167 -140.5 48.5s-56.5 74.166 -56.5 125.499zM138.001 164.001c0 -26 10.3311 -47.5 30.998 -64.5s47.334 -25.5 80.001 -25.5c32 0 58.333 8.33301 79 25s31 38.334 31 65.001c0 27.333 -10.167 49.166 -30.5 65.499
s-47.166 24.5 -80.499 24.5c-32.667 0 -59.167 -8.5 -79.5 -25.5s-30.5 -38.5 -30.5 -64.5zM163.999 664.001c0 27.333 9.33496 49.666 28.002 66.999s42 26 70 26c29.333 0 53.166 -8.66699 71.499 -26s27.5 -39.333 27.5 -66c0 -27.333 -9.33301 -49.833 -28 -67.5
s-42.334 -26.5 -71.001 -26.5c-28 0 -51.333 8.83301 -70 26.5s-28 39.834 -28 66.501zM223.001 664.001c0 -12 3.66602 -21.667 10.999 -29s17 -11 29 -11s21.5 3.66699 28.5 11s10.5 17.333 10.5 30c0 12 -3.66699 21.667 -11 29s-17 11 -29 11
c-11.333 0 -20.666 -3.83301 -27.999 -11.5s-11 -17.5 -11 -29.5z" />
    <glyph glyph-name="ae" unicode="&#xe6;" horiz-adv-x="885" 
d="M138 164c0 -26 10.332 -47.5 30.999 -64.5s47.334 -25.5 80.001 -25.5c32 0 58 8.33301 78 25s30 38.334 30 65.001c0 27.333 -9.83301 49.166 -29.5 65.499s-46.167 24.5 -79.5 24.5c-32.667 0 -59.167 -8.5 -79.5 -25.5s-30.5 -38.5 -30.5 -64.5zM467.999 310h278
c-2 42 -16 74.833 -42 98.5s-58.333 35.5 -97 35.5c-37.333 0 -69 -12.167 -95 -36.5s-40.667 -56.833 -44 -97.5zM463.999 235c0.666992 -46 16.0029 -82.9971 46.0029 -110.997s68.333 -42 115 -42c63.333 0 111.666 24.333 144.999 73l71 -54
c-16 -28.667 -42.333 -54.834 -79 -78.501s-82.667 -35.5 -138 -35.5c-96.667 0 -167.667 33 -213 99c-34.667 -66 -96.334 -99 -185.001 -99c-56 0 -102.833 16.167 -140.5 48.5s-56.5 74.166 -56.5 125.499c0 50.667 18.667 92 56 124s86 48 146 48
c55.333 0 97 -12.667 125 -38v49c0 30 -9.83301 53.5 -29.5 70.5s-46.834 25.5 -81.501 25.5c-48 0 -96.667 -13.667 -146 -41l-42 76c62 40 128.333 60 199 60c84.667 0 141.667 -28 171 -84c45.333 56 105 84 179 84c78 0 139.333 -24.833 184 -74.5
s67 -115.834 67 -198.501c0 -12 -0.333008 -21 -1 -27h-392z" />
    <glyph glyph-name="ccedilla" unicode="&#xe7;" horiz-adv-x="501" 
d="M475 471l-32.998 -92c-39.333 38 -85.333 57 -138 57c-48.667 0 -88.334 -16.667 -119.001 -50s-46 -75 -46 -125s16.167 -92 48.5 -126s72.5 -51 120.5 -51s93.333 19.333 136 58l31 -90c-48.667 -43.333 -106.667 -65 -174 -65l-4 -30c52 -9.33301 78 -39 78 -89
c0 -32.667 -11 -57 -33 -73s-50.333 -24 -85 -24c-16.667 0 -33.334 2.33301 -50.001 7l13 61c10.667 -2.66699 21 -4 31 -4c33.333 0 50 12.333 50 37c0 24 -18.333 36 -55 36l-17 -1l12 86c-63.333 12.667 -114.5 43.5 -153.5 92.5s-58.5 107.5 -58.5 175.5
c0 78 26 143.167 78 195.5s116.667 78.5 194 78.5c66.667 0 124.667 -21.333 174 -64z" />
    <glyph glyph-name="egrave" unicode="&#xe8;" horiz-adv-x="562" 
d="M30 259c0 80 24.334 146.002 73.001 198.002s109 78 181 78c78 0 139.333 -24.833 184 -74.5s67 -115.834 67 -198.501c0 -12 -0.333008 -21 -1 -27h-393c0.666992 -46 16.167 -83 46.5 -111s68.833 -42 115.5 -42c62.667 0 110.667 24.333 144 73l72 -54
c-16.667 -28.667 -43.334 -54.834 -80.001 -78.501s-82.667 -35.5 -138 -35.5c-80.667 0 -146 25.333 -196 76s-75 116 -75 196zM145.001 310.002h279c-2 42 -16 74.833 -42 98.5s-58.333 35.5 -97 35.5c-38 0 -70 -12.167 -96 -36.5s-40.667 -56.833 -44 -97.5z
M277.001 725.002l70 -143h-93l-92 143h115z" />
    <glyph glyph-name="eacute" unicode="&#xe9;" horiz-adv-x="562" 
d="M30 259c0 80 24.334 146.002 73.001 198.002s109 78 181 78c78 0 139.333 -24.833 184 -74.5s67 -115.834 67 -198.501c0 -12 -0.333008 -21 -1 -27h-393c0.666992 -46 16.167 -83 46.5 -111s68.833 -42 115.5 -42c62.667 0 110.667 24.333 144 73l72 -54
c-16.667 -28.667 -43.334 -54.834 -80.001 -78.501s-82.667 -35.5 -138 -35.5c-80.667 0 -146 25.333 -196 76s-75 116 -75 196zM145.001 310.002h279c-2 42 -16 74.833 -42 98.5s-58.333 35.5 -97 35.5c-38 0 -70 -12.167 -96 -36.5s-40.667 -56.833 -44 -97.5z
M224.001 582.002l69 143h116l-93 -143h-92z" />
    <glyph glyph-name="ecircumflex" unicode="&#xea;" horiz-adv-x="562" 
d="M30 259c0 80 24.334 146.002 73.001 198.002s109 78 181 78c78 0 139.333 -24.833 184 -74.5s67 -115.834 67 -198.501c0 -12 -0.333008 -21 -1 -27h-393c0.666992 -46 16.167 -83 46.5 -111s68.833 -42 115.5 -42c62.667 0 110.667 24.333 144 73l72 -54
c-16.667 -28.667 -43.334 -54.834 -80.001 -78.501s-82.667 -35.5 -138 -35.5c-80.667 0 -146 25.333 -196 76s-75 116 -75 196zM145.001 310.002h279c-2 42 -16 74.833 -42 98.5s-58.333 35.5 -97 35.5c-38 0 -70 -12.167 -96 -36.5s-40.667 -56.833 -44 -97.5z
M342.001 589.002l-55 77l-55 -77h-96l95 135h112l94 -135h-95z" />
    <glyph glyph-name="edieresis" unicode="&#xeb;" horiz-adv-x="562" 
d="M30 259c0 80 24.334 146.002 73.001 198.002s109 78 181 78c78 0 139.333 -24.833 184 -74.5s67 -115.834 67 -198.501c0 -12 -0.333008 -21 -1 -27h-393c0.666992 -46 16.167 -83 46.5 -111s68.833 -42 115.5 -42c62.667 0 110.667 24.333 144 73l72 -54
c-16.667 -28.667 -43.334 -54.834 -80.001 -78.501s-82.667 -35.5 -138 -35.5c-80.667 0 -146 25.333 -196 76s-75 116 -75 196zM145.001 310.002h279c-2 42 -16 74.833 -42 98.5s-58.333 35.5 -97 35.5c-38 0 -70 -12.167 -96 -36.5s-40.667 -56.833 -44 -97.5z
M319.001 653.002c0 16.667 5.5 30.667 16.5 42s25.167 17 42.5 17c16.667 0 30.667 -5.83301 42 -17.5s17 -25.5 17 -41.5c0 -16.667 -5.66699 -30.667 -17 -42s-25.333 -17 -42 -17c-17.333 0 -31.5 5.66699 -42.5 17s-16.5 25.333 -16.5 42zM144.001 653.002
c0 16 5.66699 29.833 17 41.5s25.333 17.5 42 17.5s30.667 -5.83301 42 -17.5s17 -25.5 17 -41.5c0 -16.667 -5.66699 -30.667 -17 -42s-25.333 -17 -42 -17s-30.667 5.66699 -42 17s-17 25.333 -17 42z" />
    <glyph glyph-name="igrave" unicode="&#xec;" 
d="M61 0v522h109v-522h-109zM105 725l70 -143h-93l-92 143h115z" />
    <glyph glyph-name="iacute" unicode="&#xed;" 
d="M61 0v522h109v-522h-109zM55 582l69 143h116l-93 -143h-92z" />
    <glyph glyph-name="icircumflex" unicode="&#xee;" 
d="M61 0v522h109v-522h-109zM173 589l-55 77l-55 -77h-96l95 135h112l94 -135h-95z" />
    <glyph glyph-name="idieresis" unicode="&#xef;" 
d="M61 0v522h109v-522h-109zM146 653c0 16.667 5.5 30.667 16.5 42s25.167 17 42.5 17c16.667 0 30.667 -5.83301 42 -17.5s17 -25.5 17 -41.5c0 -16.667 -5.66699 -30.667 -17 -42s-25.333 -17 -42 -17c-17.333 0 -31.5 5.66699 -42.5 17s-16.5 25.333 -16.5 42zM-29 653
c0 16 5.66699 29.833 17 41.5s25.333 17.5 42 17.5s30.667 -5.83301 42 -17.5s17 -25.5 17 -41.5c0 -16.667 -5.66699 -30.667 -17 -42s-25.333 -17 -42 -17s-30.667 5.66699 -42 17s-17 25.333 -17 42z" />
    <glyph glyph-name="eth" unicode="&#xf0;" horiz-adv-x="590" 
d="M30 249c0 74 24.167 134.333 72.5 181s109.833 70 184.5 70c30.667 0 56 -5 76 -15c-22 34 -49.667 62.333 -83 85l-160 -60l-11 73l104 40c-28.667 20.667 -61 40.667 -97 60l65 54c44 -18.667 90 -44.334 138 -77.001l128 49l11 -74l-76 -29
c116 -98 174 -209.333 174 -334c0 -81.333 -23 -149.166 -69 -203.499s-111.667 -81.5 -197 -81.5c-76.667 0 -139.167 25.167 -187.5 75.5s-72.5 112.5 -72.5 186.5zM140 249c0 -46.667 13.6689 -86 41.002 -118s63.666 -48 108.999 -48c50 0 88.5 16.5 115.5 49.5
s40.5 74.5 40.5 124.5c0 43.333 -14 79.833 -42 109.5s-64 44.5 -108 44.5c-48.667 0 -86.834 -15.5 -114.501 -46.5s-41.5 -69.5 -41.5 -115.5z" />
    <glyph glyph-name="ntilde" unicode="&#xf1;" horiz-adv-x="554" 
d="M315 535c62.667 0 108.668 -21 138.001 -63s44 -94.667 44 -158v-314h-108v323c0 35.333 -9.83301 63.166 -29.5 83.499s-44.834 30.5 -75.501 30.5c-34 0 -61.5 -11.333 -82.5 -34s-31.5 -52 -31.5 -88v-315h-109v522h107v-68c12.667 22.667 32.167 41.834 58.5 57.501
s55.833 23.5 88.5 23.5zM348.001 594c-18.667 0 -41.667 6.83398 -69 20.501s-46.333 20.5 -57 20.5c-22 0 -33.667 -13.667 -35 -41h-72c0 36 9.5 65 28.5 87s43.5 33 73.5 33c19.333 0 42.333 -6.83301 69 -20.5s45 -20.5 55 -20.5c10.667 0 19.167 3.66699 25.5 11
s9.5 17.333 9.5 30h72c0 -36.667 -9.16699 -65.834 -27.5 -87.501s-42.5 -32.5 -72.5 -32.5z" />
    <glyph glyph-name="ograve" unicode="&#xf2;" horiz-adv-x="611" 
d="M139 260c0 -51.333 15.5 -93.498 46.5 -126.498s70.833 -49.5 119.5 -49.5s88.834 16.667 120.501 50s47.5 75.666 47.5 126.999s-15.833 93.666 -47.5 126.999s-71.834 50 -120.501 50s-88.5 -16.833 -119.5 -50.5s-46.5 -76.167 -46.5 -127.5zM29 260.002
c0 78.667 26.332 144.168 78.999 196.501s118.334 78.5 197.001 78.5c80 0 146.167 -26 198.5 -78s78.5 -117.333 78.5 -196s-26.333 -144 -79 -196s-118.667 -78 -198 -78c-80 0 -146 25.667 -198 77s-78 116.666 -78 195.999zM286.999 725.003l70 -143h-93l-92 143h115z
" />
    <glyph glyph-name="oacute" unicode="&#xf3;" horiz-adv-x="611" 
d="M139 260c0 -51.333 15.5 -93.498 46.5 -126.498s70.833 -49.5 119.5 -49.5s88.834 16.667 120.501 50s47.5 75.666 47.5 126.999s-15.833 93.666 -47.5 126.999s-71.834 50 -120.501 50s-88.5 -16.833 -119.5 -50.5s-46.5 -76.167 -46.5 -127.5zM29 260.002
c0 78.667 26.332 144.168 78.999 196.501s118.334 78.5 197.001 78.5c80 0 146.167 -26 198.5 -78s78.5 -117.333 78.5 -196s-26.333 -144 -79 -196s-118.667 -78 -198 -78c-80 0 -146 25.667 -198 77s-78 116.666 -78 195.999zM243.999 582.003l69 143h116l-93 -143h-92z
" />
    <glyph glyph-name="ocircumflex" unicode="&#xf4;" horiz-adv-x="611" 
d="M139 260c0 -51.333 15.5 -93.498 46.5 -126.498s70.833 -49.5 119.5 -49.5s88.834 16.667 120.501 50s47.5 75.666 47.5 126.999s-15.833 93.666 -47.5 126.999s-71.834 50 -120.501 50s-88.5 -16.833 -119.5 -50.5s-46.5 -76.167 -46.5 -127.5zM29 260.002
c0 78.667 26.332 144.168 78.999 196.501s118.334 78.5 197.001 78.5c80 0 146.167 -26 198.5 -78s78.5 -117.333 78.5 -196s-26.333 -144 -79 -196s-118.667 -78 -198 -78c-80 0 -146 25.667 -198 77s-78 116.666 -78 195.999zM363.999 589.003l-55 77l-55 -77h-96l95 135
h112l94 -135h-95z" />
    <glyph glyph-name="otilde" unicode="&#xf5;" horiz-adv-x="611" 
d="M139 260c0 -51.333 15.5 -93.498 46.5 -126.498s70.833 -49.5 119.5 -49.5s88.834 16.667 120.501 50s47.5 75.666 47.5 126.999s-15.833 93.666 -47.5 126.999s-71.834 50 -120.501 50s-88.5 -16.833 -119.5 -50.5s-46.5 -76.167 -46.5 -127.5zM29 260.002
c0 78.667 26.332 144.168 78.999 196.501s118.334 78.5 197.001 78.5c80 0 146.167 -26 198.5 -78s78.5 -117.333 78.5 -196s-26.333 -144 -79 -196s-118.667 -78 -198 -78c-80 0 -146 25.667 -198 77s-78 116.666 -78 195.999zM374.999 594.003
c-19.333 0 -42.333 6.83398 -69 20.501s-45.667 20.5 -57 20.5c-22 0 -33.667 -13.667 -35 -41h-72c0 36 9.5 65 28.5 87s43.5 33 73.5 33c19.333 0 42.333 -6.83301 69 -20.5s45 -20.5 55 -20.5c10.667 0 19.167 3.66699 25.5 11s9.5 17.333 9.5 30h72
c0 -36.667 -9.16699 -65.834 -27.5 -87.501s-42.5 -32.5 -72.5 -32.5z" />
    <glyph glyph-name="odieresis" unicode="&#xf6;" horiz-adv-x="611" 
d="M139 260c0 -51.333 15.5 -93.498 46.5 -126.498s70.833 -49.5 119.5 -49.5s88.834 16.667 120.501 50s47.5 75.666 47.5 126.999s-15.833 93.666 -47.5 126.999s-71.834 50 -120.501 50s-88.5 -16.833 -119.5 -50.5s-46.5 -76.167 -46.5 -127.5zM29 260.002
c0 78.667 26.332 144.168 78.999 196.501s118.334 78.5 197.001 78.5c80 0 146.167 -26 198.5 -78s78.5 -117.333 78.5 -196s-26.333 -144 -79 -196s-118.667 -78 -198 -78c-80 0 -146 25.667 -198 77s-78 116.666 -78 195.999zM339.999 653.003
c0 16.667 5.5 30.667 16.5 42s25.167 17 42.5 17c16.667 0 30.667 -5.83301 42 -17.5s17 -25.5 17 -41.5c0 -16.667 -5.66699 -30.667 -17 -42s-25.333 -17 -42 -17c-17.333 0 -31.5 5.66699 -42.5 17s-16.5 25.333 -16.5 42zM164.999 653.003c0 16 5.66699 29.833 17 41.5
s25.333 17.5 42 17.5s30.667 -5.83301 42 -17.5s17 -25.5 17 -41.5c0 -16.667 -5.66699 -30.667 -17 -42s-25.333 -17 -42 -17s-30.667 5.66699 -42 17s-17 25.333 -17 42z" />
    <glyph glyph-name="divide" unicode="&#xf7;" horiz-adv-x="551" 
d="M214 493c0 17.333 6 32 18 44s26.333 18 43 18s31 -6 43 -18s18 -26.667 18 -44c0 -16.667 -6 -30.834 -18 -42.501s-26.333 -17.5 -43 -17.5s-31 5.83301 -43 17.5s-18 25.834 -18 42.501zM214 129c0 16.667 6 31 18 43s26.333 18 43 18s31 -6 43 -18s18 -26.333 18 -43
s-6 -31 -18 -43s-26.333 -18 -43 -18s-31 6 -43 18s-18 26.333 -18 43zM39 267v89h473v-89h-473z" />
    <glyph glyph-name="oslash" unicode="&#xf8;" horiz-adv-x="612" 
d="M29 260c0 78.667 26.3311 144.167 78.998 196.5s118.334 78.5 197.001 78.5c52.667 0 100.667 -12.667 144 -38l38 48l56 -44l-37 -47c50.667 -52 76 -116.333 76 -193c0 -78.667 -26.333 -144 -79 -196s-118.667 -78 -198 -78c-51.333 0 -97.666 11.333 -138.999 34
l-39 -49l-55 44l37 46c-53.333 52 -80 118 -80 198zM138.998 260c0 -44.667 12.333 -82 37 -112l209 268c-24 14.667 -50.667 22 -80 22c-48.667 0 -88.5 -16.833 -119.5 -50.5s-46.5 -76.167 -46.5 -127.5zM472.998 261c0 40.667 -11.668 76.334 -35.001 107.001l-208 -266
c21.333 -12 46.333 -18 75 -18c48.667 0 88.834 16.667 120.501 50s47.5 75.666 47.5 126.999z" />
    <glyph glyph-name="ugrave" unicode="&#xf9;" horiz-adv-x="550" 
d="M239 -13c-62.667 0 -108.668 21 -138.001 63s-44 94.667 -44 158v314h108v-323c0 -35.333 9.83301 -63.166 29.5 -83.499s44.834 -30.5 75.501 -30.5c34 0 61.5 11.333 82.5 34s31.5 52 31.5 88v315h109v-522h-107v68c-12.667 -22.667 -32 -41.834 -58 -57.501
s-55.667 -23.5 -89 -23.5zM271.999 725l70 -143h-93l-92 143h115z" />
    <glyph glyph-name="uacute" unicode="&#xfa;" horiz-adv-x="550" 
d="M239 -13c-62.667 0 -108.668 21 -138.001 63s-44 94.667 -44 158v314h108v-323c0 -35.333 9.83301 -63.166 29.5 -83.499s44.834 -30.5 75.501 -30.5c34 0 61.5 11.333 82.5 34s31.5 52 31.5 88v315h109v-522h-107v68c-12.667 -22.667 -32 -41.834 -58 -57.501
s-55.667 -23.5 -89 -23.5zM215.999 582l69 143h116l-93 -143h-92z" />
    <glyph glyph-name="ucircumflex" unicode="&#xfb;" horiz-adv-x="550" 
d="M239 -13c-62.667 0 -108.668 21 -138.001 63s-44 94.667 -44 158v314h108v-323c0 -35.333 9.83301 -63.166 29.5 -83.499s44.834 -30.5 75.501 -30.5c34 0 61.5 11.333 82.5 34s31.5 52 31.5 88v315h109v-522h-107v68c-12.667 -22.667 -32 -41.834 -58 -57.501
s-55.667 -23.5 -89 -23.5zM331.999 589l-55 77l-55 -77h-96l95 135h112l94 -135h-95z" />
    <glyph glyph-name="udieresis" unicode="&#xfc;" horiz-adv-x="550" 
d="M239 -13c-62.667 0 -108.668 21 -138.001 63s-44 94.667 -44 158v314h108v-323c0 -35.333 9.83301 -63.166 29.5 -83.499s44.834 -30.5 75.501 -30.5c34 0 61.5 11.333 82.5 34s31.5 52 31.5 88v315h109v-522h-107v68c-12.667 -22.667 -32 -41.834 -58 -57.501
s-55.667 -23.5 -89 -23.5zM310.999 653c0 16.667 5.5 30.667 16.5 42s25.167 17 42.5 17c16.667 0 30.667 -5.83301 42 -17.5s17 -25.5 17 -41.5c0 -16.667 -5.66699 -30.667 -17 -42s-25.333 -17 -42 -17c-17.333 0 -31.5 5.66699 -42.5 17s-16.5 25.333 -16.5 42z
M135.999 653c0 16 5.66699 29.833 17 41.5s25.333 17.5 42 17.5s30.667 -5.83301 42 -17.5s17 -25.5 17 -41.5c0 -16.667 -5.66699 -30.667 -17 -42s-25.333 -17 -42 -17s-30.667 5.66699 -42 17s-17 25.333 -17 42z" />
    <glyph glyph-name="yacute" unicode="&#xfd;" horiz-adv-x="524" 
d="M244 -179h-105l74 188l-207 513h117l141 -380l139 380h114zM207 582l69 143h116l-93 -143h-92z" />
    <glyph glyph-name="thorn" unicode="&#xfe;" horiz-adv-x="617" 
d="M61 -187l-0.00195312 909.999h109v-265c43.333 51.333 97.333 77 162 77c74.667 0 135.834 -25.667 183.501 -77s71.5 -116.666 71.5 -195.999c0 -81.333 -22.833 -147.5 -68.5 -198.5s-105.5 -76.5 -179.5 -76.5c-42.667 0 -78.667 9.16699 -108 27.5
s-49.666 36.5 -60.999 54.5v-256h-109zM165.998 261.999c0 -54.667 14.8311 -98 44.498 -130s66.834 -48 111.501 -48c45.333 0 82.5 16.5 111.5 49.5s43.5 75.833 43.5 128.5s-14.667 95.167 -44 127.5s-66.666 48.5 -111.999 48.5c-46.667 0 -84.167 -17 -112.5 -51
s-42.5 -75.667 -42.5 -125z" />
    <glyph glyph-name="ydieresis" unicode="&#xff;" horiz-adv-x="524" 
d="M244 -179h-105l74 188l-207 513h117l141 -380l139 380h114zM296 653c0 16.667 5.5 30.667 16.5 42s25.167 17 42.5 17c16.667 0 30.667 -5.83301 42 -17.5s17 -25.5 17 -41.5c0 -16.667 -5.66699 -30.667 -17 -42s-25.333 -17 -42 -17c-17.333 0 -31.5 5.66699 -42.5 17
s-16.5 25.333 -16.5 42zM121 653c0 16 5.66699 29.833 17 41.5s25.333 17.5 42 17.5s30.667 -5.83301 42 -17.5s17 -25.5 17 -41.5c0 -16.667 -5.66699 -30.667 -17 -42s-25.333 -17 -42 -17s-30.667 5.66699 -42 17s-17 25.333 -17 42z" />
    <glyph glyph-name="Amacron" unicode="&#x100;" horiz-adv-x="646" 
d="M451 204h-256l-73 -204h-112l255 700h115l255 -700h-112zM420 297l-97 283l-97 -283h194zM195 758v82h255v-82h-255z" />
    <glyph glyph-name="amacron" unicode="&#x101;" horiz-adv-x="518" 
d="M29 161c0 50.667 18.668 92.001 56.001 124.001s86 48 146 48c55.333 0 97 -12.667 125 -38v49c0 30 -9.83301 53.5 -29.5 70.5s-46.834 25.5 -81.501 25.5c-48 0 -96.667 -13.667 -146 -41l-42 76c62 40 128.333 60 199 60c138.667 0 208 -66 208 -198v-337h-95l-9 39
c-31.333 -34.667 -76 -52 -134 -52c-56 0 -102.833 16.167 -140.5 48.5s-56.5 74.166 -56.5 125.499zM138.001 164.001c0 -26 10.3311 -47.5 30.998 -64.5s47.334 -25.5 80.001 -25.5c32 0 58.333 8.33301 79 25s31 38.334 31 65.001c0 27.333 -10.167 49.166 -30.5 65.499
s-47.166 24.5 -80.499 24.5c-32.667 0 -59.167 -8.5 -79.5 -25.5s-30.5 -38.5 -30.5 -64.5zM134.999 616.001v82h255v-82h-255z" />
    <glyph glyph-name="Abreve" unicode="&#x102;" horiz-adv-x="646" 
d="M451 204h-256l-73 -204h-112l255 700h115l255 -700h-112zM420 297l-97 283l-97 -283h194zM322 744c-44 0 -78.167 12.5 -102.5 37.5s-36.5 57.5 -36.5 97.5h81c0 -44.667 19.333 -67 58 -67c39.333 0 59 22.333 59 67h81c0 -40 -12.333 -72.5 -37 -97.5
s-59 -37.5 -103 -37.5z" />
    <glyph glyph-name="abreve" unicode="&#x103;" horiz-adv-x="518" 
d="M29 161c0 50.667 18.668 92.001 56.001 124.001s86 48 146 48c55.333 0 97 -12.667 125 -38v49c0 30 -9.83301 53.5 -29.5 70.5s-46.834 25.5 -81.501 25.5c-48 0 -96.667 -13.667 -146 -41l-42 76c62 40 128.333 60 199 60c138.667 0 208 -66 208 -198v-337h-95l-9 39
c-31.333 -34.667 -76 -52 -134 -52c-56 0 -102.833 16.167 -140.5 48.5s-56.5 74.166 -56.5 125.499zM138.001 164.001c0 -26 10.3311 -47.5 30.998 -64.5s47.334 -25.5 80.001 -25.5c32 0 58.333 8.33301 79 25s31 38.334 31 65.001c0 27.333 -10.167 49.166 -30.5 65.499
s-47.166 24.5 -80.499 24.5c-32.667 0 -59.167 -8.5 -79.5 -25.5s-30.5 -38.5 -30.5 -64.5zM257.999 584.001c-44 0 -78.167 12.5 -102.5 37.5s-36.5 57.5 -36.5 97.5h81c0 -44.667 19.333 -67 58 -67c39.333 0 59 22.333 59 67h81c0 -40 -12.333 -72.5 -37 -97.5
s-59 -37.5 -103 -37.5z" />
    <glyph glyph-name="Aogonek" unicode="&#x104;" horiz-adv-x="646" 
d="M479 -105c0 24 7.99902 45.333 23.999 64s33.333 32.334 52 41.001h-32l-72 204h-256l-73 -204h-112l255 700h115l255 -700c-7.33301 -2.66699 -15.166 -6.66699 -23.499 -12s-17 -13.833 -26 -25.5s-13.5 -23.834 -13.5 -36.501s4.66699 -22.667 14 -30
s21.333 -11 36 -11v-85c-8 -1.33301 -16.333 -2 -25 -2c-32 0 -59.667 8.16699 -83 24.5s-35 40.5 -35 72.5zM419.999 297l-97 283l-97 -283h194z" />
    <glyph glyph-name="aogonek" unicode="&#x105;" horiz-adv-x="518" 
d="M308 -105c0 24 8 45.334 24 64.001s33.333 32.334 52 41.001h-15l-9 39c-31.333 -34.667 -76 -52 -134 -52c-56 0 -102.833 16.167 -140.5 48.5s-56.5 74.166 -56.5 125.499c0 50.667 18.667 92 56 124s86 48 146 48c55.333 0 97 -12.667 125 -38v49
c0 30 -9.83301 53.5 -29.5 70.5s-46.834 25.5 -81.501 25.5c-48 0 -96.667 -13.667 -146 -41l-42 76c62 40 128.333 60 199 60c138.667 0 208 -66 208 -198v-337c-7.33301 -2.66699 -15.166 -6.66699 -23.499 -12s-17 -13.833 -26 -25.5s-13.5 -23.834 -13.5 -36.501
s4.66699 -22.667 14 -30s21.333 -11 36 -11v-85c-8 -1.33301 -16.333 -2 -25 -2c-32 0 -59.667 8.16699 -83 24.5s-35 40.5 -35 72.5zM138 164.001c0 -26 10.3311 -47.5 30.998 -64.5s47.334 -25.5 80.001 -25.5c32 0 58.333 8.33301 79 25s31 38.334 31 65.001
c0 27.333 -10.167 49.166 -30.5 65.499s-47.166 24.5 -80.499 24.5c-32.667 0 -59.167 -8.5 -79.5 -25.5s-30.5 -38.5 -30.5 -64.5z" />
    <glyph glyph-name="Cacute" unicode="&#x106;" horiz-adv-x="647" 
d="M582 157l32.998 -96.999c-63.333 -48.667 -136.666 -73 -219.999 -73c-105.333 0 -191.666 34.5 -258.999 103.5s-101 155.5 -101 259.5c0 103.333 34.167 189.666 102.5 258.999s153.833 104 256.5 104c81.333 0 152 -22.667 212 -68l-33 -98
c-54 41.333 -112.667 62 -176 62c-72 0 -131.167 -24.833 -177.5 -74.5s-69.5 -111.167 -69.5 -184.5c0 -74 22.833 -135.667 68.5 -185s105.5 -74 179.5 -74c64 0 125.333 22 184 66zM313.998 741.001l69 143h116l-93 -143h-92z" />
    <glyph glyph-name="cacute" unicode="&#x107;" horiz-adv-x="501" 
d="M475 471l-32.999 -92c-39.333 38 -85.333 57 -138 57c-48.667 0 -88.334 -16.667 -119.001 -50s-46 -75 -46 -125s16.167 -92 48.5 -126s72.5 -51 120.5 -51s93.333 19.333 136 58l31 -90c-48.667 -43.333 -106.334 -65 -173.001 -65c-79.333 0 -144.666 26 -195.999 78
s-77 117.333 -77 196c0 78 26 143.167 78 195.5s116.667 78.5 194 78.5c66.667 0 124.667 -21.333 174 -64zM230.001 582l69 143h116l-93 -143h-92z" />
    <glyph glyph-name="Ccircumflex" unicode="&#x108;" horiz-adv-x="647" 
d="M582 157l32.998 -96.999c-63.333 -48.667 -136.666 -73 -219.999 -73c-105.333 0 -191.666 34.5 -258.999 103.5s-101 155.5 -101 259.5c0 103.333 34.167 189.666 102.5 258.999s153.833 104 256.5 104c81.333 0 152 -22.667 212 -68l-33 -98
c-54 41.333 -112.667 62 -176 62c-72 0 -131.167 -24.833 -177.5 -74.5s-69.5 -111.167 -69.5 -184.5c0 -74 22.833 -135.667 68.5 -185s105.5 -74 179.5 -74c64 0 125.333 22 184 66zM447.998 744.001l-55 77l-55 -77h-96l95 135h112l94 -135h-95z" />
    <glyph glyph-name="ccircumflex" unicode="&#x109;" horiz-adv-x="501" 
d="M475 471l-32.999 -92c-39.333 38 -85.333 57 -138 57c-48.667 0 -88.334 -16.667 -119.001 -50s-46 -75 -46 -125s16.167 -92 48.5 -126s72.5 -51 120.5 -51s93.333 19.333 136 58l31 -90c-48.667 -43.333 -106.334 -65 -173.001 -65c-79.333 0 -144.666 26 -195.999 78
s-77 117.333 -77 196c0 78 26 143.167 78 195.5s116.667 78.5 194 78.5c66.667 0 124.667 -21.333 174 -64zM354.001 589l-55 77l-55 -77h-96l95 135h112l94 -135h-95z" />
    <glyph glyph-name="Cdotaccent" unicode="&#x10a;" horiz-adv-x="647" 
d="M582 157l32.998 -96.999c-63.333 -48.667 -136.666 -73 -219.999 -73c-105.333 0 -191.666 34.5 -258.999 103.5s-101 155.5 -101 259.5c0 103.333 34.167 189.666 102.5 258.999s153.833 104 256.5 104c81.333 0 152 -22.667 212 -68l-33 -98
c-54 41.333 -112.667 62 -176 62c-72 0 -131.167 -24.833 -177.5 -74.5s-69.5 -111.167 -69.5 -184.5c0 -74 22.833 -135.667 68.5 -185s105.5 -74 179.5 -74c64 0 125.333 22 184 66zM326.998 809.001c0 19.333 6.5 35.5 19.5 48.5s29.167 19.5 48.5 19.5
s35.5 -6.5 48.5 -19.5s19.5 -29.167 19.5 -48.5s-6.5 -35.5 -19.5 -48.5s-29.167 -19.5 -48.5 -19.5s-35.5 6.5 -48.5 19.5s-19.5 29.167 -19.5 48.5z" />
    <glyph glyph-name="cdotaccent" unicode="&#x10b;" horiz-adv-x="501" 
d="M474 471l-32.999 -92c-39.333 38 -85.333 57 -138 57c-48.667 0 -88.334 -16.667 -119.001 -50s-46 -75 -46 -125s16.167 -92 48.5 -126s72.5 -51 120.5 -51s93.333 19.333 136 58l31 -90c-48.667 -43.333 -106.334 -65 -173.001 -65c-79.333 0 -144.666 26 -195.999 78
s-77 117.333 -77 196c0 78 26 143.167 78 195.5s116.667 78.5 194 78.5c66.667 0 124.667 -21.333 174 -64zM233.001 651c0 19.333 6.5 35.5 19.5 48.5s29.167 19.5 48.5 19.5s35.5 -6.5 48.5 -19.5s19.5 -29.167 19.5 -48.5s-6.5 -35.5 -19.5 -48.5
s-29.167 -19.5 -48.5 -19.5s-35.5 6.5 -48.5 19.5s-19.5 29.167 -19.5 48.5z" />
    <glyph glyph-name="Ccaron" unicode="&#x10c;" horiz-adv-x="647" 
d="M582 157l32.998 -96.999c-63.333 -48.667 -136.666 -73 -219.999 -73c-105.333 0 -191.666 34.5 -258.999 103.5s-101 155.5 -101 259.5c0 103.333 34.167 189.666 102.5 258.999s153.833 104 256.5 104c81.333 0 152 -22.667 212 -68l-33 -98
c-54 41.333 -112.667 62 -176 62c-72 0 -131.167 -24.833 -177.5 -74.5s-69.5 -111.167 -69.5 -184.5c0 -74 22.833 -135.667 68.5 -185s105.5 -74 179.5 -74c64 0 125.333 22 184 66zM391.998 803.001l55 76h95l-94 -135h-112l-95 135h96z" />
    <glyph glyph-name="ccaron" unicode="&#x10d;" horiz-adv-x="501" 
d="M475 471l-32.999 -92c-39.333 38 -85.333 57 -138 57c-48.667 0 -88.334 -16.667 -119.001 -50s-46 -75 -46 -125s16.167 -92 48.5 -126s72.5 -51 120.5 -51s93.333 19.333 136 58l31 -90c-48.667 -43.333 -106.334 -65 -173.001 -65c-79.333 0 -144.666 26 -195.999 78
s-77 117.333 -77 196c0 78 26 143.167 78 195.5s116.667 78.5 194 78.5c66.667 0 124.667 -21.333 174 -64zM295.001 648l55 76h95l-94 -135h-112l-95 135h96z" />
    <glyph glyph-name="Dcaron" unicode="&#x10e;" horiz-adv-x="646" 
d="M73 0v700h165c116.667 0 208 -31 274 -93s99 -147.667 99 -257c0 -112.667 -33 -199.167 -99 -259.5s-157.333 -90.5 -274 -90.5h-165zM184 97l65 0.000976562c76.667 0 137 21.667 181 65s66 106 66 188c0 79.333 -22.167 141.166 -66.5 185.499
s-104.5 66.5 -180.5 66.5h-65v-505zM277 803.001l55 76h95l-94 -135h-112l-95 135h96z" />
    <glyph glyph-name="dcaron" unicode="&#x10f;" horiz-adv-x="621" 
d="M600 549l7 174h112l-44 -174h-75zM555 723l0.000976562 -723h-103v68c-42 -54 -98 -81 -168 -81c-74.667 0 -135.834 25.5 -183.501 76.5s-71.5 116.5 -71.5 196.5c0 81.333 22.833 147.5 68.5 198.5s105.5 76.5 179.5 76.5c43.333 0 79.5 -9.33301 108.5 -28
s49.167 -37 60.5 -55v271h109zM450.001 259c0 55.333 -14.667 99 -44 131s-66.666 48 -111.999 48s-82.5 -16.667 -111.5 -50s-43.5 -76.333 -43.5 -129s14.667 -95.167 44 -127.5s66.666 -48.5 111.999 -48.5c46.667 0 84.167 17 112.5 51s42.5 75.667 42.5 125z" />
    <glyph glyph-name="Dcroat" unicode="&#x110;" horiz-adv-x="646" 
d="M23 304v98h57v298h165c116.667 0 208 -31 274 -93s99 -147.667 99 -257c0 -112.667 -33 -199.167 -99 -259.5s-157.333 -90.5 -274 -90.5h-165v304h-57zM191 97l65 0.000976562c76.667 0 137 21.667 181 65s66 106 66 188c0 79.333 -22.167 141.166 -66.5 185.499
s-104.5 66.5 -180.5 66.5h-65v-200h127v-98h-127v-207z" />
    <glyph glyph-name="dcroat" unicode="&#x111;" horiz-adv-x="616" 
d="M555 577l0.000976562 -577h-103v68c-42 -54 -98 -81 -168 -81c-74.667 0 -135.834 25.5 -183.501 76.5s-71.5 116.5 -71.5 196.5c0 81.333 22.833 147.5 68.5 198.5s105.5 76.5 179.5 76.5c43.333 0 79.5 -9.33301 108.5 -28s49.167 -37 60.5 -55v125h-128v74h128v72h109
v-72h62v-74h-62zM450.001 259c0 55.333 -14.667 99 -44 131s-66.666 48 -111.999 48s-82.5 -16.667 -111.5 -50s-43.5 -76.333 -43.5 -129s14.667 -95.167 44 -127.5s66.666 -48.5 111.999 -48.5c46.667 0 84.167 17 112.5 51s42.5 75.667 42.5 125z" />
    <glyph glyph-name="Emacron" unicode="&#x112;" horiz-adv-x="478" 
d="M73 0v700h346v-100h-235v-195h204v-99h-204v-206h245v-100h-356zM126 758v82h255v-82h-255z" />
    <glyph glyph-name="emacron" unicode="&#x113;" horiz-adv-x="562" 
d="M30 259c0 80 24.334 146.002 73.001 198.002s109 78 181 78c78 0 139.333 -24.833 184 -74.5s67 -115.834 67 -198.501c0 -12 -0.333008 -21 -1 -27h-393c0.666992 -46 16.167 -83 46.5 -111s68.833 -42 115.5 -42c62.667 0 110.667 24.333 144 73l72 -54
c-16.667 -28.667 -43.334 -54.834 -80.001 -78.501s-82.667 -35.5 -138 -35.5c-80.667 0 -146 25.333 -196 76s-75 116 -75 196zM145.001 310.002h279c-2 42 -16 74.833 -42 98.5s-58.333 35.5 -97 35.5c-38 0 -70 -12.167 -96 -36.5s-40.667 -56.833 -44 -97.5z
M162.001 616.002v82h255v-82h-255z" />
    <glyph glyph-name="Ebreve" unicode="&#x114;" horiz-adv-x="478" 
d="M73 0v700h346v-100h-235v-195h204v-99h-204v-206h245v-100h-356zM249 744c-44 0 -78.167 12.5 -102.5 37.5s-36.5 57.5 -36.5 97.5h81c0 -44.667 19.333 -67 58 -67c39.333 0 59 22.333 59 67h81c0 -40 -12.333 -72.5 -37 -97.5s-59 -37.5 -103 -37.5z" />
    <glyph glyph-name="ebreve" unicode="&#x115;" horiz-adv-x="562" 
d="M30 259c0 80 24.334 146.002 73.001 198.002s109 78 181 78c78 0 139.333 -24.833 184 -74.5s67 -115.834 67 -198.501c0 -12 -0.333008 -21 -1 -27h-393c0.666992 -46 16.167 -83 46.5 -111s68.833 -42 115.5 -42c62.667 0 110.667 24.333 144 73l72 -54
c-16.667 -28.667 -43.334 -54.834 -80.001 -78.501s-82.667 -35.5 -138 -35.5c-80.667 0 -146 25.333 -196 76s-75 116 -75 196zM145.001 310.002h279c-2 42 -16 74.833 -42 98.5s-58.333 35.5 -97 35.5c-38 0 -70 -12.167 -96 -36.5s-40.667 -56.833 -44 -97.5z
M284.001 584.002c-44 0 -78.167 12.5 -102.5 37.5s-36.5 57.5 -36.5 97.5h81c0 -44.667 19.333 -67 58 -67c39.333 0 59 22.333 59 67h81c0 -40 -12.333 -72.5 -37 -97.5s-59 -37.5 -103 -37.5z" />
    <glyph glyph-name="Edotaccent" unicode="&#x116;" horiz-adv-x="478" 
d="M73 0v700h346v-100h-235v-195h204v-99h-204v-206h245v-100h-356zM192 809c0 19.333 6.66699 35.5 20 48.5s29.333 19.5 48 19.5s34.667 -6.5 48 -19.5s20 -29.167 20 -48.5s-6.66699 -35.5 -20 -48.5s-29.333 -19.5 -48 -19.5s-34.667 6.5 -48 19.5s-20 29.167 -20 48.5z
" />
    <glyph glyph-name="edotaccent" unicode="&#x117;" horiz-adv-x="562" 
d="M30 259c0 80 24.334 146.002 73.001 198.002s109 78 181 78c78 0 139.333 -24.833 184 -74.5s67 -115.834 67 -198.501c0 -12 -0.333008 -21 -1 -27h-393c0.666992 -46 16.167 -83 46.5 -111s68.833 -42 115.5 -42c62.667 0 110.667 24.333 144 73l72 -54
c-16.667 -28.667 -43.334 -54.834 -80.001 -78.501s-82.667 -35.5 -138 -35.5c-80.667 0 -146 25.333 -196 76s-75 116 -75 196zM145.001 310.002h279c-2 42 -16 74.833 -42 98.5s-58.333 35.5 -97 35.5c-38 0 -70 -12.167 -96 -36.5s-40.667 -56.833 -44 -97.5z
M220.001 651.002c0 19.333 6.66699 35.5 20 48.5s29.333 19.5 48 19.5s34.667 -6.5 48 -19.5s20 -29.167 20 -48.5s-6.66699 -35.5 -20 -48.5s-29.333 -19.5 -48 -19.5s-34.667 6.5 -48 19.5s-20 29.167 -20 48.5z" />
    <glyph glyph-name="Eogonek" unicode="&#x118;" horiz-adv-x="478" 
d="M73 0l-0.000976562 700h346v-100h-235v-195h204v-99h-204v-206h245v-100c-7.33301 -2.66699 -15.166 -6.66699 -23.499 -12s-17 -13.833 -26 -25.5s-13.5 -23.834 -13.5 -36.501s4.66699 -22.667 14 -30s21.333 -11 36 -11v-85c-8 -1.33301 -16.333 -2 -25 -2
c-32 0 -59.667 8.16699 -83 24.5s-35 40.5 -35 72.5c0 24 8 45.333 24 64s33.333 32.334 52 41.001h-276z" />
    <glyph glyph-name="eogonek" unicode="&#x119;" horiz-adv-x="562" 
d="M274 -105c0 34 16 65.002 48 93.002c-4.66699 -0.666992 -11.667 -1 -21 -1c-80.667 0 -146 25.333 -196 76s-75 116 -75 196s24.333 146 73 198s109 78 181 78c78 0 139.333 -24.833 184 -74.5s67 -115.834 67 -198.501c0 -12 -0.333008 -21 -1 -27h-393
c0.666992 -46 16.167 -83 46.5 -111s68.833 -42 115.5 -42c62.667 0 110.667 24.333 144 73l72 -54c-18.667 -31.333 -48.667 -59.333 -90 -84s-62 -53.667 -62 -87c0 -12.667 4.66699 -23.334 14 -32.001s21.333 -13 36 -13v-85c-8 -1.33301 -16.333 -2 -25 -2
c-32 0 -59.667 8.16699 -83 24.5s-35 40.5 -35 72.5zM145 310.002h279c-2 42 -16 74.833 -42 98.5s-58.333 35.5 -97 35.5c-38 0 -70 -12.167 -96 -36.5s-40.667 -56.833 -44 -97.5z" />
    <glyph glyph-name="Ecaron" unicode="&#x11a;" horiz-adv-x="478" 
d="M73 0v700h346v-100h-235v-195h204v-99h-204v-206h245v-100h-356zM260 803l55 76h95l-94 -135h-112l-95 135h96z" />
    <glyph glyph-name="ecaron" unicode="&#x11b;" horiz-adv-x="562" 
d="M30 259c0 80 24.334 146.002 73.001 198.002s109 78 181 78c78 0 139.333 -24.833 184 -74.5s67 -115.834 67 -198.501c0 -12 -0.333008 -21 -1 -27h-393c0.666992 -46 16.167 -83 46.5 -111s68.833 -42 115.5 -42c62.667 0 110.667 24.333 144 73l72 -54
c-16.667 -28.667 -43.334 -54.834 -80.001 -78.501s-82.667 -35.5 -138 -35.5c-80.667 0 -146 25.333 -196 76s-75 116 -75 196zM145.001 310.002h279c-2 42 -16 74.833 -42 98.5s-58.333 35.5 -97 35.5c-38 0 -70 -12.167 -96 -36.5s-40.667 -56.833 -44 -97.5z
M286.001 648.002l55 76h95l-94 -135h-112l-95 135h96z" />
    <glyph glyph-name="Gcircumflex" unicode="&#x11c;" horiz-adv-x="742" 
d="M393 713c112.667 0 201.666 -36.3369 266.999 -109.004l-70 -73c-52.667 52.667 -117 79 -193 79c-73.333 0 -132.666 -24.5 -177.999 -73.5s-68 -110.833 -68 -185.5c0 -77.333 23.167 -140.166 69.5 -188.499s105.166 -72.5 176.499 -72.5
c46.667 0 85.834 6.83301 117.501 20.5s54.5 27.834 68.5 42.501v118h-144v95h249v-267c-80 -74.667 -179 -112 -297 -112c-101.333 0 -186 33.833 -254 101.5s-102 154.834 -102 261.501c0 102.667 33.833 188.834 101.5 258.501s153.167 104.5 256.5 104.5z
M451.999 743.996l-55 77l-55 -77h-96l95 135h112l94 -135h-95z" />
    <glyph glyph-name="gcircumflex" unicode="&#x11d;" horiz-adv-x="611" 
d="M94 -142l34.998 83.999c46 -26.667 97 -40 153 -40c48.667 0 88.167 10.333 118.5 31s45.5 54 45.5 100v35c-6.66699 -10 -15.167 -19.833 -25.5 -29.5s-28.666 -20.667 -54.999 -33s-55.166 -18.5 -86.499 -18.5c-74.667 0 -135 25.333 -181 76s-69 116.334 -69 197.001
s23.5 146.667 70.5 198s107.5 77 181.5 77c42.667 0 78.5 -9.16699 107.5 -27.5s49.833 -36.833 62.5 -55.5v70h103v-453c0 -92 -24.5 -158.5 -73.5 -199.5s-114.833 -61.5 -197.5 -61.5c-69.333 0 -132.333 16.667 -189 50zM448.998 260.999
c0 52.667 -14.667 95.334 -44 128.001s-66.666 49 -111.999 49s-82.5 -16.5 -111.5 -49.5s-43.5 -75.5 -43.5 -127.5c0 -52.667 14.667 -95.334 44 -128.001s66.666 -49 111.999 -49c46.667 0 84.167 16.5 112.5 49.5s42.5 75.5 42.5 127.5zM359.998 588.999l-55 77l-55 -77
h-96l95 135h112l94 -135h-95z" />
    <glyph glyph-name="Gbreve" unicode="&#x11e;" horiz-adv-x="742" 
d="M393 713c112.667 0 201.666 -36.3369 266.999 -109.004l-70 -73c-52.667 52.667 -117 79 -193 79c-73.333 0 -132.666 -24.5 -177.999 -73.5s-68 -110.833 -68 -185.5c0 -77.333 23.167 -140.166 69.5 -188.499s105.166 -72.5 176.499 -72.5
c46.667 0 85.834 6.83301 117.501 20.5s54.5 27.834 68.5 42.501v118h-144v95h249v-267c-80 -74.667 -179 -112 -297 -112c-101.333 0 -186 33.833 -254 101.5s-102 154.834 -102 261.501c0 102.667 33.833 188.834 101.5 258.501s153.167 104.5 256.5 104.5z
M391.999 743.996c-44 0 -78.167 12.5 -102.5 37.5s-36.5 57.5 -36.5 97.5h81c0 -44.667 19.333 -67 58 -67c39.333 0 59 22.333 59 67h81c0 -40 -12.333 -72.5 -37 -97.5s-59 -37.5 -103 -37.5z" />
    <glyph glyph-name="gbreve" unicode="&#x11f;" horiz-adv-x="611" 
d="M94 -142l34.998 83.999c46 -26.667 97 -40 153 -40c48.667 0 88.167 10.333 118.5 31s45.5 54 45.5 100v35c-6.66699 -10 -15.167 -19.833 -25.5 -29.5s-28.666 -20.667 -54.999 -33s-55.166 -18.5 -86.499 -18.5c-74.667 0 -135 25.333 -181 76s-69 116.334 -69 197.001
s23.5 146.667 70.5 198s107.5 77 181.5 77c42.667 0 78.5 -9.16699 107.5 -27.5s49.833 -36.833 62.5 -55.5v70h103v-453c0 -92 -24.5 -158.5 -73.5 -199.5s-114.833 -61.5 -197.5 -61.5c-69.333 0 -132.333 16.667 -189 50zM448.998 260.999
c0 52.667 -14.667 95.334 -44 128.001s-66.666 49 -111.999 49s-82.5 -16.5 -111.5 -49.5s-43.5 -75.5 -43.5 -127.5c0 -52.667 14.667 -95.334 44 -128.001s66.666 -49 111.999 -49c46.667 0 84.167 16.5 112.5 49.5s42.5 75.5 42.5 127.5zM303.998 583.999
c-44 0 -78.167 12.5 -102.5 37.5s-36.5 57.5 -36.5 97.5h81c0 -44.667 19.333 -67 58 -67c39.333 0 59 22.333 59 67h81c0 -40 -12.333 -72.5 -37 -97.5s-59 -37.5 -103 -37.5z" />
    <glyph glyph-name="Gdotaccent" unicode="&#x120;" horiz-adv-x="742" 
d="M393 713c112.667 0 201.666 -36.3369 266.999 -109.004l-70 -73c-52.667 52.667 -117 79 -193 79c-73.333 0 -132.666 -24.5 -177.999 -73.5s-68 -110.833 -68 -185.5c0 -77.333 23.167 -140.166 69.5 -188.499s105.166 -72.5 176.499 -72.5
c46.667 0 85.834 6.83301 117.501 20.5s54.5 27.834 68.5 42.501v118h-144v95h249v-267c-80 -74.667 -179 -112 -297 -112c-101.333 0 -186 33.833 -254 101.5s-102 154.834 -102 261.501c0 102.667 33.833 188.834 101.5 258.501s153.167 104.5 256.5 104.5z
M329.999 808.996c0 19.333 6.66699 35.5 20 48.5s29.333 19.5 48 19.5s34.667 -6.5 48 -19.5s20 -29.167 20 -48.5s-6.66699 -35.5 -20 -48.5s-29.333 -19.5 -48 -19.5s-34.667 6.5 -48 19.5s-20 29.167 -20 48.5z" />
    <glyph glyph-name="gdotaccent" unicode="&#x121;" horiz-adv-x="611" 
d="M94 -142l34.998 83.999c46 -26.667 97 -40 153 -40c48.667 0 88.167 10.333 118.5 31s45.5 54 45.5 100v35c-6.66699 -10 -15.167 -19.833 -25.5 -29.5s-28.666 -20.667 -54.999 -33s-55.166 -18.5 -86.499 -18.5c-74.667 0 -135 25.333 -181 76s-69 116.334 -69 197.001
s23.5 146.667 70.5 198s107.5 77 181.5 77c42.667 0 78.5 -9.16699 107.5 -27.5s49.833 -36.833 62.5 -55.5v70h103v-453c0 -92 -24.5 -158.5 -73.5 -199.5s-114.833 -61.5 -197.5 -61.5c-69.333 0 -132.333 16.667 -189 50zM448.998 260.999
c0 52.667 -14.667 95.334 -44 128.001s-66.666 49 -111.999 49s-82.5 -16.5 -111.5 -49.5s-43.5 -75.5 -43.5 -127.5c0 -52.667 14.667 -95.334 44 -128.001s66.666 -49 111.999 -49c46.667 0 84.167 16.5 112.5 49.5s42.5 75.5 42.5 127.5zM228.998 650.999
c0 19.333 6.5 35.5 19.5 48.5s29.167 19.5 48.5 19.5s35.5 -6.5 48.5 -19.5s19.5 -29.167 19.5 -48.5s-6.5 -35.5 -19.5 -48.5s-29.167 -19.5 -48.5 -19.5s-35.5 6.5 -48.5 19.5s-19.5 29.167 -19.5 48.5z" />
    <glyph glyph-name="Gcommaaccent" unicode="&#x122;" horiz-adv-x="742" 
d="M393 713c112.667 0 201.666 -36.3369 266.999 -109.004l-70 -73c-52.667 52.667 -117 79 -193 79c-73.333 0 -132.666 -24.5 -177.999 -73.5s-68 -110.833 -68 -185.5c0 -77.333 23.167 -140.166 69.5 -188.499s105.166 -72.5 176.499 -72.5
c46.667 0 85.834 6.83301 117.501 20.5s54.5 27.834 68.5 42.501v118h-144v95h249v-267c-80 -74.667 -179 -112 -297 -112c-101.333 0 -186 33.833 -254 101.5s-102 154.834 -102 261.501c0 102.667 33.833 188.834 101.5 258.501s153.167 104.5 256.5 104.5z
M337.999 -94.0039c0 17.333 6.16895 32.167 18.502 44.5s27.166 18.5 44.499 18.5c19.333 0 35.333 -6.66699 48 -20s19 -30.666 19 -51.999c0 -64.667 -27.667 -118.334 -83 -161.001l-41 42c25.333 20.667 40.666 42.667 45.999 66c-16 2.66699 -28.667 10 -38 22
s-14 25.333 -14 40z" />
    <glyph glyph-name="gcommaaccent" unicode="&#x123;" horiz-adv-x="611" 
d="M94 -142l34.998 83.999c46 -26.667 97 -40 153 -40c48.667 0 88.167 10.333 118.5 31s45.5 54 45.5 100v35c-6.66699 -10 -15.167 -19.833 -25.5 -29.5s-28.666 -20.667 -54.999 -33s-55.166 -18.5 -86.499 -18.5c-74.667 0 -135 25.333 -181 76s-69 116.334 -69 197.001
s23.5 146.667 70.5 198s107.5 77 181.5 77c42.667 0 78.5 -9.16699 107.5 -27.5s49.833 -36.833 62.5 -55.5v70h103v-453c0 -92 -24.5 -158.5 -73.5 -199.5s-114.833 -61.5 -197.5 -61.5c-69.333 0 -132.333 16.667 -189 50zM448.998 260.999
c0 52.667 -14.667 95.334 -44 128.001s-66.666 49 -111.999 49s-82.5 -16.5 -111.5 -49.5s-43.5 -75.5 -43.5 -127.5c0 -52.667 14.667 -95.334 44 -128.001s66.666 -49 111.999 -49c46.667 0 84.167 16.5 112.5 49.5s42.5 75.5 42.5 127.5zM363.998 637.999
c0 -17.333 -6.16895 -32.167 -18.502 -44.5s-27.166 -18.5 -44.499 -18.5c-19.333 0 -35.333 6.66699 -48 20s-19 30.666 -19 51.999c0 64.667 27.667 118.334 83 161.001l41 -42c-25.333 -20.667 -40.666 -42.667 -45.999 -66c16 -2.66699 28.667 -10 38 -22
s14 -25.333 14 -40z" />
    <glyph glyph-name="Hcircumflex" unicode="&#x124;" horiz-adv-x="700" 
d="M73 0v700h111v-295h332v295h111v-700h-111v304h-332v-304h-111zM409 744l-55 77l-55 -77h-96l95 135h112l94 -135h-95z" />
    <glyph glyph-name="hcircumflex" unicode="&#x125;" horiz-adv-x="555" 
d="M316 535c62.667 0 108.668 -21 138.001 -63s44 -94.667 44 -158v-314h-108v323c0 35.333 -9.83301 63.166 -29.5 83.499s-44.834 30.5 -75.501 30.5c-34 0 -61.667 -11.333 -83 -34s-32 -52 -32 -88v-315h-109v723h109v-269c12.667 22.667 32 41.834 58 57.501
s55.333 23.5 88 23.5zM340.001 749l-55 77l-55 -77h-96l95 135h112l94 -135h-95z" />
    <glyph glyph-name="Hbar" unicode="&#x126;" horiz-adv-x="700" 
d="M73 0v513h-59v80h59v107h111v-107h332v107h111v-107h59v-80h-59v-513h-111v304h-332v-304h-111zM184 405h332v108h-332v-108z" />
    <glyph glyph-name="hbar" unicode="&#x127;" horiz-adv-x="555" 
d="M316 535c62.667 0 108.668 -21 138.001 -63s44 -94.667 44 -158v-314h-108v323c0 35.333 -9.83301 63.166 -29.5 83.499s-44.834 30.5 -75.501 30.5c-34 0 -61.667 -11.333 -83 -34s-32 -52 -32 -88v-315h-109v581h-57v74h57v68h109v-68h129v-74h-129v-127
c12.667 22.667 32 41.834 58 57.501s55.333 23.5 88 23.5z" />
    <glyph glyph-name="Itilde" unicode="&#x128;" horiz-adv-x="258" 
d="M73 0v700h111v-700h-111zM196 751c-18.667 0 -41.667 6.83398 -69 20.501s-46.333 20.5 -57 20.5c-22 0 -33.667 -13.667 -35 -41h-72c0 36 9.5 65 28.5 87s43.5 33 73.5 33c19.333 0 42.333 -6.83301 69 -20.5s45 -20.5 55 -20.5c10.667 0 19.167 3.66699 25.5 11
s9.5 17.333 9.5 30h72c0 -36.667 -9.16699 -65.834 -27.5 -87.501s-42.5 -32.5 -72.5 -32.5z" />
    <glyph glyph-name="itilde" unicode="&#x129;" 
d="M61 0v522h109v-522h-109zM182 594c-19.333 0 -42.5 6.83398 -69.5 20.501s-45.833 20.5 -56.5 20.5c-22 0 -33.667 -13.667 -35 -41h-72c0 36 9.5 65 28.5 87s43.5 33 73.5 33c19.333 0 42.333 -6.83301 69 -20.5s45 -20.5 55 -20.5c10.667 0 19.167 3.66699 25.5 11
s9.5 17.333 9.5 30h72c0 -36.667 -9.16699 -65.834 -27.5 -87.501s-42.5 -32.5 -72.5 -32.5z" />
    <glyph glyph-name="Imacron" unicode="&#x12a;" horiz-adv-x="258" 
d="M73 0v700h111v-700h-111zM2 758v82h255v-82h-255z" />
    <glyph glyph-name="imacron" unicode="&#x12b;" 
d="M61 0v522h109v-522h-109zM-12 616v82h255v-82h-255z" />
    <glyph glyph-name="Ibreve" unicode="&#x12c;" horiz-adv-x="258" 
d="M73 0v700h111v-700h-111zM129 744c-44 0 -78.167 12.5 -102.5 37.5s-36.5 57.5 -36.5 97.5h81c0 -44.667 19.333 -67 58 -67c39.333 0 59 22.333 59 67h81c0 -40 -12.333 -72.5 -37 -97.5s-59 -37.5 -103 -37.5z" />
    <glyph glyph-name="ibreve" unicode="&#x12d;" 
d="M61 0v522h109v-522h-109zM115 584c-44 0 -78.167 12.5 -102.5 37.5s-36.5 57.5 -36.5 97.5h81c0 -44.667 19.333 -67 58 -67c39.333 0 59 22.333 59 67h81c0 -40 -12.333 -72.5 -37 -97.5s-59 -37.5 -103 -37.5z" />
    <glyph glyph-name="Iogonek" unicode="&#x12e;" horiz-adv-x="258" 
d="M73 0l-0.000976562 700h111v-700c-7.33301 -2.66699 -15.166 -6.66699 -23.499 -12s-17 -13.833 -26 -25.5s-13.5 -23.834 -13.5 -36.501s4.66699 -22.667 14 -30s21.333 -11 36 -11v-85c-8 -1.33301 -16.333 -2 -25 -2c-32 0 -59.667 8.16699 -83 24.5
s-35 40.5 -35 72.5c0 24 8 45.333 24 64s33.333 32.334 52 41.001h-31z" />
    <glyph glyph-name="iogonek" unicode="&#x12f;" 
d="M61 0l-0.000976562 522h109v-522c-7.33301 -2.66699 -15.166 -6.66699 -23.499 -12s-17 -13.833 -26 -25.5s-13.5 -23.834 -13.5 -36.501s4.66699 -22.667 14 -30s21.333 -11 36 -11v-85c-8 -1.33301 -16.333 -2 -25 -2c-32 0 -59.667 8.16699 -83 24.5
s-35 40.5 -35 72.5c0 24 8 45.333 24 64s33.333 32.334 52 41.001h-29zM46.999 651c0 19.333 6.5 35.5 19.5 48.5s29.167 19.5 48.5 19.5s35.5 -6.5 48.5 -19.5s19.5 -29.167 19.5 -48.5s-6.5 -35.5 -19.5 -48.5s-29.167 -19.5 -48.5 -19.5s-35.5 6.5 -48.5 19.5
s-19.5 29.167 -19.5 48.5z" />
    <glyph glyph-name="Idotaccent" unicode="&#x130;" horiz-adv-x="258" 
d="M73 0v700h111v-700h-111zM63 809c0 19.333 6.5 35.5 19.5 48.5s29.167 19.5 48.5 19.5s35.5 -6.5 48.5 -19.5s19.5 -29.167 19.5 -48.5s-6.5 -35.5 -19.5 -48.5s-29.167 -19.5 -48.5 -19.5s-35.5 6.5 -48.5 19.5s-19.5 29.167 -19.5 48.5z" />
    <glyph glyph-name="dotlessi" unicode="&#x131;" 
d="M61 0v522h109v-522h-109z" />
    <glyph glyph-name="IJ" unicode="&#x132;" horiz-adv-x="618" 
d="M73 0v700h111v-700h-111zM279 4l13.001 99c22 -5.33301 42.667 -8 62 -8c52.667 0 79 29.667 79 89v516h111v-534c0 -57.333 -15.833 -100.333 -47.5 -129s-74.834 -43 -129.501 -43c-34.667 0 -64 3.33301 -88 10z" />
    <glyph glyph-name="ij" unicode="&#x133;" horiz-adv-x="463" 
d="M61 0v522h109v-522h-109zM47 651c0 19.333 6.5 35.5 19.5 48.5s29.167 19.5 48.5 19.5s35.5 -6.5 48.5 -19.5s19.5 -29.167 19.5 -48.5s-6.5 -35.5 -19.5 -48.5s-29.167 -19.5 -48.5 -19.5s-35.5 6.5 -48.5 19.5s-19.5 29.167 -19.5 48.5zM292 -8v530h109v-534
c0 -119.333 -60.667 -179 -182 -179l-30 2v92c9.33301 -0.666992 17 -1 23 -1c53.333 0 80 30 80 90zM278 651c0 19.333 6.66699 35.5 20 48.5s29.333 19.5 48 19.5s34.667 -6.5 48 -19.5s20 -29.167 20 -48.5s-6.66699 -35.5 -20 -48.5s-29.333 -19.5 -48 -19.5
s-34.667 6.5 -48 19.5s-20 29.167 -20 48.5z" />
    <glyph glyph-name="Jcircumflex" unicode="&#x134;" horiz-adv-x="360" 
d="M21 4l13.001 99c22 -5.33301 42.667 -8 62 -8c52.667 0 79 29.667 79 89v516h111v-534c0 -57.333 -15.833 -100.333 -47.5 -129s-74.834 -43 -129.501 -43c-34.667 0 -64 3.33301 -88 10zM278.001 744l-55 77l-55 -77h-96l95 135h112l94 -135h-95z" />
    <glyph glyph-name="jcircumflex" unicode="&#x135;" 
d="M61 -8v530h109v-534c0 -119.333 -60.667 -179 -182 -179l-30 2v92c9.33301 -0.666992 17 -1 23 -1c53.333 0 80 30 80 90zM171 589l-55 77l-55 -77h-96l95 135h112l94 -135h-95z" />
    <glyph glyph-name="Kcommaaccent" unicode="&#x136;" horiz-adv-x="590" 
d="M73 0v700h111v-323l258 323h125l-273 -338l283 -362h-128l-265 346v-346h-111zM242 -94c0 17.333 6.16895 32.167 18.502 44.5s27.166 18.5 44.499 18.5c19.333 0 35.333 -6.66699 48 -20s19 -30.666 19 -51.999c0 -64.667 -27.667 -118.334 -83 -161.001l-41 42
c25.333 20.667 40.666 42.667 45.999 66c-16 2.66699 -28.667 10 -38 22s-14 25.333 -14 40z" />
    <glyph glyph-name="kcommaaccent" unicode="&#x137;" horiz-adv-x="505" 
d="M61 0v723h109v-424l193 223h124l-209 -236l223 -286h-129l-202 274v-274h-109zM198 -94c0 17.333 6.16895 32.167 18.502 44.5s27.166 18.5 44.499 18.5c19.333 0 35.333 -6.66699 48 -20s19 -30.666 19 -51.999c0 -64.667 -27.667 -118.334 -83 -161.001l-41 42
c25.333 20.667 40.666 42.667 45.999 66c-16 2.66699 -28.667 10 -38 22s-14 25.333 -14 40z" />
    <glyph glyph-name="kgreenlandic" unicode="&#x138;" horiz-adv-x="505" 
d="M61 0v522h109v-229l193 229h124l-209 -242l223 -280h-129l-202 268v-268h-109z" />
    <glyph glyph-name="Lacute" unicode="&#x139;" horiz-adv-x="452" 
d="M73 0v700h111v-600h245v-100h-356zM82 741l69 143h116l-93 -143h-92z" />
    <glyph glyph-name="lacute" unicode="&#x13a;" 
d="M61 0v723h109v-723h-109zM66 750l69 143h116l-93 -143h-92z" />
    <glyph glyph-name="Lcommaaccent" unicode="&#x13b;" horiz-adv-x="452" 
d="M73 0v700h111v-600h245v-100h-356zM199 -94c0 17.333 6.16895 32.167 18.502 44.5s27.166 18.5 44.499 18.5c19.333 0 35.333 -6.66699 48 -20s19 -30.666 19 -51.999c0 -64.667 -27.667 -118.334 -83 -161.001l-41 42c25.333 20.667 40.666 42.667 45.999 66
c-16 2.66699 -28.667 10 -38 22s-14 25.333 -14 40z" />
    <glyph glyph-name="lcommaaccent" unicode="&#x13c;" 
d="M61 0v723h109v-723h-109zM52 -94c0 17.333 6.16895 32.167 18.502 44.5s27.166 18.5 44.499 18.5c19.333 0 35.333 -6.66699 48 -20s19 -30.666 19 -51.999c0 -64.667 -27.667 -118.334 -83 -161.001l-41 42c25.333 20.667 40.666 42.667 45.999 66
c-16 2.66699 -28.667 10 -38 22s-14 25.333 -14 40z" />
    <glyph glyph-name="Lcaron" unicode="&#x13d;" horiz-adv-x="452" 
d="M277 525l7 174h112l-44 -174h-75zM73 0v700h111v-600h245v-100h-356z" />
    <glyph glyph-name="lcaron" unicode="&#x13e;" 
d="M211 549l7 174h113l-44 -174h-76zM61 0v723h109v-723h-109z" />
    <glyph glyph-name="Ldot" unicode="&#x13f;" horiz-adv-x="452" 
d="M73 0v700h111v-600h245v-100h-356zM269 368c0 19.333 6.83301 36 20.5 50s30.167 21 49.5 21s36 -7 50 -21s21 -30.667 21 -50s-7 -36 -21 -50s-30.667 -21 -50 -21s-35.833 7 -49.5 21s-20.5 30.667 -20.5 50z" />
    <glyph glyph-name="ldot" unicode="&#x140;" horiz-adv-x="365" 
d="M61 0v723h109v-723h-109zM215 341c0 19.333 6.83301 36 20.5 50s30.167 21 49.5 21s36 -7 50 -21s21 -30.667 21 -50s-7 -36 -21 -50s-30.667 -21 -50 -21s-35.833 7 -49.5 21s-20.5 30.667 -20.5 50z" />
    <glyph glyph-name="Lslash" unicode="&#x141;" horiz-adv-x="452" 
d="M16 217v104l57 33v346h111v-283l116 69v-108l-116 -67v-211h245v-100h-356v249z" />
    <glyph glyph-name="lslash" unicode="&#x142;" horiz-adv-x="286" 
d="M26 256v106l59 37v324h109v-259l65 42v-109l-65 -41v-356h-109v293z" />
    <glyph glyph-name="Nacute" unicode="&#x143;" horiz-adv-x="709" 
d="M72 0v700h112l343 -526v526h109v-700h-110l-344 523v-523h-110zM306 741l69 143h116l-93 -143h-92z" />
    <glyph glyph-name="nacute" unicode="&#x144;" horiz-adv-x="554" 
d="M315 535c62.667 0 108.668 -21 138.001 -63s44 -94.667 44 -158v-314h-108v323c0 35.333 -9.83301 63.166 -29.5 83.499s-44.834 30.5 -75.501 30.5c-34 0 -61.5 -11.333 -82.5 -34s-31.5 -52 -31.5 -88v-315h-109v522h107v-68c12.667 22.667 32.167 41.834 58.5 57.501
s55.833 23.5 88.5 23.5zM223.001 582l69 143h116l-93 -143h-92z" />
    <glyph glyph-name="Ncommaaccent" unicode="&#x145;" horiz-adv-x="709" 
d="M72 0v700h112l343 -526v526h109v-700h-110l-344 523v-523h-110zM289 -94c0 17.333 6.16895 32.167 18.502 44.5s27.166 18.5 44.499 18.5c19.333 0 35.333 -6.66699 48 -20s19 -30.666 19 -51.999c0 -64.667 -27.667 -118.334 -83 -161.001l-41 42
c25.333 20.667 40.666 42.667 45.999 66c-16 2.66699 -28.667 10 -38 22s-14 25.333 -14 40z" />
    <glyph glyph-name="ncommaaccent" unicode="&#x146;" horiz-adv-x="554" 
d="M315 535c62.667 0 108.668 -21 138.001 -63s44 -94.667 44 -158v-314h-108v323c0 35.333 -9.83301 63.166 -29.5 83.499s-44.834 30.5 -75.501 30.5c-34 0 -61.5 -11.333 -82.5 -34s-31.5 -52 -31.5 -88v-315h-109v522h107v-68c12.667 22.667 32.167 41.834 58.5 57.501
s55.833 23.5 88.5 23.5zM212.001 -94c0 17.333 6.16895 32.167 18.502 44.5s27.166 18.5 44.499 18.5c19.333 0 35.333 -6.66699 48 -20s19 -30.666 19 -51.999c0 -64.667 -27.667 -118.334 -83 -161.001l-41 42c25.333 20.667 40.666 42.667 45.999 66
c-16 2.66699 -28.667 10 -38 22s-14 25.333 -14 40z" />
    <glyph glyph-name="Ncaron" unicode="&#x147;" horiz-adv-x="709" 
d="M72 0v700h112l343 -526v526h109v-700h-110l-344 523v-523h-110zM358 803l55 76h95l-94 -135h-112l-95 135h96z" />
    <glyph glyph-name="ncaron" unicode="&#x148;" horiz-adv-x="554" 
d="M315 535c62.667 0 108.668 -21 138.001 -63s44 -94.667 44 -158v-314h-108v323c0 35.333 -9.83301 63.166 -29.5 83.499s-44.834 30.5 -75.501 30.5c-34 0 -61.5 -11.333 -82.5 -34s-31.5 -52 -31.5 -88v-315h-109v522h107v-68c12.667 22.667 32.167 41.834 58.5 57.501
s55.833 23.5 88.5 23.5zM285.001 648l55 76h95l-94 -135h-112l-95 135h96z" />
    <glyph glyph-name="napostrophe" unicode="&#x149;" horiz-adv-x="605" 
d="M365 535c62.667 0 108.668 -21 138.001 -63s44 -94.667 44 -158v-314h-108v323c0 35.333 -9.83301 63.166 -29.5 83.499s-44.834 30.5 -75.501 30.5c-34 0 -61.5 -11.333 -82.5 -34s-31.5 -52 -31.5 -88v-315h-109v522h107v-68c12.667 22.667 32.167 41.834 58.5 57.501
s55.833 23.5 88.5 23.5zM-23.999 659c0 17.333 6.16895 32.167 18.502 44.5s27.166 18.5 44.499 18.5c19.333 0 35.333 -6.66699 48 -20s19 -30.666 19 -51.999c0 -64.667 -27.667 -118.334 -83 -161.001l-41 42c25.333 20.667 40.666 42.667 45.999 66
c-16 2.66699 -28.667 10 -38 22s-14 25.333 -14 40z" />
    <glyph glyph-name="Eng" unicode="&#x14a;" horiz-adv-x="709" 
d="M372 -181l13 99c22 -5.33301 42.667 -8 62 -8c52.667 0 79 30 79 90l-344 523v-523h-110v700h112l343 -526v526h109v-719c0 -57.333 -15.833 -100.333 -47.5 -129s-74.5 -43 -128.5 -43c-34.667 0 -64 3.33301 -88 10z" />
    <glyph glyph-name="eng" unicode="&#x14b;" horiz-adv-x="554" 
d="M389 -8l0.000976562 331c0 35.333 -9.83301 63.166 -29.5 83.499s-44.834 30.5 -75.501 30.5c-34 0 -61.5 -11.333 -82.5 -34s-31.5 -52 -31.5 -88v-315h-109v522h107v-68c12.667 22.667 32.167 41.834 58.5 57.501s55.833 23.5 88.5 23.5c62.667 0 108.667 -21 138 -63
s44 -94.667 44 -158v-326c0 -119.333 -60.333 -179 -181 -179l-30 2v92c9.33301 -0.666992 17 -1 23 -1c53.333 0 80 30 80 90z" />
    <glyph glyph-name="Omacron" unicode="&#x14c;" horiz-adv-x="790" 
d="M34 350c0 103.333 34.167 189.667 102.5 259s154.5 104 258.5 104s190 -34.833 258 -104.5s102 -155.834 102 -258.501c0 -103.333 -34 -189.666 -102 -258.999s-154.333 -104 -259 -104c-104 0 -190 34.5 -258 103.5s-102 155.5 -102 259.5zM150 350.001
c0 -74.667 23.167 -136.5 69.5 -185.5s104.833 -73.5 175.5 -73.5c70 0 128.333 24.5 175 73.5s70 110.833 70 185.5c0 74 -23.333 135.667 -70 185s-105 74 -175 74c-70.667 0 -129.167 -24.667 -175.5 -74s-69.5 -111 -69.5 -185zM267 758.001v82h255v-82h-255z" />
    <glyph glyph-name="omacron" unicode="&#x14d;" horiz-adv-x="611" 
d="M139 260c0 -51.333 15.5 -93.498 46.5 -126.498s70.833 -49.5 119.5 -49.5s88.834 16.667 120.501 50s47.5 75.666 47.5 126.999s-15.833 93.666 -47.5 126.999s-71.834 50 -120.501 50s-88.5 -16.833 -119.5 -50.5s-46.5 -76.167 -46.5 -127.5zM29 260.002
c0 78.667 26.332 144.168 78.999 196.501s118.334 78.5 197.001 78.5c80 0 146.167 -26 198.5 -78s78.5 -117.333 78.5 -196s-26.333 -144 -79 -196s-118.667 -78 -198 -78c-80 0 -146 25.667 -198 77s-78 116.666 -78 195.999zM179.999 616.003v82h255v-82h-255z" />
    <glyph glyph-name="Obreve" unicode="&#x14e;" horiz-adv-x="790" 
d="M34 350c0 103.333 34.167 189.667 102.5 259s154.5 104 258.5 104s190 -34.833 258 -104.5s102 -155.834 102 -258.501c0 -103.333 -34 -189.666 -102 -258.999s-154.333 -104 -259 -104c-104 0 -190 34.5 -258 103.5s-102 155.5 -102 259.5zM150 350.001
c0 -74.667 23.167 -136.5 69.5 -185.5s104.833 -73.5 175.5 -73.5c70 0 128.333 24.5 175 73.5s70 110.833 70 185.5c0 74 -23.333 135.667 -70 185s-105 74 -175 74c-70.667 0 -129.167 -24.667 -175.5 -74s-69.5 -111 -69.5 -185zM396 744.001
c-44 0 -78.167 12.5 -102.5 37.5s-36.5 57.5 -36.5 97.5h81c0 -44.667 19.333 -67 58 -67c39.333 0 59 22.333 59 67h81c0 -40 -12.333 -72.5 -37 -97.5s-59 -37.5 -103 -37.5z" />
    <glyph glyph-name="obreve" unicode="&#x14f;" horiz-adv-x="611" 
d="M139 260c0 -51.333 15.5 -93.498 46.5 -126.498s70.833 -49.5 119.5 -49.5s88.834 16.667 120.501 50s47.5 75.666 47.5 126.999s-15.833 93.666 -47.5 126.999s-71.834 50 -120.501 50s-88.5 -16.833 -119.5 -50.5s-46.5 -76.167 -46.5 -127.5zM29 260.002
c0 78.667 26.332 144.168 78.999 196.501s118.334 78.5 197.001 78.5c80 0 146.167 -26 198.5 -78s78.5 -117.333 78.5 -196s-26.333 -144 -79 -196s-118.667 -78 -198 -78c-80 0 -146 25.667 -198 77s-78 116.666 -78 195.999zM300.999 584.003
c-44 0 -78.167 12.5 -102.5 37.5s-36.5 57.5 -36.5 97.5h81c0 -44.667 19.333 -67 58 -67c39.333 0 59 22.333 59 67h81c0 -40 -12.333 -72.5 -37 -97.5s-59 -37.5 -103 -37.5z" />
    <glyph glyph-name="Ohungarumlaut" unicode="&#x150;" horiz-adv-x="790" 
d="M34 350c0 103.333 34.167 189.667 102.5 259s154.5 104 258.5 104s190 -34.833 258 -104.5s102 -155.834 102 -258.501c0 -103.333 -34 -189.666 -102 -258.999s-154.333 -104 -259 -104c-104 0 -190 34.5 -258 103.5s-102 155.5 -102 259.5zM150 350.001
c0 -74.667 23.167 -136.5 69.5 -185.5s104.833 -73.5 175.5 -73.5c70 0 128.333 24.5 175 73.5s70 110.833 70 185.5c0 74 -23.333 135.667 -70 185s-105 74 -175 74c-70.667 0 -129.167 -24.667 -175.5 -74s-69.5 -111 -69.5 -185zM434 741.001l70 143h107l-92 -143h-85z
M278 741.001l69 143h108l-93 -143h-84z" />
    <glyph glyph-name="ohungarumlaut" unicode="&#x151;" horiz-adv-x="611" 
d="M139 260c0 -51.333 15.5 -93.498 46.5 -126.498s70.833 -49.5 119.5 -49.5s88.834 16.667 120.501 50s47.5 75.666 47.5 126.999s-15.833 93.666 -47.5 126.999s-71.834 50 -120.501 50s-88.5 -16.833 -119.5 -50.5s-46.5 -76.167 -46.5 -127.5zM29 260.002
c0 78.667 26.332 144.168 78.999 196.501s118.334 78.5 197.001 78.5c80 0 146.167 -26 198.5 -78s78.5 -117.333 78.5 -196s-26.333 -144 -79 -196s-118.667 -78 -198 -78c-80 0 -146 25.667 -198 77s-78 116.666 -78 195.999zM346.999 582.003l70 143h107l-92 -143h-85z
M190.999 582.003l69 143h108l-93 -143h-84z" />
    <glyph glyph-name="OE" unicode="&#x152;" horiz-adv-x="1046" 
d="M34 350c0 103.333 34.168 189.668 102.501 259.001s154.5 104 258.5 104c32 0 65.333 -4.33301 100 -13h492v-100h-326c48.667 -52.667 78.667 -117.667 90 -195h205v-99h-204c-8 -80.667 -38.333 -149.334 -91 -206.001h336v-100h-502
c-34.667 -8.66699 -68.334 -13 -101.001 -13c-104 0 -190 34.5 -258 103.5s-102 155.5 -102 259.5zM150.001 350.002c0 -74.667 23.167 -136.5 69.5 -185.5s104.833 -73.5 175.5 -73.5c70 0 128.333 24.5 175 73.5s70 110.833 70 185.5c0 74 -23.333 135.667 -70 185
s-105 74 -175 74c-70.667 0 -129.167 -24.667 -175.5 -74s-69.5 -111 -69.5 -185z" />
    <glyph glyph-name="oe" unicode="&#x153;" horiz-adv-x="1002" 
d="M29 260c0 78.667 26.332 144.171 78.999 196.504s118.334 78.5 197.001 78.5c46.667 0 89 -9.83301 127 -29.5s68.667 -46.834 92 -81.501c20.667 34.667 48.667 61.834 84 81.501s74 29.5 116 29.5c78 0 139.333 -24.833 184 -74.5s67 -115.834 67 -198.501
c0 -12 -0.333008 -21 -1 -27h-393c0.666992 -46.667 16 -83.834 46 -111.501s68.667 -41.5 116 -41.5c62.667 0 110.667 24.333 144 73l72 -54c-16.667 -28.667 -43.334 -54.834 -80.001 -78.501s-82.667 -35.5 -138 -35.5c-48 0 -90.667 9.83301 -128 29.5
s-67 46.834 -89 81.501c-23.333 -34.667 -54.166 -61.834 -92.499 -81.501s-80.5 -29.5 -126.5 -29.5c-80 0 -146 25.667 -198 77s-78 116.666 -78 195.999zM138.999 260.004c0 -51.333 15.5 -93.498 46.5 -126.498s70.833 -49.5 119.5 -49.5s88.834 16.667 120.501 50
s47.5 75.666 47.5 126.999s-15.833 93.666 -47.5 126.999s-71.834 50 -120.501 50s-88.5 -16.833 -119.5 -50.5s-46.5 -76.167 -46.5 -127.5zM584.999 310.006h279c-2 42 -16 74.833 -42 98.5s-58.333 35.5 -97 35.5c-38 0 -70 -12.167 -96 -36.5s-40.667 -56.833 -44 -97.5
z" />
    <glyph glyph-name="Racute" unicode="&#x154;" horiz-adv-x="566" 
d="M73 0v700h188c73.333 0 130.666 -19.167 171.999 -57.5s62 -87.833 62 -148.5c0 -40.667 -10.167 -77.167 -30.5 -109.5s-48.166 -55.833 -83.499 -70.5l170 -314h-123l-147 289h-97v-289h-111zM184 384h75c36 0 65.167 9.66699 87.5 29s33.5 46.333 33.5 81
c0 33.333 -10.333 59.833 -31 79.5s-50.667 29.5 -90 29.5h-75v-219zM206 741l69 143h116l-93 -143h-92z" />
    <glyph glyph-name="racute" unicode="&#x155;" horiz-adv-x="337" 
d="M317 535l-0.000976562 -110c-98 0 -147 -66.667 -147 -200v-225h-109v522h107v-82c10.667 27.333 29.334 50 56.001 68s57.667 27 93 27zM128.999 582l69 143h116l-93 -143h-92z" />
    <glyph glyph-name="Rcommaaccent" unicode="&#x156;" horiz-adv-x="566" 
d="M73 0v700h188c73.333 0 130.666 -19.167 171.999 -57.5s62 -87.833 62 -148.5c0 -40.667 -10.167 -77.167 -30.5 -109.5s-48.166 -55.833 -83.499 -70.5l170 -314h-123l-147 289h-97v-289h-111zM184 384h75c36 0 65.167 9.66699 87.5 29s33.5 46.333 33.5 81
c0 33.333 -10.333 59.833 -31 79.5s-50.667 29.5 -90 29.5h-75v-219zM221 -94c0 17.333 6.16895 32.167 18.502 44.5s27.166 18.5 44.499 18.5c19.333 0 35.333 -6.66699 48 -20s19 -30.666 19 -51.999c0 -64.667 -27.667 -118.334 -83 -161.001l-41 42
c25.333 20.667 40.666 42.667 45.999 66c-16 2.66699 -28.667 10 -38 22s-14 25.333 -14 40z" />
    <glyph glyph-name="rcommaaccent" unicode="&#x157;" horiz-adv-x="337" 
d="M317 535l-0.000976562 -110c-98 0 -147 -66.667 -147 -200v-225h-109v522h107v-82c10.667 27.333 29.334 50 56.001 68s57.667 27 93 27zM74.999 -94c0 17.333 6.16895 32.167 18.502 44.5s27.166 18.5 44.499 18.5c19.333 0 35.333 -6.66699 48 -20
s19 -30.666 19 -51.999c0 -64.667 -27.667 -118.334 -83 -161.001l-41 42c25.333 20.667 40.666 42.667 45.999 66c-16 2.66699 -28.667 10 -38 22s-14 25.333 -14 40z" />
    <glyph glyph-name="Rcaron" unicode="&#x158;" horiz-adv-x="566" 
d="M73 0v700h188c73.333 0 130.666 -19.167 171.999 -57.5s62 -87.833 62 -148.5c0 -40.667 -10.167 -77.167 -30.5 -109.5s-48.166 -55.833 -83.499 -70.5l170 -314h-123l-147 289h-97v-289h-111zM184 384h75c36 0 65.167 9.66699 87.5 29s33.5 46.333 33.5 81
c0 33.333 -10.333 59.833 -31 79.5s-50.667 29.5 -90 29.5h-75v-219zM262 803l55 76h95l-94 -135h-112l-95 135h96z" />
    <glyph glyph-name="rcaron" unicode="&#x159;" horiz-adv-x="337" 
d="M317 535l-0.000976562 -110c-98 0 -147 -66.667 -147 -200v-225h-109v522h107v-82c10.667 27.333 29.334 50 56.001 68s57.667 27 93 27zM177.999 648l55 76h95l-94 -135h-112l-95 135h96z" />
    <glyph glyph-name="Sacute" unicode="&#x15a;" horiz-adv-x="514" 
d="M28 145l94.002 44c25.333 -66 71 -99 137 -99c32 0 57.5 8.33301 76.5 25s28.5 39.667 28.5 69c0 26.667 -10.833 49.834 -32.5 69.501s-48 36.5 -79 50.5s-61.833 29 -92.5 45s-56.834 38.833 -78.501 68.5s-32.5 65.167 -32.5 106.5
c0 55.333 19.167 100.666 57.5 135.999s89.166 53 152.499 53c31.333 0 59.833 -5 85.5 -15s46.5 -23 62.5 -39s28.5 -31.167 37.5 -45.5s16.167 -28.833 21.5 -43.5l-92 -41c-26 54.667 -65 82 -117 82c-30 0 -53.667 -8.16699 -71 -24.5s-26 -36.833 -26 -61.5
c0 -21.333 7.83301 -40.5 23.5 -57.5s35.167 -30.833 58.5 -41.5s48.833 -23 76.5 -37s53.167 -28.5 76.5 -43.5s42.833 -35.667 58.5 -62s23.5 -56.833 23.5 -91.5c0 -60 -20.167 -109.167 -60.5 -147.5s-94.5 -57.5 -162.5 -57.5c-34 0 -64.667 5.16699 -92 15.5
s-49.833 24 -67.5 41s-31.667 33.667 -42 50s-18.5 33.5 -24.5 51.5zM198.002 741l69 143h116l-93 -143h-92z" />
    <glyph glyph-name="sacute" unicode="&#x15b;" horiz-adv-x="426" 
d="M24 91l68.001 53.999c31.333 -45.333 73 -68 125 -68c24 0 43.333 5.66699 58 17s22 27.333 22 48c0 18 -8.66699 33.333 -26 46s-38.5 23.5 -63.5 32.5s-50 19.167 -75 30.5s-46.167 28.5 -63.5 51.5s-26 51.167 -26 84.5c0 45.333 16.833 81.333 50.5 108
s76.5 40 128.5 40c44 0 80.167 -9.83301 108.5 -29.5s48.833 -42.167 61.5 -67.5l-75 -50c-24 38.667 -57.667 58 -101 58c-20.667 0 -37.5 -5.16699 -50.5 -15.5s-19.5 -24.166 -19.5 -41.499c0 -18 8.83301 -33 26.5 -45s38.834 -22.333 63.501 -31s49.5 -18.5 74.5 -29.5
s46.333 -28 64 -51s26.5 -51.5 26.5 -85.5c0 -48 -17.833 -86.667 -53.5 -116s-80.834 -44 -135.501 -44c-86.667 0 -149.334 34.667 -188.001 104zM154.001 581.999l69 143h116l-93 -143h-92z" />
    <glyph glyph-name="Scircumflex" unicode="&#x15c;" horiz-adv-x="514" 
d="M28 145l94.002 44c25.333 -66 71 -99 137 -99c32 0 57.5 8.33301 76.5 25s28.5 39.667 28.5 69c0 26.667 -10.833 49.834 -32.5 69.501s-48 36.5 -79 50.5s-61.833 29 -92.5 45s-56.834 38.833 -78.501 68.5s-32.5 65.167 -32.5 106.5
c0 55.333 19.167 100.666 57.5 135.999s89.166 53 152.499 53c31.333 0 59.833 -5 85.5 -15s46.5 -23 62.5 -39s28.5 -31.167 37.5 -45.5s16.167 -28.833 21.5 -43.5l-92 -41c-26 54.667 -65 82 -117 82c-30 0 -53.667 -8.16699 -71 -24.5s-26 -36.833 -26 -61.5
c0 -21.333 7.83301 -40.5 23.5 -57.5s35.167 -30.833 58.5 -41.5s48.833 -23 76.5 -37s53.167 -28.5 76.5 -43.5s42.833 -35.667 58.5 -62s23.5 -56.833 23.5 -91.5c0 -60 -20.167 -109.167 -60.5 -147.5s-94.5 -57.5 -162.5 -57.5c-34 0 -64.667 5.16699 -92 15.5
s-49.833 24 -67.5 41s-31.667 33.667 -42 50s-18.5 33.5 -24.5 51.5zM314.002 744l-55 77l-55 -77h-96l95 135h112l94 -135h-95z" />
    <glyph glyph-name="scircumflex" unicode="&#x15d;" horiz-adv-x="426" 
d="M24 91l68.001 53.999c31.333 -45.333 73 -68 125 -68c24 0 43.333 5.66699 58 17s22 27.333 22 48c0 18 -8.66699 33.333 -26 46s-38.5 23.5 -63.5 32.5s-50 19.167 -75 30.5s-46.167 28.5 -63.5 51.5s-26 51.167 -26 84.5c0 45.333 16.833 81.333 50.5 108
s76.5 40 128.5 40c44 0 80.167 -9.83301 108.5 -29.5s48.833 -42.167 61.5 -67.5l-75 -50c-24 38.667 -57.667 58 -101 58c-20.667 0 -37.5 -5.16699 -50.5 -15.5s-19.5 -24.166 -19.5 -41.499c0 -18 8.83301 -33 26.5 -45s38.834 -22.333 63.501 -31s49.5 -18.5 74.5 -29.5
s46.333 -28 64 -51s26.5 -51.5 26.5 -85.5c0 -48 -17.833 -86.667 -53.5 -116s-80.834 -44 -135.501 -44c-86.667 0 -149.334 34.667 -188.001 104zM278.001 588.999l-55 77l-55 -77h-96l95 135h112l94 -135h-95z" />
    <glyph glyph-name="Scedilla" unicode="&#x15e;" horiz-adv-x="514" 
d="M28 145l94.0029 43.998c25.333 -66 71 -99 137 -99c32 0 57.5 8.33301 76.5 25s28.5 39.667 28.5 69c0 26.667 -10.833 49.834 -32.5 69.501s-48 36.5 -79 50.5s-61.833 29 -92.5 45s-56.834 38.833 -78.501 68.5s-32.5 65.167 -32.5 106.5
c0 55.333 19.167 100.666 57.5 135.999s89.166 53 152.499 53c31.333 0 59.833 -5 85.5 -15s46.5 -23 62.5 -39s28.5 -31.167 37.5 -45.5s16.167 -28.833 21.5 -43.5l-92 -41c-26 54.667 -65 82 -117 82c-30 0 -53.667 -8.16699 -71 -24.5s-26 -36.833 -26 -61.5
c0 -21.333 7.83301 -40.5 23.5 -57.5s35.167 -30.833 58.5 -41.5s48.833 -23 76.5 -37s53.167 -28.5 76.5 -43.5s42.833 -35.667 58.5 -62s23.5 -56.833 23.5 -91.5c0 -55.333 -17.333 -101.666 -52 -138.999s-82 -58.666 -142 -63.999l-4 -32c52 -9.33301 78 -39 78 -89
c0 -32.667 -11 -57 -33 -73s-50.333 -24 -85 -24c-16.667 0 -33.334 2.33301 -50.001 7l13 61c10.667 -2.66699 21 -4 31 -4c33.333 0 50 12.333 50 37c0 24 -18.333 36 -55 36l-17 -1l12 82c-54 5.33301 -97 23.5 -129 54.5s-54 64.833 -66 101.5z" />
    <glyph glyph-name="scedilla" unicode="&#x15f;" horiz-adv-x="426" 
d="M24 91l67.999 53.999c31.333 -45.333 73 -68 125 -68c24 0 43.333 5.66699 58 17s22 27.333 22 48c0 18 -8.66699 33.333 -26 46s-38.5 23.5 -63.5 32.5s-50 19.167 -75 30.5s-46.167 28.5 -63.5 51.5s-26 51.167 -26 84.5c0 45.333 16.833 81.333 50.5 108
s76.5 40 128.5 40c44 0 80.167 -9.83301 108.5 -29.5s48.833 -42.167 61.5 -67.5l-75 -50c-24 38.667 -57.667 58 -101 58c-20.667 0 -37.5 -5.16699 -50.5 -15.5s-19.5 -24.166 -19.5 -41.499c0 -18 8.83301 -33 26.5 -45s38.834 -22.333 63.501 -31s49.5 -18.5 74.5 -29.5
s46.333 -28 64 -51s26.5 -51.5 26.5 -85.5c0 -44 -15.167 -80.167 -45.5 -108.5s-69.5 -44.833 -117.5 -49.5l-4 -32c52 -9.33301 78 -39 78 -89c0 -32.667 -11 -57 -33 -73s-50.333 -24 -85 -24c-17.333 0 -34 2.33301 -50 7l13 61c10.667 -2.66699 21 -4 31 -4
c33.333 0 50 12.333 50 37c0 24 -18.333 36 -55 36l-17 -1l12 82c-70.667 9.33301 -122 43.333 -154 102z" />
    <glyph glyph-name="Scaron" unicode="&#x160;" horiz-adv-x="514" 
d="M28 145l94.002 44c25.333 -66 71 -99 137 -99c32 0 57.5 8.33301 76.5 25s28.5 39.667 28.5 69c0 26.667 -10.833 49.834 -32.5 69.501s-48 36.5 -79 50.5s-61.833 29 -92.5 45s-56.834 38.833 -78.501 68.5s-32.5 65.167 -32.5 106.5
c0 55.333 19.167 100.666 57.5 135.999s89.166 53 152.499 53c31.333 0 59.833 -5 85.5 -15s46.5 -23 62.5 -39s28.5 -31.167 37.5 -45.5s16.167 -28.833 21.5 -43.5l-92 -41c-26 54.667 -65 82 -117 82c-30 0 -53.667 -8.16699 -71 -24.5s-26 -36.833 -26 -61.5
c0 -21.333 7.83301 -40.5 23.5 -57.5s35.167 -30.833 58.5 -41.5s48.833 -23 76.5 -37s53.167 -28.5 76.5 -43.5s42.833 -35.667 58.5 -62s23.5 -56.833 23.5 -91.5c0 -60 -20.167 -109.167 -60.5 -147.5s-94.5 -57.5 -162.5 -57.5c-34 0 -64.667 5.16699 -92 15.5
s-49.833 24 -67.5 41s-31.667 33.667 -42 50s-18.5 33.5 -24.5 51.5zM256.002 803l55 76h95l-94 -135h-112l-95 135h96z" />
    <glyph glyph-name="scaron" unicode="&#x161;" horiz-adv-x="426" 
d="M24 91l68.001 53.999c31.333 -45.333 73 -68 125 -68c24 0 43.333 5.66699 58 17s22 27.333 22 48c0 18 -8.66699 33.333 -26 46s-38.5 23.5 -63.5 32.5s-50 19.167 -75 30.5s-46.167 28.5 -63.5 51.5s-26 51.167 -26 84.5c0 45.333 16.833 81.333 50.5 108
s76.5 40 128.5 40c44 0 80.167 -9.83301 108.5 -29.5s48.833 -42.167 61.5 -67.5l-75 -50c-24 38.667 -57.667 58 -101 58c-20.667 0 -37.5 -5.16699 -50.5 -15.5s-19.5 -24.166 -19.5 -41.499c0 -18 8.83301 -33 26.5 -45s38.834 -22.333 63.501 -31s49.5 -18.5 74.5 -29.5
s46.333 -28 64 -51s26.5 -51.5 26.5 -85.5c0 -48 -17.833 -86.667 -53.5 -116s-80.834 -44 -135.501 -44c-86.667 0 -149.334 34.667 -188.001 104zM221.001 647.999l55 76h95l-94 -135h-112l-95 135h96z" />
    <glyph glyph-name="Tcommaaccent" unicode="&#x162;" horiz-adv-x="511" 
d="M196 0v600h-176v100h463v-100h-176v-600h-111zM184 -94c0 17.333 6.16895 32.167 18.502 44.5s27.166 18.5 44.499 18.5c19.333 0 35.333 -6.66699 48 -20s19 -30.666 19 -51.999c0 -64.667 -27.667 -118.334 -83 -161.001l-41 42c25.333 20.667 40.666 42.667 45.999 66
c-16 2.66699 -28.667 10 -38 22s-14 25.333 -14 40z" />
    <glyph glyph-name="Tcommaaccent" unicode="&#x21a;" horiz-adv-x="511" 
d="M196 0v600h-176v100h463v-100h-176v-600h-111zM184 -94c0 17.333 6.16895 32.167 18.502 44.5s27.166 18.5 44.499 18.5c19.333 0 35.333 -6.66699 48 -20s19 -30.666 19 -51.999c0 -64.667 -27.667 -118.334 -83 -161.001l-41 42c25.333 20.667 40.666 42.667 45.999 66
c-16 2.66699 -28.667 10 -38 22s-14 25.333 -14 40z" />
    <glyph glyph-name="tcommaaccent" unicode="&#x163;" horiz-adv-x="314" 
d="M70 522l0.000976562 109h108v-109h106v-90h-106v-243c0 -38.667 7 -64.834 21 -78.501s36.667 -20.5 68 -20.5l21 1v-94c-12.667 -2.66699 -30.334 -4 -53.001 -4c-60 0 -102.5 18.333 -127.5 55s-37.5 89.334 -37.5 158.001v226h-58v90h58zM113.001 -94
c0 17.333 6.16895 32.167 18.502 44.5s27.166 18.5 44.499 18.5c19.333 0 35.333 -6.66699 48 -20s19 -30.666 19 -51.999c0 -64.667 -27.667 -118.334 -83 -161.001l-41 42c25.333 20.667 40.666 42.667 45.999 66c-16 2.66699 -28.667 10 -38 22s-14 25.333 -14 40z" />
    <glyph glyph-name="tcommaaccent" unicode="&#x21b;" horiz-adv-x="314" 
d="M70 522l0.000976562 109h108v-109h106v-90h-106v-243c0 -38.667 7 -64.834 21 -78.501s36.667 -20.5 68 -20.5l21 1v-94c-12.667 -2.66699 -30.334 -4 -53.001 -4c-60 0 -102.5 18.333 -127.5 55s-37.5 89.334 -37.5 158.001v226h-58v90h58zM113.001 -94
c0 17.333 6.16895 32.167 18.502 44.5s27.166 18.5 44.499 18.5c19.333 0 35.333 -6.66699 48 -20s19 -30.666 19 -51.999c0 -64.667 -27.667 -118.334 -83 -161.001l-41 42c25.333 20.667 40.666 42.667 45.999 66c-16 2.66699 -28.667 10 -38 22s-14 25.333 -14 40z" />
    <glyph glyph-name="Tcaron" unicode="&#x164;" horiz-adv-x="511" 
d="M196 0v600h-176v100h463v-100h-176v-600h-111zM254 803l55 76h95l-94 -135h-112l-95 135h96z" />
    <glyph glyph-name="tcaron" unicode="&#x165;" horiz-adv-x="314" 
d="M212 553l7 170h112l-44 -170h-75zM70 522l0.000976562 109h108v-109h106v-90h-106v-243c0 -38.667 7 -64.834 21 -78.501s36.667 -20.5 68 -20.5l21 1v-94c-12.667 -2.66699 -30.334 -4 -53.001 -4c-60 0 -102.5 18.333 -127.5 55s-37.5 89.334 -37.5 158.001v226h-58v90
h58z" />
    <glyph glyph-name="Tbar" unicode="&#x166;" horiz-adv-x="511" 
d="M76 326v84h120v190h-176v100h463v-100h-176v-190h131v-84h-131v-326h-111v326h-120z" />
    <glyph glyph-name="tbar" unicode="&#x167;" horiz-adv-x="314" 
d="M70 522v109.001h108v-109h106v-90h-106v-97h101v-75h-101v-71c0 -38.667 7 -64.834 21 -78.501s36.667 -20.5 68 -20.5l21 1v-94c-15.333 -2.66699 -33 -4 -53 -4c-93.333 0 -146.333 45 -159 135c-4 28 -6 59.333 -6 94v38h-59v75h59v97h-58v90h58z" />
    <glyph glyph-name="Utilde" unicode="&#x168;" horiz-adv-x="681" 
d="M341 -13c-86 0 -152.668 24.332 -200.001 72.999s-71 114.334 -71 197.001v443h111v-442c0 -52 13.833 -93 41.5 -123s67.167 -45 118.5 -45c50.667 0 90 15.167 118 45.5s42 71.5 42 123.5v441h110v-442c0 -80.667 -24.167 -146 -72.5 -196s-114.166 -75 -197.499 -75z
M417.999 750.999c-18.667 0 -41.667 6.83398 -69 20.501s-46.333 20.5 -57 20.5c-22 0 -33.667 -13.667 -35 -41h-72c0 36 9.5 65 28.5 87s43.5 33 73.5 33c19.333 0 42.333 -6.83301 69 -20.5s45 -20.5 55 -20.5c10.667 0 19.167 3.66699 25.5 11s9.5 17.333 9.5 30h72
c0 -36.667 -9.16699 -65.834 -27.5 -87.501s-42.5 -32.5 -72.5 -32.5z" />
    <glyph glyph-name="utilde" unicode="&#x169;" horiz-adv-x="550" 
d="M239 -13c-62.667 0 -108.668 21 -138.001 63s-44 94.667 -44 158v314h108v-323c0 -35.333 9.83301 -63.166 29.5 -83.499s44.834 -30.5 75.501 -30.5c34 0 61.5 11.333 82.5 34s31.5 52 31.5 88v315h109v-522h-107v68c-12.667 -22.667 -32 -41.834 -58 -57.501
s-55.667 -23.5 -89 -23.5zM343.999 594c-18.667 0 -41.667 6.83398 -69 20.501s-46.333 20.5 -57 20.5c-22 0 -33.667 -13.667 -35 -41h-72c0 36 9.5 65 28.5 87s43.5 33 73.5 33c19.333 0 42.333 -6.83301 69 -20.5s45 -20.5 55 -20.5c10.667 0 19.167 3.66699 25.5 11
s9.5 17.333 9.5 30h72c0 -36.667 -9.16699 -65.834 -27.5 -87.501s-42.5 -32.5 -72.5 -32.5z" />
    <glyph glyph-name="Umacron" unicode="&#x16a;" horiz-adv-x="687" 
d="M341 -13c-86 0 -152.668 24.332 -200.001 72.999s-71 114.334 -71 197.001v443h111v-442c0 -52 13.833 -93 41.5 -123s67.167 -45 118.5 -45c50.667 0 90 15.167 118 45.5s42 71.5 42 123.5v441h110v-442c0 -80.667 -24.167 -146 -72.5 -196s-114.166 -75 -197.499 -75z
M220.999 757.999v82h255v-82h-255z" />
    <glyph glyph-name="umacron" unicode="&#x16b;" horiz-adv-x="550" 
d="M239 -13c-62.667 0 -108.668 21 -138.001 63s-44 94.667 -44 158v314h108v-323c0 -35.333 9.83301 -63.166 29.5 -83.499s44.834 -30.5 75.501 -30.5c34 0 61.5 11.333 82.5 34s31.5 52 31.5 88v315h109v-522h-107v68c-12.667 -22.667 -32 -41.834 -58 -57.501
s-55.667 -23.5 -89 -23.5zM151.999 616v82h255v-82h-255z" />
    <glyph glyph-name="Ubreve" unicode="&#x16c;" horiz-adv-x="681" 
d="M341 -13c-86 0 -152.668 24.332 -200.001 72.999s-71 114.334 -71 197.001v443h111v-442c0 -52 13.833 -93 41.5 -123s67.167 -45 118.5 -45c50.667 0 90 15.167 118 45.5s42 71.5 42 123.5v441h110v-442c0 -80.667 -24.167 -146 -72.5 -196s-114.166 -75 -197.499 -75z
M347.999 743.999c-44 0 -78.167 12.5 -102.5 37.5s-36.5 57.5 -36.5 97.5h81c0 -44.667 19.333 -67 58 -67c39.333 0 59 22.333 59 67h81c0 -40 -12.333 -72.5 -37 -97.5s-59 -37.5 -103 -37.5z" />
    <glyph glyph-name="ubreve" unicode="&#x16d;" horiz-adv-x="550" 
d="M239 -13c-62.667 0 -108.668 21 -138.001 63s-44 94.667 -44 158v314h108v-323c0 -35.333 9.83301 -63.166 29.5 -83.499s44.834 -30.5 75.501 -30.5c34 0 61.5 11.333 82.5 34s31.5 52 31.5 88v315h109v-522h-107v68c-12.667 -22.667 -32 -41.834 -58 -57.501
s-55.667 -23.5 -89 -23.5zM276.999 584c-44 0 -78.167 12.5 -102.5 37.5s-36.5 57.5 -36.5 97.5h81c0 -44.667 19.333 -67 58 -67c39.333 0 59 22.333 59 67h81c0 -40 -12.333 -72.5 -37 -97.5s-59 -37.5 -103 -37.5z" />
    <glyph glyph-name="Uring" unicode="&#x16e;" horiz-adv-x="681" 
d="M341 -13c-86 0 -152.668 24.332 -200.001 72.999s-71 114.334 -71 197.001v443h111v-442c0 -52 13.833 -93 41.5 -123s67.167 -45 118.5 -45c50.667 0 90 15.167 118 45.5s42 71.5 42 123.5v441h110v-442c0 -80.667 -24.167 -146 -72.5 -196s-114.166 -75 -197.499 -75z
M246.999 828.999c0 27.333 9.33496 49.666 28.002 66.999s42 26 70 26c29.333 0 53.166 -8.66699 71.499 -26s27.5 -39.333 27.5 -66c0 -27.333 -9.33301 -49.833 -28 -67.5s-42.334 -26.5 -71.001 -26.5c-28 0 -51.333 8.83301 -70 26.5s-28 39.834 -28 66.501z
M306.001 828.999c0 -12 3.66602 -21.667 10.999 -29s17 -11 29 -11s21.5 3.66699 28.5 11s10.5 17.333 10.5 30c0 12 -3.66699 21.667 -11 29s-17 11 -29 11c-11.333 0 -20.666 -3.83301 -27.999 -11.5s-11 -17.5 -11 -29.5z" />
    <glyph glyph-name="uring" unicode="&#x16f;" horiz-adv-x="550" 
d="M239 -13c-62.667 0 -108.668 21 -138.001 63s-44 94.667 -44 158v314h108v-323c0 -35.333 9.83301 -63.166 29.5 -83.499s44.834 -30.5 75.501 -30.5c34 0 61.5 11.333 82.5 34s31.5 52 31.5 88v315h109v-522h-107v68c-12.667 -22.667 -32 -41.834 -58 -57.501
s-55.667 -23.5 -89 -23.5zM179.999 664c0 27.333 9.33496 49.666 28.002 66.999s42 26 70 26c29.333 0 53.166 -8.66699 71.499 -26s27.5 -39.333 27.5 -66c0 -27.333 -9.33301 -49.833 -28 -67.5s-42.334 -26.5 -71.001 -26.5c-28 0 -51.333 8.83301 -70 26.5
s-28 39.834 -28 66.501zM239.001 664c0 -12 3.66602 -21.667 10.999 -29s17 -11 29 -11s21.5 3.66699 28.5 11s10.5 17.333 10.5 30c0 12 -3.66699 21.667 -11 29s-17 11 -29 11c-11.333 0 -20.666 -3.83301 -27.999 -11.5s-11 -17.5 -11 -29.5z" />
    <glyph glyph-name="Uhungarumlaut" unicode="&#x170;" horiz-adv-x="687" 
d="M341 -13c-86 0 -152.668 24.332 -200.001 72.999s-71 114.334 -71 197.001v443h111v-442c0 -52 13.833 -93 41.5 -123s67.167 -45 118.5 -45c50.667 0 90 15.167 118 45.5s42 71.5 42 123.5v441h110v-442c0 -80.667 -24.167 -146 -72.5 -196s-114.166 -75 -197.499 -75z
M379.999 740.999l70 143h107l-92 -143h-85zM223.999 740.999l69 143h108l-93 -143h-84z" />
    <glyph glyph-name="uhungarumlaut" unicode="&#x171;" horiz-adv-x="550" 
d="M239 -13c-62.667 0 -108.668 21 -138.001 63s-44 94.667 -44 158v314h108v-323c0 -35.333 9.83301 -63.166 29.5 -83.499s44.834 -30.5 75.501 -30.5c34 0 61.5 11.333 82.5 34s31.5 52 31.5 88v315h109v-522h-107v68c-12.667 -22.667 -32 -41.834 -58 -57.501
s-55.667 -23.5 -89 -23.5zM302.999 582l70 143h107l-92 -143h-85zM146.999 582l69 143h108l-93 -143h-84z" />
    <glyph glyph-name="Uogonek" unicode="&#x172;" horiz-adv-x="681" 
d="M278 -105c0 36 18.001 66.667 54.001 92c-83.333 2 -147.833 27.167 -193.5 75.5s-68.5 113.166 -68.5 194.499v443h111v-442c0 -52 13.833 -93 41.5 -123s67.167 -45 118.5 -45c50.667 0 90 15.167 118 45.5s42 71.5 42 123.5v441h110v-442
c0 -64.667 -15.667 -120 -47 -166s-75.333 -77 -132 -93c-8 -3.33301 -15.833 -7.66602 -23.5 -12.999s-15.834 -13.5 -24.501 -24.5s-13 -22.833 -13 -35.5s4.66699 -22.667 14 -30s21.333 -11 36 -11v-85c-8 -1.33301 -16.333 -2 -25 -2c-32 0 -59.667 8.16699 -83 24.5
s-35 40.5 -35 72.5z" />
    <glyph glyph-name="uogonek" unicode="&#x173;" horiz-adv-x="550" 
d="M337 -105c0 24 7.99805 45.333 23.998 64s33.333 32.334 52 41.001h-27v68c-12.667 -22.667 -32 -41.834 -58 -57.501s-55.667 -23.5 -89 -23.5c-62.667 0 -108.667 21 -138 63s-44 94.667 -44 158v314h108v-323c0 -35.333 9.83301 -63.166 29.5 -83.499
s44.834 -30.5 75.501 -30.5c34 0 61.5 11.333 82.5 34s31.5 52 31.5 88v315h109v-522c-7.33301 -2.66699 -15.166 -6.66699 -23.499 -12s-17 -13.833 -26 -25.5s-13.5 -23.834 -13.5 -36.501s4.66699 -22.667 14 -30s21.333 -11 36 -11v-85c-8 -1.33301 -16.333 -2 -25 -2
c-32 0 -59.667 8.16699 -83 24.5s-35 40.5 -35 72.5z" />
    <glyph glyph-name="Wcircumflex" unicode="&#x174;" horiz-adv-x="960" 
d="M631 0l-151 534l-151 -534h-125l-194 700h119l143 -562l155 562h105l156 -562l143 562h118l-193 -700h-125zM536 744l-55 77l-55 -77h-96l95 135h112l94 -135h-95z" />
    <glyph glyph-name="wcircumflex" unicode="&#x175;" horiz-adv-x="822" 
d="M528 0l-117 374l-118 -374h-120l-166 522h118l114 -400c0.666992 2 40.667 135.333 120 400h104l119 -400l115 400h118l-166 -522h-121zM466 589l-55 77l-55 -77h-96l95 135h112l94 -135h-95z" />
    <glyph glyph-name="Ycircumflex" unicode="&#x176;" horiz-adv-x="558" 
d="M224 0v324l-216 376h126l145 -273l148 273h123l-216 -376v-324h-110zM335 744l-55 77l-55 -77h-96l95 135h112l94 -135h-95z" />
    <glyph glyph-name="ycircumflex" unicode="&#x177;" horiz-adv-x="524" 
d="M244 -179h-105l74 188l-207 513h117l141 -380l139 380h114zM321 589l-55 77l-55 -77h-96l95 135h112l94 -135h-95z" />
    <glyph glyph-name="Ydieresis" unicode="&#x178;" horiz-adv-x="558" 
d="M224 0v324l-216 376h126l145 -273l148 273h123l-216 -376v-324h-110zM312 823c0 16.667 5.5 30.667 16.5 42s25.167 17 42.5 17c16.667 0 30.667 -5.83301 42 -17.5s17 -25.5 17 -41.5c0 -16.667 -5.66699 -30.667 -17 -42s-25.333 -17 -42 -17
c-17.333 0 -31.5 5.66699 -42.5 17s-16.5 25.333 -16.5 42zM137 823c0 16 5.66699 29.833 17 41.5s25.333 17.5 42 17.5s30.667 -5.83301 42 -17.5s17 -25.5 17 -41.5c0 -16.667 -5.66699 -30.667 -17 -42s-25.333 -17 -42 -17s-30.667 5.66699 -42 17s-17 25.333 -17 42z
" />
    <glyph glyph-name="Zacute" unicode="&#x179;" horiz-adv-x="599" 
d="M34 0v76l378 525h-367v99h513v-76l-379 -525h382v-99h-527zM238 741l69 143h116l-93 -143h-92z" />
    <glyph glyph-name="zacute" unicode="&#x17a;" horiz-adv-x="465" 
d="M30 0v71l267 359h-259v92h391v-72l-266 -359h270v-91h-403zM167 582l69 143h116l-93 -143h-92z" />
    <glyph glyph-name="Zdotaccent" unicode="&#x17b;" horiz-adv-x="599" 
d="M34 0v76l378 525h-367v99h513v-76l-379 -525h382v-99h-527zM232 809c0 19.333 6.66699 35.5 20 48.5s29.333 19.5 48 19.5s34.667 -6.5 48 -19.5s20 -29.167 20 -48.5s-6.66699 -35.5 -20 -48.5s-29.333 -19.5 -48 -19.5s-34.667 6.5 -48 19.5s-20 29.167 -20 48.5z" />
    <glyph glyph-name="zdotaccent" unicode="&#x17c;" horiz-adv-x="465" 
d="M30 0v71l267 359h-259v92h391v-72l-266 -359h270v-91h-403zM168 651c0 19.333 6.66699 35.5 20 48.5s29.333 19.5 48 19.5s34.667 -6.5 48 -19.5s20 -29.167 20 -48.5s-6.66699 -35.5 -20 -48.5s-29.333 -19.5 -48 -19.5s-34.667 6.5 -48 19.5s-20 29.167 -20 48.5z" />
    <glyph glyph-name="Zcaron" unicode="&#x17d;" horiz-adv-x="599" 
d="M34 0v76l378 525h-367v99h513v-76l-379 -525h382v-99h-527zM299 803l55 76h95l-94 -135h-112l-95 135h96z" />
    <glyph glyph-name="zcaron" unicode="&#x17e;" horiz-adv-x="465" 
d="M30 0v71l267 359h-259v92h391v-72l-266 -359h270v-91h-403zM235 648l55 76h95l-94 -135h-112l-95 135h96z" />
    <glyph glyph-name="florin" unicode="&#x192;" horiz-adv-x="466" 
d="M266 337l-44.999 -335c-1.33301 -11.333 -4 -27 -8 -47c-11.333 -52.667 -33.833 -90.334 -67.5 -113.001s-72.834 -34 -117.501 -34c-24.667 0 -45 2 -61 6l13 91c14 -2.66699 27.667 -4 41 -4c29.333 0 51 8.83301 65 26.5s24 48.834 30 93.501l43 316h-66v90h78
l15 111c8 60 29.833 103.667 65.5 131s77.167 41 124.5 41l61 -6l-12 -92c-10 3.33301 -23.667 5 -41 5c-26 0 -46.667 -7.16699 -62 -21.5s-25.333 -38.5 -30 -72.5l-14 -96h96v-90h-108z" />
    <glyph glyph-name="Aringacute" unicode="&#x1fa;" horiz-adv-x="645" 
d="M223 741c0 27.333 9.33398 49.668 28.001 67.001s42 26 70 26c29.333 0 53.166 -8.66699 71.499 -26s27.5 -39.333 27.5 -66c0 -28.667 -10 -52 -30 -70l245 -672h-112l-72 204h-256l-73 -204h-112l244 671c-20.667 17.333 -31 40.666 -31 69.999zM420.001 297.002
l-97 283l-97 -283h194zM269.001 855.002l69 143h116l-93 -143h-92zM282.001 741.002c0 -12 3.66602 -21.667 10.999 -29s17 -11 29 -11s21.5 3.66699 28.5 11s10.5 17.333 10.5 30c0 12 -3.66699 21.667 -11 29s-17 11 -29 11c-11.333 0 -20.666 -3.83301 -27.999 -11.5
s-11 -17.5 -11 -29.5z" />
    <glyph glyph-name="aringacute" unicode="&#x1fb;" horiz-adv-x="518" 
d="M29 161c0 50.667 18.668 92.001 56.001 124.001s86 48 146 48c55.333 0 97 -12.667 125 -38v49c0 30 -9.83301 53.5 -29.5 70.5s-46.834 25.5 -81.501 25.5c-48 0 -96.667 -13.667 -146 -41l-42 76c62 40 128.333 60 199 60c138.667 0 208 -66 208 -198v-337h-95l-9 39
c-31.333 -34.667 -76 -52 -134 -52c-56 0 -102.833 16.167 -140.5 48.5s-56.5 74.166 -56.5 125.499zM138.001 164.001c0 -26 10.3311 -47.5 30.998 -64.5s47.334 -25.5 80.001 -25.5c32 0 58.333 8.33301 79 25s31 38.334 31 65.001c0 27.333 -10.167 49.166 -30.5 65.499
s-47.166 24.5 -80.499 24.5c-32.667 0 -59.167 -8.5 -79.5 -25.5s-30.5 -38.5 -30.5 -64.5zM163.999 655.001c0 27.333 9.33496 49.666 28.002 66.999s42 26 70 26c29.333 0 53.166 -8.66699 71.499 -26s27.5 -39.333 27.5 -66c0 -27.333 -9.33301 -49.833 -28 -67.5
s-42.334 -26.5 -71.001 -26.5c-28 0 -51.333 8.83301 -70 26.5s-28 39.834 -28 66.501zM223.001 655.001c0 -12 3.66602 -21.667 10.999 -29s17 -11 29 -11s21.5 3.66699 28.5 11s10.5 17.333 10.5 30c0 12 -3.66699 21.667 -11 29s-17 11 -29 11
c-11.333 0 -20.666 -3.83301 -27.999 -11.5s-11 -17.5 -11 -29.5zM209 773.001l69 143h116l-93 -143h-92z" />
    <glyph glyph-name="AEacute" unicode="&#x1fc;" horiz-adv-x="835" 
d="M8 0l361 700h407v-100h-235v-195h203v-99h-203v-206h244v-100h-355v204h-201l-100 -204h-121zM420 600l-148 -303h158v303h-10zM455 741l69 143h116l-93 -143h-92z" />
    <glyph glyph-name="aeacute" unicode="&#x1fd;" horiz-adv-x="884" 
d="M138 164c0 -26 10.332 -47.5 30.999 -64.5s47.334 -25.5 80.001 -25.5c32 0 58 8.33301 78 25s30 38.334 30 65.001c0 27.333 -9.83301 49.166 -29.5 65.499s-46.167 24.5 -79.5 24.5c-32.667 0 -59.167 -8.5 -79.5 -25.5s-30.5 -38.5 -30.5 -64.5zM467.999 310h278
c-2 42 -16 74.833 -42 98.5s-58.333 35.5 -97 35.5c-37.333 0 -69 -12.167 -95 -36.5s-40.667 -56.833 -44 -97.5zM463.999 235c0.666992 -46 16.0029 -82.9971 46.0029 -110.997s68.333 -42 115 -42c63.333 0 111.666 24.333 144.999 73l71 -54
c-16 -28.667 -42.333 -54.834 -79 -78.501s-82.667 -35.5 -138 -35.5c-96.667 0 -167.667 33 -213 99c-34.667 -66 -96.334 -99 -185.001 -99c-56 0 -102.833 16.167 -140.5 48.5s-56.5 74.166 -56.5 125.499c0 50.667 18.667 92 56 124s86 48 146 48
c55.333 0 97 -12.667 125 -38v49c0 30 -9.83301 53.5 -29.5 70.5s-46.834 25.5 -81.501 25.5c-48 0 -96.667 -13.667 -146 -41l-42 76c62 40 128.333 60 199 60c84.667 0 141.667 -28 171 -84c45.333 56 105 84 179 84c78 0 139.333 -24.833 184 -74.5
s67 -115.834 67 -198.501c0 -12 -0.333008 -21 -1 -27h-392zM370.002 582.003l69 143h116l-93 -143h-92z" />
    <glyph glyph-name="Oslashacute" unicode="&#x1fe;" horiz-adv-x="791" 
d="M35 350c0 103.333 34 189.667 102 259s154 104 258 104c70 0 134 -17.667 192 -53l49 62l63 -50l-48 -62c70 -68.667 105 -155.334 105 -260.001c0 -103.333 -34.167 -189.666 -102.5 -258.999s-154.5 -104 -258.5 -104c-72.667 0 -137.667 17.667 -195 53l-49 -62
l-63 50l49 62c-68 69.333 -102 156 -102 260zM150 350.001c0 -66.667 19.666 -123.333 58.999 -170l310 394c-37.333 23.333 -78.666 35 -123.999 35c-70.667 0 -129.167 -24.667 -175.5 -74s-69.5 -111 -69.5 -185zM639.999 350.002c0 66.667 -19.999 123.667 -59.999 171
l-312 -395c37.333 -23.333 79.666 -35 126.999 -35c70 0 128.333 24.5 175 73.5s70 110.833 70 185.5zM334 741.002l69 143h116l-93 -143h-92z" />
    <glyph glyph-name="oslashacute" unicode="&#x1ff;" horiz-adv-x="603" 
d="M29 260c0 78.667 26.3311 144.167 78.998 196.5s118.334 78.5 197.001 78.5c52.667 0 100.667 -12.667 144 -38l38 48l56 -44l-37 -47c50.667 -52 76 -116.333 76 -193c0 -78.667 -26.333 -144 -79 -196s-118.667 -78 -198 -78c-51.333 0 -97.666 11.333 -138.999 34
l-39 -49l-55 44l37 46c-53.333 52 -80 118 -80 198zM138.998 260c0 -44.667 12.333 -82 37 -112l209 268c-24 14.667 -50.667 22 -80 22c-48.667 0 -88.5 -16.833 -119.5 -50.5s-46.5 -76.167 -46.5 -127.5zM472.998 261c0 40.667 -11.668 76.334 -35.001 107.001l-208 -266
c21.333 -12 46.333 -18 75 -18c48.667 0 88.834 16.667 120.501 50s47.5 75.666 47.5 126.999zM243.997 582l69 143h116l-93 -143h-92z" />
    <glyph glyph-name="Scommaaccent" unicode="&#x218;" horiz-adv-x="514" 
d="M28 145l94.002 44c25.333 -66 71 -99 137 -99c32 0 57.5 8.33301 76.5 25s28.5 39.667 28.5 69c0 26.667 -10.833 49.834 -32.5 69.501s-48 36.5 -79 50.5s-61.833 29 -92.5 45s-56.834 38.833 -78.501 68.5s-32.5 65.167 -32.5 106.5
c0 55.333 19.167 100.666 57.5 135.999s89.166 53 152.499 53c31.333 0 59.833 -5 85.5 -15s46.5 -23 62.5 -39s28.5 -31.167 37.5 -45.5s16.167 -28.833 21.5 -43.5l-92 -41c-26 54.667 -65 82 -117 82c-30 0 -53.667 -8.16699 -71 -24.5s-26 -36.833 -26 -61.5
c0 -21.333 7.83301 -40.5 23.5 -57.5s35.167 -30.833 58.5 -41.5s48.833 -23 76.5 -37s53.167 -28.5 76.5 -43.5s42.833 -35.667 58.5 -62s23.5 -56.833 23.5 -91.5c0 -60 -20.167 -109.167 -60.5 -147.5s-94.5 -57.5 -162.5 -57.5c-34 0 -64.667 5.16699 -92 15.5
s-49.833 24 -67.5 41s-31.667 33.667 -42 50s-18.5 33.5 -24.5 51.5zM190.002 -94c0 17.333 6.16895 32.167 18.502 44.5s27.166 18.5 44.499 18.5c19.333 0 35.333 -6.66699 48 -20s19 -30.666 19 -51.999c0 -64.667 -27.667 -118.334 -83 -161.001l-41 42
c25.333 20.667 40.666 42.667 45.999 66c-16 2.66699 -28.667 10 -38 22s-14 25.333 -14 40z" />
    <glyph glyph-name="scommaaccent" unicode="&#x219;" horiz-adv-x="426" 
d="M24 91l68.001 53.999c31.333 -45.333 73 -68 125 -68c24 0 43.333 5.66699 58 17s22 27.333 22 48c0 18 -8.66699 33.333 -26 46s-38.5 23.5 -63.5 32.5s-50 19.167 -75 30.5s-46.167 28.5 -63.5 51.5s-26 51.167 -26 84.5c0 45.333 16.833 81.333 50.5 108
s76.5 40 128.5 40c44 0 80.167 -9.83301 108.5 -29.5s48.833 -42.167 61.5 -67.5l-75 -50c-24 38.667 -57.667 58 -101 58c-20.667 0 -37.5 -5.16699 -50.5 -15.5s-19.5 -24.166 -19.5 -41.499c0 -18 8.83301 -33 26.5 -45s38.834 -22.333 63.501 -31s49.5 -18.5 74.5 -29.5
s46.333 -28 64 -51s26.5 -51.5 26.5 -85.5c0 -48 -17.833 -86.667 -53.5 -116s-80.834 -44 -135.501 -44c-86.667 0 -149.334 34.667 -188.001 104zM153.001 -94.001c0 17.333 6.16895 32.167 18.502 44.5s27.166 18.5 44.499 18.5c19.333 0 35.333 -6.66699 48 -20
s19 -30.666 19 -51.999c0 -64.667 -27.667 -118.334 -83 -161.001l-41 42c25.333 20.667 40.666 42.667 45.999 66c-16 2.66699 -28.667 10 -38 22s-14 25.333 -14 40z" />
    <glyph glyph-name="dotlessj" unicode="&#x237;" 
d="M61 -8v530h109v-534c0 -119.333 -60.667 -179 -182 -179l-30 2v92c9.33301 -0.666992 17 -1 23 -1c53.333 0 80 30 80 90z" />
    <glyph glyph-name="circumflex" unicode="&#x2c6;" horiz-adv-x="448" 
d="M279 589l-55 77l-55 -77h-96l95 135h112l94 -135h-95z" />
    <glyph glyph-name="caron" unicode="&#x2c7;" horiz-adv-x="448" 
d="M224 648l55 76h95l-94 -135h-112l-95 135h96z" />
    <glyph glyph-name="breve" unicode="&#x2d8;" horiz-adv-x="448" 
d="M223 584c-44 0 -78.167 12.5 -102.5 37.5s-36.5 57.5 -36.5 97.5h81c0 -44.667 19.333 -67 58 -67c39.333 0 59 22.333 59 67h81c0 -40 -12.333 -72.5 -37 -97.5s-59 -37.5 -103 -37.5z" />
    <glyph glyph-name="dotaccent" unicode="&#x2d9;" horiz-adv-x="448" 
d="M156 651c0 19.333 6.66699 35.5 20 48.5s29.333 19.5 48 19.5s34.667 -6.5 48 -19.5s20 -29.167 20 -48.5s-6.66699 -35.5 -20 -48.5s-29.333 -19.5 -48 -19.5s-34.667 6.5 -48 19.5s-20 29.167 -20 48.5z" />
    <glyph glyph-name="ring" unicode="&#x2da;" horiz-adv-x="448" 
d="M125 664c0 27.333 9.33496 49.666 28.002 66.999s42 26 70 26c29.333 0 53.166 -8.66699 71.499 -26s27.5 -39.333 27.5 -66c0 -27.333 -9.33301 -49.833 -28 -67.5s-42.334 -26.5 -71.001 -26.5c-28 0 -51.333 8.83301 -70 26.5s-28 39.834 -28 66.501zM184.002 664
c0 -12 3.66602 -21.667 10.999 -29s17 -11 29 -11s21.5 3.66699 28.5 11s10.5 17.333 10.5 30c0 12 -3.66699 21.667 -11 29s-17 11 -29 11c-11.333 0 -20.666 -3.83301 -27.999 -11.5s-11 -17.5 -11 -29.5z" />
    <glyph glyph-name="ogonek" unicode="&#x2db;" horiz-adv-x="448" 
d="M146 -105c0 24 7.99902 45.333 23.999 64s33.333 32.334 52 41.001h80c-7.33301 -2.66699 -15.166 -6.66699 -23.499 -12s-17 -13.833 -26 -25.5s-13.5 -23.834 -13.5 -36.501s4.66699 -22.667 14 -30s21.333 -11 36 -11v-85c-8 -1.33301 -16.333 -2 -25 -2
c-32 0 -59.667 8.16699 -83 24.5s-35 40.5 -35 72.5z" />
    <glyph glyph-name="tilde" unicode="&#x2dc;" horiz-adv-x="448" 
d="M290 594c-18.667 0 -41.667 6.83398 -69 20.501s-46.333 20.5 -57 20.5c-22 0 -33.667 -13.667 -35 -41h-72c0 36 9.5 65 28.5 87s43.5 33 73.5 33c19.333 0 42.333 -6.83301 69 -20.5s45 -20.5 55 -20.5c10.667 0 19.167 3.66699 25.5 11s9.5 17.333 9.5 30h72
c0 -36.667 -9.16699 -65.834 -27.5 -87.501s-42.5 -32.5 -72.5 -32.5z" />
    <glyph glyph-name="hungarumlaut" unicode="&#x2dd;" horiz-adv-x="461" 
d="M220 582l70 143h107l-92 -143h-85zM64 582l69 143h108l-93 -143h-84z" />
    <glyph glyph-name="Wgrave" unicode="&#x1e80;" horiz-adv-x="960" 
d="M631 0l-151 534l-151 -534h-125l-194 700h119l143 -562l155 562h105l156 -562l143 562h118l-193 -700h-125zM451 884l70 -143h-93l-92 143h115z" />
    <glyph glyph-name="wgrave" unicode="&#x1e81;" horiz-adv-x="822" 
d="M528 0l-117 374l-118 -374h-120l-166 522h118l114 -400c0.666992 2 40.667 135.333 120 400h104l119 -400l115 400h118l-166 -522h-121zM389 725l70 -143h-93l-92 143h115z" />
    <glyph glyph-name="Wacute" unicode="&#x1e82;" horiz-adv-x="960" 
d="M631 0l-151 534l-151 -534h-125l-194 700h119l143 -562l155 562h105l156 -562l143 562h118l-193 -700h-125zM417 741l69 143h116l-93 -143h-92z" />
    <glyph glyph-name="wacute" unicode="&#x1e83;" horiz-adv-x="822" 
d="M528 0l-117 374l-118 -374h-120l-166 522h118l114 -400c0.666992 2 40.667 135.333 120 400h104l119 -400l115 400h118l-166 -522h-121zM359 582l69 143h116l-93 -143h-92z" />
    <glyph glyph-name="Wdieresis" unicode="&#x1e84;" horiz-adv-x="960" 
d="M631 0l-151 534l-151 -534h-125l-194 700h119l143 -562l155 562h105l156 -562l143 562h118l-193 -700h-125zM510 812c0 16.667 5.5 30.667 16.5 42s25.167 17 42.5 17c16.667 0 30.667 -5.83301 42 -17.5s17 -25.5 17 -41.5c0 -16.667 -5.66699 -30.667 -17 -42
s-25.333 -17 -42 -17c-17.333 0 -31.5 5.66699 -42.5 17s-16.5 25.333 -16.5 42zM335 812c0 16 5.66699 29.833 17 41.5s25.333 17.5 42 17.5s30.667 -5.83301 42 -17.5s17 -25.5 17 -41.5c0 -16.667 -5.66699 -30.667 -17 -42s-25.333 -17 -42 -17s-30.667 5.66699 -42 17
s-17 25.333 -17 42z" />
    <glyph glyph-name="wdieresis" unicode="&#x1e85;" horiz-adv-x="822" 
d="M528 0l-117 374l-118 -374h-120l-166 522h118l114 -400c0.666992 2 40.667 135.333 120 400h104l119 -400l115 400h118l-166 -522h-121zM439 653c0 16.667 5.5 30.667 16.5 42s25.167 17 42.5 17c16.667 0 30.667 -5.83301 42 -17.5s17 -25.5 17 -41.5
c0 -16.667 -5.66699 -30.667 -17 -42s-25.333 -17 -42 -17c-17.333 0 -31.5 5.66699 -42.5 17s-16.5 25.333 -16.5 42zM264 653c0 16 5.66699 29.833 17 41.5s25.333 17.5 42 17.5s30.667 -5.83301 42 -17.5s17 -25.5 17 -41.5c0 -16.667 -5.66699 -30.667 -17 -42
s-25.333 -17 -42 -17s-30.667 5.66699 -42 17s-17 25.333 -17 42z" />
    <glyph glyph-name="Ygrave" unicode="&#x1ef2;" horiz-adv-x="558" 
d="M224 0v324l-216 376h126l145 -273l148 273h123l-216 -376v-324h-110zM267 884l70 -143h-93l-92 143h115z" />
    <glyph glyph-name="ygrave" unicode="&#x1ef3;" horiz-adv-x="527" 
d="M244 -179h-105l74 188l-207 513h117l141 -380l139 380h114zM262 725l70 -143h-93l-92 143h115z" />
    <glyph glyph-name="endash" unicode="&#x2013;" horiz-adv-x="624" 
d="M43 259v91h538v-91h-538z" />
    <glyph glyph-name="emdash" unicode="&#x2014;" horiz-adv-x="892" 
d="M43 259v91h805v-91h-805z" />
    <glyph glyph-name="quoteleft" unicode="&#x2018;" horiz-adv-x="205" 
d="M173 530c0 -19.333 -6.83301 -36.001 -20.5 -50.001s-30.167 -21 -49.5 -21c-20.667 0 -38 6.83301 -52 20.5s-21 32.5 -21 56.5c0 76.667 31.333 139.334 94 188.001l46 -48c-12 -8 -23.833 -19.167 -35.5 -33.5s-18.5 -28.833 -20.5 -43.5
c18 -3.33301 32.333 -11.5 43 -24.5s16 -27.833 16 -44.5z" />
    <glyph glyph-name="quoteright" unicode="&#x2019;" horiz-adv-x="205" 
d="M32 653c0 19.333 6.66699 36.001 20 50.001s29.666 21 48.999 21c21.333 0 38.833 -6.83301 52.5 -20.5s20.5 -32.167 20.5 -55.5c0 -77.333 -31.333 -140.333 -94 -189l-46 48c32.667 23.333 51.334 49 56.001 77c-18 3.33301 -32.167 11.666 -42.5 24.999
s-15.5 28 -15.5 44z" />
    <glyph glyph-name="quotesinglbase" unicode="&#x201a;" horiz-adv-x="228" 
d="M43 57c0 19.333 6.83203 36.001 20.499 50.001s30.167 21 49.5 21c20.667 0 38 -6.83301 52 -20.5s21 -32.167 21 -55.5c0 -76 -31.333 -139 -94 -189l-46 48c32.667 23.333 51.334 49 56.001 77c-18 3.33301 -32.333 11.666 -43 24.999s-16 28 -16 44z" />
    <glyph glyph-name="quotedblleft" unicode="&#x201c;" horiz-adv-x="379" 
d="M173 530c0 -19.333 -6.83301 -36.001 -20.5 -50.001s-30.167 -21 -49.5 -21c-20.667 0 -38 6.83301 -52 20.5s-21 32.5 -21 56.5c0 76.667 31.333 139.334 94 188.001l46 -48c-12 -8 -23.833 -19.167 -35.5 -33.5s-18.5 -28.833 -20.5 -43.5
c18 -3.33301 32.333 -11.5 43 -24.5s16 -27.833 16 -44.5zM347 529.999c0 -19.333 -6.83301 -36.001 -20.5 -50.001s-30.167 -21 -49.5 -21c-20.667 0 -38 6.83301 -52 20.5s-21 32.5 -21 56.5c0 76.667 31.333 139.334 94 188.001l46 -48
c-12 -8 -23.833 -19.167 -35.5 -33.5s-18.5 -28.833 -20.5 -43.5c18 -3.33301 32.333 -11.5 43 -24.5s16 -27.833 16 -44.5z" />
    <glyph glyph-name="quotedblright" unicode="&#x201d;" horiz-adv-x="379" 
d="M206 653c0 19.333 6.66699 36.001 20 50.001s29.666 21 48.999 21c21.333 0 38.833 -6.83301 52.5 -20.5s20.5 -32.167 20.5 -55.5c0 -77.333 -31.333 -140.333 -94 -189l-46 48c32.667 23.333 51.334 49 56.001 77c-18 3.33301 -32.167 11.666 -42.5 24.999
s-15.5 28 -15.5 44zM32 653.001c0 19.333 6.66699 36.001 20 50.001s29.666 21 48.999 21c21.333 0 38.833 -6.83301 52.5 -20.5s20.5 -32.167 20.5 -55.5c0 -77.333 -31.333 -140.333 -94 -189l-46 48c32.667 23.333 51.334 49 56.001 77
c-18 3.33301 -32.167 11.666 -42.5 24.999s-15.5 28 -15.5 44z" />
    <glyph glyph-name="quotedblbase" unicode="&#x201e;" horiz-adv-x="379" 
d="M206 57c0 19.333 6.66699 36.001 20 50.001s29.666 21 48.999 21c21.333 0 38.833 -6.83301 52.5 -20.5s20.5 -32.167 20.5 -55.5c0 -77.333 -31.333 -140.333 -94 -189l-46 48c32.667 23.333 51.334 49 56.001 77c-18 3.33301 -32.167 11.666 -42.5 24.999
s-15.5 28 -15.5 44zM32 57.001c0 19.333 6.66699 36.001 20 50.001s29.666 21 48.999 21c21.333 0 38.833 -6.83301 52.5 -20.5s20.5 -32.167 20.5 -55.5c0 -77.333 -31.333 -140.333 -94 -189l-46 48c32.667 23.333 51.334 49 56.001 77
c-18 3.33301 -32.167 11.666 -42.5 24.999s-15.5 28 -15.5 44z" />
    <glyph glyph-name="dagger" unicode="&#x2020;" horiz-adv-x="402" 
d="M146 0v436h-116v95h116v169h107v-169h118v-95h-118v-436h-107z" />
    <glyph glyph-name="daggerdbl" unicode="&#x2021;" horiz-adv-x="399" 
d="M30 179v95h116v151h-116v95h116v180h107v-180h118v-95h-118v-151h118v-95h-118v-179h-107v179h-116z" />
    <glyph glyph-name="bullet" unicode="&#x2022;" horiz-adv-x="406" 
d="M203 138c-49.333 0 -90.333 16.667 -123 50s-49 74 -49 122s16.333 88.667 49 122s73.667 50 123 50s90.333 -16.667 123 -50s49 -74 49 -122s-16.333 -88.667 -49 -122s-73.667 -50 -123 -50z" />
    <glyph glyph-name="perthousand" unicode="&#x2030;" horiz-adv-x="1155" 
d="M71 0l531 700h108l-532 -700h-107zM196 394c-46.667 0 -85.332 15.1689 -115.999 45.502s-46 68.166 -46 113.499c0 44.667 15.333 82.5 46 113.5s69 46.5 115 46.5c47.333 0 86.666 -15.5 117.999 -46.5s47 -68.833 47 -113.5s-15.5 -82.334 -46.5 -113.001
s-70.167 -46 -117.5 -46zM197.002 474.002c23.333 0 42.001 7.5 56.001 22.5s21 33.833 21 56.5c0 22 -7.33301 40.667 -22 56s-33.334 23 -56.001 23s-41 -7.5 -55 -22.5s-21 -33.833 -21 -56.5c0 -22 7.33301 -40.667 22 -56s33 -23 55 -23zM419.003 146.002
c0 44.667 15.501 82.502 46.501 113.502s69.5 46.5 115.5 46.5c47.333 0 86.666 -15.5 117.999 -46.5s47 -68.833 47 -113.5s-15.667 -82.334 -47 -113.001s-70.333 -46 -117 -46s-85.5 15.167 -116.5 45.5s-46.5 68.166 -46.5 113.499zM505.004 146.004
c0 -22.667 7.16602 -41.5 21.499 -56.5s32.833 -22.5 55.5 -22.5c23.333 0 42 7.5 56 22.5s21 33.833 21 56.5s-7.16699 41.5 -21.5 56.5s-33.166 22.5 -56.499 22.5c-22 0 -40.167 -7.66699 -54.5 -23s-21.5 -34 -21.5 -56zM794.003 146.004
c0 44.667 15.501 82.502 46.501 113.502s69.5 46.5 115.5 46.5c47.333 0 86.666 -15.5 117.999 -46.5s47 -68.833 47 -113.5s-15.667 -82.334 -47 -113.001s-70.333 -46 -117 -46s-85.5 15.167 -116.5 45.5s-46.5 68.166 -46.5 113.499zM880.004 146.006
c0 -22.667 7.16602 -41.5 21.499 -56.5s32.833 -22.5 55.5 -22.5c23.333 0 42 7.5 56 22.5s21 33.833 21 56.5s-7.16699 41.5 -21.5 56.5s-33.166 22.5 -56.499 22.5c-22 0 -40.167 -7.66699 -54.5 -23s-21.5 -34 -21.5 -56z" />
    <glyph glyph-name="guilsinglleft" unicode="&#x2039;" horiz-adv-x="286" 
d="M154 108l-123 185l123 186h100l-123 -186l123 -185h-100z" />
    <glyph glyph-name="guilsinglright" unicode="&#x203a;" horiz-adv-x="286" 
d="M254 293l-123 -185h-100l123 185l-123 186h100z" />
    <glyph glyph-name="fraction" unicode="&#x2044;" horiz-adv-x="440" 
d="M77 -41h-96l382 782h96z" />
    <glyph glyph-name="Euro" unicode="&#x20ac;" horiz-adv-x="636" 
d="M26 240l0.00390625 75.999h51c-1.33301 10.667 -2 22 -2 34c0 14 0.666992 27.667 2 41h-51v76h66c21.333 72 61.166 131 119.499 177s126.166 69 203.499 69c71.333 0 129.666 -14.667 174.999 -44l-46 -90c-38.667 21.333 -80 32 -124 32
c-48.667 0 -91.334 -13.167 -128.001 -39.5s-63 -61.166 -79 -104.499h249l-7 -76h-261c-2 -13.333 -3 -26.666 -3 -39.999c0 -12.667 1 -24.334 3 -35.001h255l-7 -76h-226c15.333 -44 41.333 -79.667 78 -107s79.667 -41 129 -41c52.667 0 96.667 12 132 36l44 -89
c-14.667 -12.667 -38 -24.5 -70 -35.5s-67 -16.5 -105 -16.5c-84 0 -155.5 23.667 -214.5 71s-98.5 108 -118.5 182h-65z" />
    <glyph glyph-name="numero" unicode="&#x2116;" horiz-adv-x="1132" 
d="M803 532c0 -27.333 8.66992 -50.333 26.0029 -69s40.666 -28 69.999 -28c28 0 51 9.5 69 28.5s27 41.833 27 68.5c0 27.333 -8.83301 50.666 -26.5 69.999s-40.834 29 -69.501 29s-51.834 -9.66699 -69.501 -29s-26.5 -42.666 -26.5 -69.999zM717.003 532
c0 50 17 92.667 51 128s77.667 53 131 53s97 -17.667 131 -53s51 -78 51 -128s-17 -92.333 -51 -127s-77.667 -52 -131 -52s-97 17.333 -131 52s-51 77 -51 127zM72.0029 0v700h112l343 -526v526h109v-700h-110l-344 523v-523h-110zM731.003 202v92h335v-92h-335z" />
    <glyph glyph-name="trademark" unicode="&#x2122;" horiz-adv-x="753" 
d="M121 340v290h-90v70h257v-70h-90v-290h-77zM559 380h-72l-88 194v-234h-75v360h96l103 -231l103 231h96v-360h-74v234z" />
    <glyph glyph-name="minus" unicode="&#x2212;" horiz-adv-x="550" 
d="M38 267v89h474v-89h-474z" />
    <glyph glyph-name="commaaccent" unicode="&#xf6c3;" horiz-adv-x="261" 
d="M66 -94c0 17.333 6.16895 32.167 18.502 44.5s27.166 18.5 44.499 18.5c19.333 0 35.333 -6.66699 48 -20s19 -30.666 19 -51.999c0 -64.667 -27.667 -118.334 -83 -161.001l-41 42c25.333 20.667 40.666 42.667 45.999 66c-16 2.66699 -28.667 10 -38 22
s-14 25.333 -14 40z" />
    <glyph glyph-name=".null" horiz-adv-x="0" 
 />
    <glyph glyph-name="nonmarkingreturn" horiz-adv-x="333" 
 />
    <glyph glyph-name="hyphen.caps" horiz-adv-x="354" 
d="M43 300v99h267v-99h-267z" />
    <glyph glyph-name="endash.caps" horiz-adv-x="624" 
d="M43 307v91h538v-91h-538z" />
    <glyph glyph-name="emdash.caps" horiz-adv-x="892" 
d="M43 307v91h805v-91h-805z" />
    <glyph glyph-name="guillemotleft.caps" horiz-adv-x="459" 
d="M204 357l124 186h100l-124 -186l124 -185h-100zM154 172l-123 185l123 186h100l-123 -186l123 -185h-100z" />
    <glyph glyph-name="guillemotright.caps" horiz-adv-x="459" 
d="M131 543l124 -186l-124 -185h-100l124 185l-124 186h100zM428 357l-123 -185h-100l123 185l-123 186h100z" />
    <glyph glyph-name="guilsinglleft.caps" horiz-adv-x="286" 
d="M154 172l-123 185l123 186h100l-123 -186l123 -185h-100z" />
    <glyph glyph-name="guilsinglright.caps" horiz-adv-x="286" 
d="M131 543l124 -186l-124 -185h-100l124 185l-124 186h100z" />
    <glyph glyph-name="parenleft.caps" horiz-adv-x="319" 
d="M164 631v-567c0 -58 28.333 -87 85 -87v-94c-128.667 0 -193 64.333 -193 193v543c0 128.667 64.333 193 193 193v-94c-56.667 0 -85 -29 -85 -87z" />
    <glyph glyph-name="parenright.caps" horiz-adv-x="319" 
d="M155 64v567c0 58 -28.333 87 -85 87v94c128.667 0 193 -64.333 193 -193v-543c0 -128.667 -64.333 -193 -193 -193v94c56.667 0 85 29 85 87z" />
    <glyph glyph-name="bracketleft.caps" horiz-adv-x="319" 
d="M56 -117v929h193v-94h-85v-741h85v-94h-193z" />
    <glyph glyph-name="bracketright.caps" horiz-adv-x="316" 
d="M263 812v-929h-193v94h85v741h-85v94h193z" />
    <glyph glyph-name="braceleft.caps" horiz-adv-x="368" 
d="M105 76l0.000976562 106.998c0 42 -6.16699 71.5 -18.5 88.5s-30.5 25.5 -54.5 25.5v101c25.333 0 43.833 8.33301 55.5 25s17.5 46.334 17.5 89.001v107c0 128.667 64.333 193 193 193v-94c-56.667 0 -85 -29 -85 -87v-153c0 -22 -2.83301 -41.667 -8.5 -59
s-12.834 -30.666 -21.501 -39.999s-16.5 -16.5 -23.5 -21.5s-13.5 -8.5 -19.5 -10.5c15.333 -4 31.333 -16.667 48 -38s25 -52 25 -92v-153c0 -58 28.333 -87 85 -87v-94c-128.667 0 -193 64.333 -193 193z" />
    <glyph glyph-name="bar.caps" horiz-adv-x="267" 
d="M82 -187v1025h103v-1025h-103z" />
    <glyph glyph-name="braceright.caps" horiz-adv-x="367" 
d="M263 183l0.000976562 -106.998c0 -128.667 -64.333 -193 -193 -193v94c56.667 0 85 29 85 87v153c0 40 8.33301 70.667 25 92s32.667 34 48 38c-6 2 -12.5 5.5 -19.5 10.5s-14.833 12.167 -23.5 21.5s-15.834 22.666 -21.501 39.999s-8.5 37 -8.5 59v153
c0 58 -28.333 87 -85 87v94c128.667 0 193 -64.333 193 -193v-107c0 -42.667 5.83301 -72.334 17.5 -89.001s30.167 -25 55.5 -25v-101c-24 0 -42.167 -8.5 -54.5 -25.5s-18.5 -46.5 -18.5 -88.5z" />
    <glyph glyph-name="slash.caps" horiz-adv-x="439" 
d="M20 -81l302 858h97l-302 -858h-97z" />
    <glyph glyph-name="backslash.caps" horiz-adv-x="439" 
d="M117 777l302 -858h-97l-302 858h97z" />
    <glyph glyph-name="exclamdown.caps" horiz-adv-x="275" 
d="M81 0l8 512h97l9 -512h-114zM67 642c0 19.333 7 36 21 50s30.667 21 50 21s36 -7 50 -21s21 -30.667 21 -50s-7 -36 -21 -50s-30.667 -21 -50 -21s-36 7 -50 21s-21 30.667 -21 50z" />
    <glyph glyph-name="questiondown.caps" horiz-adv-x="475" 
d="M313 512l-0.000976562 -48.001c0 -25.333 -5.66699 -48.666 -17 -69.999s-25.166 -39.833 -41.499 -55.5l-49.5 -46.5c-16.667 -15.333 -30.667 -32.333 -42 -51s-17 -38.334 -17 -59.001c0 -28.667 9 -52.167 27 -70.5s43 -27.5 75 -27.5c48 0 83.667 25 107 75l85 -39
c-12 -34.667 -34 -65.5 -66 -92.5s-75.667 -40.5 -131 -40.5c-62.667 0 -113.167 17.667 -151.5 53s-57.5 81 -57.5 137c0 28.667 6 55.167 18 79.5s26.5 44.833 43.5 61.5l50.5 47.5c16.667 15 31 31.333 43 49s18 35.834 18 54.501v43h106zM329.999 641.999
c0 -19.333 -6.83301 -36 -20.5 -50s-30.167 -21 -49.5 -21s-36 7 -50 21s-21 30.667 -21 50s7 36 21 50s30.667 21 50 21s35.833 -7 49.5 -21s20.5 -30.667 20.5 -50z" />
    <glyph glyph-name="periodcentered.caps" horiz-adv-x="238" 
d="M48 356c0 19.333 6.83301 36 20.5 50s30.167 21 49.5 21s36 -7 50 -21s21 -30.667 21 -50s-7 -36 -21 -50s-30.667 -21 -50 -21s-35.833 7 -49.5 21s-20.5 30.667 -20.5 50z" />
    <glyph glyph-name="bullet.caps" horiz-adv-x="406" 
d="M203 182c-49.333 0 -90.333 16.667 -123 50s-49 74 -49 122s16.333 88.667 49 122s73.667 50 123 50s90.333 -16.667 123 -50s49 -74 49 -122s-16.333 -88.667 -49 -122s-73.667 -50 -123 -50z" />
    <glyph glyph-name="zero.tab" horiz-adv-x="574" 
d="M520 350c0 -122 -17.833 -213 -53.5 -273s-95.834 -90 -180.501 -90s-144.667 30 -180 90s-53 151 -53 273s17.667 213 53 273s95.333 90 180 90s144.834 -30 180.501 -90s53.5 -151 53.5 -273zM165 350c0 -34.667 0.666016 -63.8291 1.99902 -87.4961
s4.5 -47.167 9.5 -70.5s11.833 -41.833 20.5 -55.5s20.334 -24.667 35.001 -33s32.667 -12.5 54 -12.5s39.5 4.16699 54.5 12.5s26.833 19.333 35.5 33s15.334 32.167 20.001 55.5s7.66699 46.666 9 69.999s2 52.666 2 87.999s-0.666992 64.666 -2 87.999
s-4.33301 46.666 -9 69.999s-11.334 41.833 -20.001 55.5s-20.5 24.667 -35.5 33s-33.167 12.5 -54.5 12.5c-26 0 -47.333 -5.83301 -64 -17.5s-29 -30 -37 -55s-13.333 -51.333 -16 -79s-4 -63.5 -4 -107.5z" />
    <glyph glyph-name="one.tab" horiz-adv-x="574" 
d="M504 0h-415v100h163v490l-142 -64l-40 85l202 89h90v-600h142v-100z" />
    <glyph glyph-name="two.tab" horiz-adv-x="574" 
d="M63 0l-0.00390625 40.0059c0 36.667 11.167 72.834 33.5 108.501s49.333 68 81 97l95.5 85c32 27.667 59.167 56.667 81.5 87s33.5 59.5 33.5 87.5c0 31.333 -10 56.666 -30 75.999s-47 29 -81 29c-60.667 0 -99.667 -31.667 -117 -95l-97 28c4 18 10.667 36 20 54
s22.333 36.167 39 54.5s38.834 33.166 66.501 44.499s58.5 17 92.5 17c66.667 0 120 -18.833 160 -56.5s60 -86.834 60 -147.501c0 -36.667 -10 -72.334 -30 -107.001s-44.667 -65.334 -74 -92.001s-58.666 -51.834 -87.999 -75.501s-55.166 -47.334 -77.499 -71.001
s-35.166 -45.5 -38.499 -65.5h317v-98h-447z" />
    <glyph glyph-name="three.tab" horiz-adv-x="574" 
d="M487 700l0.000976562 -100l-164 -183c52 0 96.833 -17.5 134.5 -52.5s56.5 -86.167 56.5 -153.5c0 -64.667 -21.833 -118.167 -65.5 -160.5s-98.5 -63.5 -164.5 -63.5c-65.333 0 -116.333 16.167 -153 48.5s-60.667 70.5 -72 114.5l95 31c19.333 -61.333 62 -92 128 -92
c34.667 0 63.167 11.167 85.5 33.5s33.5 50.833 33.5 85.5c0 36 -10.833 64.167 -32.5 84.5s-52.834 30.5 -93.501 30.5h-79v87l166 192h-278v98h403z" />
    <glyph glyph-name="four.tab" horiz-adv-x="574" 
d="M29 170v81l303 449h125v-434h87v-96h-87v-170h-109v170h-319zM146 266h202v303z" />
    <glyph glyph-name="five.tab" horiz-adv-x="574" 
d="M283 89c36.667 0 66.001 12.667 88.001 38s33 57.333 33 96c0 37.333 -11.333 68.833 -34 94.5s-54.334 38.5 -95.001 38.5c-36.667 0 -70 -13.667 -100 -41l-92 15l15 370h376v-99h-277l-8 -179c31.333 19.333 67.333 29 108 29c62.667 0 114.834 -20.5 156.501 -61.5
s62.5 -94.167 62.5 -159.5c0 -70 -21.333 -128 -64 -174s-97.334 -69 -164.001 -69c-64.667 0 -116.167 16.333 -154.5 49s-63.5 70.667 -75.5 114l96 31c18 -61.333 61 -92 129 -92z" />
    <glyph glyph-name="six.tab" horiz-adv-x="574" 
d="M293 91c36 0 64.332 12.001 84.999 36.001s31 57.667 31 101c0 39.333 -10.167 71.166 -30.5 95.499s-49.5 36.5 -87.5 36.5c-52 0 -93.333 -25.333 -124 -76c0 -28.667 1.33301 -53.167 4 -73.5s8.16699 -40.333 16.5 -60s21.333 -34.5 39 -44.5s39.834 -15 66.501 -15z
M326.999 713.001c59.333 0 112.998 -16.0029 160.998 -48.0029l-46 -88c-31.333 21.333 -67.666 32 -108.999 32c-40.667 0 -73.667 -11.833 -99 -35.5s-42 -50.167 -50 -79.5s-12 -61.333 -12 -96c32.667 41.333 79.334 62 140.001 62
c63.333 0 113.666 -20.667 150.999 -62s56 -97 56 -167c0 -74 -20.667 -133.167 -62 -177.5s-96.666 -66.5 -165.999 -66.5c-44.667 0 -82.834 7.83301 -114.501 23.5s-56.167 38.334 -73.5 68.001s-29.666 62.334 -36.999 98.001s-11 76.834 -11 123.501
c0 275.333 90.667 413 272 413z" />
    <glyph glyph-name="seven.tab" horiz-adv-x="574" 
d="M59 700h455v-81l-247 -619h-119l244 601h-333v99z" />
    <glyph glyph-name="eight.tab" horiz-adv-x="574" 
d="M286 -13c-71.333 0 -128.667 19.5 -172 58.5s-65 90.833 -65 155.5c0 43.333 11 79.5 33 108.5s46.667 50.167 74 63.5c-22 12.667 -41.833 31.834 -59.5 57.501s-26.5 55.5 -26.5 89.5c0 57.333 20 103.833 60 139.5s92 53.5 156 53.5s116.167 -18 156.5 -54
s60.5 -82.333 60.5 -139c0 -34 -9 -63.833 -27 -89.5s-38 -44.834 -60 -57.501c28 -13.333 53 -34.5 75 -63.5s33 -65.167 33 -108.5c0 -64 -22 -115.667 -66 -155s-101.333 -59 -172 -59zM285.999 318c-36.667 0 -66.5 -10.5 -89.5 -31.5s-34.5 -49.167 -34.5 -84.5
c0 -32 11 -59 33 -81s52.333 -33 91 -33s69 11 91 33s33 49 33 81c0 35.333 -11.5 63.5 -34.5 84.5s-52.833 31.5 -89.5 31.5zM285.999 416c30.667 0 55.998 9.5 75.998 28.5s30 42.5 30 70.5s-9.33301 51.167 -28 69.5s-44.667 27.5 -78 27.5
s-59.166 -9.16699 -77.499 -27.5s-27.5 -41.5 -27.5 -69.5s9.83301 -51.5 29.5 -70.5s44.834 -28.5 75.501 -28.5z" />
    <glyph glyph-name="nine.tab" horiz-adv-x="574" 
d="M281 609c-36 0 -64.332 -12.001 -84.999 -36.001s-31 -57.667 -31 -101c0 -39.333 10.167 -71.166 30.5 -95.499s49.5 -36.5 87.5 -36.5c52 0 93.333 25.333 124 76c0 28.667 -1.33301 53.167 -4 73.5s-8.16699 40.333 -16.5 60s-21.333 34.5 -39 44.5
s-39.834 15 -66.501 15zM247.001 -13.001c-59.333 0 -112.998 16.0029 -160.998 48.0029l46 88c31.333 -21.333 67.666 -32 108.999 -32c40.667 0 73.667 11.833 99 35.5s42 50.167 50 79.5s12 61.333 12 96c-32.667 -41.333 -79.334 -62 -140.001 -62
c-63.333 0 -113.666 20.667 -150.999 62s-56 97 -56 167c0 74 20.667 133.167 62 177.5s96.666 66.5 165.999 66.5c44.667 0 82.834 -7.83301 114.501 -23.5s56.167 -38.334 73.5 -68.001s29.666 -62.334 36.999 -98.001s11 -76.834 11 -123.501
c0 -275.333 -90.667 -413 -272 -413z" />
    </font>
</defs>
</svg>
