<?xml version="1.0" encoding="UTF-8"?>
<svg width="108px" height="74px" viewBox="0 0 108 74" version="1.1" xmlns="http://www.w3.org/2000/svg" xmlns:xlink="http://www.w3.org/1999/xlink">
    <!-- Generator: Sketch 50.2 (55047) - http://www.bohemiancoding.com/sketch -->
    <title>hat copy</title>
    <desc>Created with Sketch.</desc>
    <defs></defs>
    <g id="second-page" stroke="none" stroke-width="1" fill="none" fill-rule="evenodd">
        <g id="Artboard" transform="translate(-302.000000, -334.000000)" stroke="#2C3846" stroke-width="2">
            <g id="hat-copy" transform="translate(303.000000, 335.000000)">
                <path d="M20.3393413,42.1125668 C22.1864116,26.6962919 27.7601907,0.951711851 39.2470588,0.951711851 C43.7185662,0.951711851 45.6088235,2.66257665 47.4360295,4.31684147 C48.8617647,5.60706512 50.479228,7.07094793 53,7.07094793 C55.520772,7.07094793 57.1382353,5.60706512 58.5639705,4.31684147 C60.3911765,2.66257665 62.2814338,0.951711851 66.7529412,0.951711851 C78.2008043,0.951711851 84.0515404,26.7619768 85.9137303,42.1125668" id="Path" stroke-linecap="round"></path>
                <path d="M86.2323529,46.1226498 C86.2323529,52.7474272 73.2334558,57.0284484 53.1161765,57.0284484 C33.0555147,57.0284484 20.0733456,52.7718681 20,46.1779635 C20.0563763,45.2690666 20.1352711,44.252919 20.2335478,43.1638506 C25.4237937,45.0022264 38.2455997,48.8780427 54.1082721,48.8780427 C63.9346507,48.8780427 74.9286076,47.3848951 85.9882698,43 C86.0917738,44.1328047 86.1745289,45.1874629 86.2323529,46.1226498 Z" id="Path"></path>
                <path d="M87.9094439,30.9127498 C98.6880285,35.3202368 105.047059,41.5916658 105.047059,47.9336038 C105.047059,60.4627944 81.2123162,71.0482881 53,71.0482881 C24.7876838,71.0482881 0.952941176,60.4627944 0.952941176,47.9336038 C0.952941176,41.6103985 7.32789527,35.3253018 18.0887867,30.9225583" id="Path" stroke-linecap="round"></path>
            </g>
        </g>
    </g>
</svg>