<?xml version="1.0" encoding="UTF-8"?>
<svg width="84px" height="84px" viewBox="0 0 84 84" version="1.1" xmlns="http://www.w3.org/2000/svg" xmlns:xlink="http://www.w3.org/1999/xlink">
    <!-- Generator: Sketch 50.2 (55047) - http://www.bohemiancoding.com/sketch -->
    <title>Group</title>
    <desc>Created with Sketch.</desc>
    <defs></defs>
    <g id="second-page" stroke="none" stroke-width="1" fill="none" fill-rule="evenodd">
        <g id="Artboard" transform="translate(-314.000000, -543.000000)">
            <g id="Group" transform="translate(315.000000, 544.000000)">
                <path d="M71.9777778,0 L10.0222222,0 C4.46444444,0 0,4.19111111 0,9.38444444 L0,56.4888889 C0,61.6822222 4.46444444,65.8733333 10.0222222,65.8733333 L16.5822222,65.8733333 L16.5822222,79.8133333 C16.5822222,80.6333333 17.1288889,81.4533333 17.9488889,81.8177778 C18.3133333,82 18.5866667,82 18.9511111,82 C19.4977778,82 20.0444444,81.8177778 20.5,81.5444444 L41.1822222,65.8733333 L71.9777778,65.8733333 C77.5355556,65.8733333 82,61.6822222 82,56.4888889 L82,9.38444444 C82,4.19111111 77.5355556,0 71.9777778,0 Z" id="Shape" stroke="#2C3846" stroke-width="2" fill-rule="nonzero"></path>
                <path d="M29.5820312,40.1015625 L29.5820312,42 L19.1054688,42 L19.1054688,25.0898438 L29.5820312,25.0898438 L29.5820312,26.9882812 L21.2148438,26.9882812 L21.2148438,32.4140625 L29.1484375,32.4140625 L29.1484375,34.2890625 L21.2148438,34.2890625 L21.2148438,40.1015625 L29.5820312,40.1015625 Z M34.796875,42 L32.7109375,42 L32.7109375,25.0898438 L34.7617188,25.0898438 L44.0195312,38.3671875 L44.125,38.3671875 L44.125,25.0898438 L46.2109375,25.0898438 L46.2109375,42 L44.1601562,42 L34.9023438,28.7695312 L34.796875,28.7695312 L34.796875,42 Z M64.1054688,35.0039062 C64.1054688,37.2851677 63.4746157,39.0683529 62.2128906,40.3535156 C60.9511656,41.6386783 59.1914175,42.28125 56.9335938,42.28125 C54.574207,42.28125 52.6933664,41.4824299 51.2910156,39.8847656 C49.8886649,38.2871014 49.1875,36.1445447 49.1875,33.4570312 C49.1875,30.816393 49.8867118,28.7148516 51.2851562,27.1523438 C52.6836007,25.5898359 54.5663944,24.8085938 56.9335938,24.8085938 C58.7617279,24.8085938 60.3183529,25.3105419 61.6035156,26.3144531 C62.8886783,27.3183644 63.6874984,28.6601479 64,30.3398438 L61.7851562,30.3398438 C61.433592,29.199213 60.8339886,28.3164094 59.9863281,27.6914062 C59.1386676,27.0664031 58.1210997,26.7539062 56.9335938,26.7539062 C55.1913975,26.7539062 53.8261768,27.3456972 52.8378906,28.5292969 C51.8496044,29.7128965 51.3554688,31.351552 51.3554688,33.4453125 C51.3554688,35.5703231 51.8554637,37.2499938 52.8554688,38.484375 C53.8554738,39.7187562 55.2148352,40.3359375 56.9335938,40.3359375 C58.4336012,40.3359375 59.6523391,39.8925826 60.5898438,39.0058594 C61.5273484,38.1191362 61.9960938,36.9687571 61.9960938,35.5546875 L61.9960938,35.25 L57.2265625,35.25 L57.2265625,33.3984375 L64.1054688,33.3984375 L64.1054688,35.0039062 Z" id="ENG" fill="#2C3846"></path>
            </g>
        </g>
    </g>
</svg>