<?xml version="1.0" encoding="UTF-8"?>
<svg width="80px" height="89px" viewBox="0 0 80 89" version="1.1" xmlns="http://www.w3.org/2000/svg" xmlns:xlink="http://www.w3.org/1999/xlink">
    <!-- Generator: Sketch 50.2 (55047) - http://www.bohemiancoding.com/sketch -->
    <title>event copy</title>
    <desc>Created with Sketch.</desc>
    <defs></defs>
    <g id="second-page" stroke="none" stroke-width="1" fill="none" fill-rule="evenodd">
        <g id="Artboard" transform="translate(-719.000000, -326.000000)" stroke="#2C3846" stroke-width="2">
            <g id="event-copy" transform="translate(719.000000, 327.000000)">
                <path d="M31,19.8732828 C31,20.2081885 31.2732039,20.4798718 31.6155811,20.4798718 C31.9579582,20.4798718 32.2311622,20.2081885 32.2311622,19.8732828 L32.2311622,19.606589 C32.2311622,19.2716833 31.9579582,19 31.6155811,19 C31.2732039,19 31,19.2716833 31,19.606589 L31,19.8732828 Z" id="Path"></path>
                <path d="M27.6155811,16.4798718 C27.9579582,16.4798718 28.2311622,16.2081885 28.2311622,15.8732828 L28.2311622,15.606589 C28.2311622,15.2716833 27.9579582,15 27.6155811,15 C27.2732039,15 27,15.2716833 27,15.606589 L27,15.8732828 C27,16.2074781 27.2741076,16.4798718 27.6155811,16.4798718 Z" id="Path"></path>
                <path d="M24.6155811,20.4798718 C24.9579582,20.4798718 25.2311622,20.2081885 25.2311622,19.8732828 L25.2311622,19.606589 C25.2311622,19.2716833 24.9579582,19 24.6155811,19 C24.2732039,19 24,19.2716833 24,19.606589 L24,19.8732828 C24,20.2081885 24.2732039,20.4798718 24.6155811,20.4798718 Z" id="Path"></path>
                <path d="M49,35.606589 L49,35.8732828 C49,36.2081885 49.2732039,36.4798718 49.6155811,36.4798718 C49.9579582,36.4798718 50.2311622,36.2081885 50.2311622,35.8732828 L50.2311622,35.606589 C50.2311622,35.2716833 49.9579582,35 49.6155811,35 C49.2732039,35 49,35.2716833 49,35.606589 Z" id="Path"></path>
                <path d="M46.5,10.5 L53.5,5.5" id="Line-2" stroke-linecap="round"></path>
                <path d="M40.5,8.5 L41.5,0.5" id="Line-3" stroke-linecap="round"></path>
                <path d="M35.5,9.5 L29.5,3.5" id="Line-4" stroke-linecap="round"></path>
                <g id="Group-8" transform="translate(40.000000, 19.000000)" stroke-linecap="round">
                    <path d="M20.4598328,0.522637362 L33.092375,31.0120755 C34.3154982,33.8160211 34.3015396,36.9340225 33.0557337,39.7917566 C31.6616175,42.9878382 28.9187506,45.5124303 25.5285531,46.7166 C22.1139281,47.9277102 18.198538,47.6622376 15.0456369,46.0034678 C12.3167286,44.5633225 10.4078887,42.2122419 9.65412375,39.3128649 L0,7.79970904" id="Path-Copy-3"></path>
                    <path d="M5.5,24.5 L26.523796,24.5" id="Line-5-Copy"></path>
                    <path d="M28.2925894,46.7225151 L28.2925894,65.7488127" id="Line-6" transform="translate(28.292589, 56.222515) rotate(-19.000000) translate(-28.292589, -56.222515) "></path>
                    <path d="M23.3854869,65.2049415 L39.4167064,65.2049415" id="Line-7" transform="translate(31.385487, 65.204942) rotate(-19.000000) translate(-31.385487, -65.204942) "></path>
                </g>
                <g id="Group-8-Copy" transform="translate(20.000000, 41.000000) scale(-1, 1) translate(-20.000000, -41.000000) translate(0.000000, 6.000000)" stroke-linecap="round">
                    <path d="M20.4598328,0.522637362 L33.092375,31.0120755 C34.3154982,33.8160211 34.3015396,36.9340225 33.0557337,39.7917566 C31.6616175,42.9878382 28.9187506,45.5124303 25.5285531,46.7166 C22.1139281,47.9277102 18.198538,47.6622376 15.0456369,46.0034678 C12.3167286,44.5633225 10.4078887,42.2122419 9.65412375,39.3128649 L0,7.79970904" id="Path-Copy-3"></path>
                    <path d="M6.5,18.5 L27.523796,18.5" id="Line-5-Copy"></path>
                    <path d="M28.2925894,46.7225151 L28.2925894,65.7488127" id="Line-6" transform="translate(28.292589, 56.222515) rotate(-19.000000) translate(-28.292589, -56.222515) "></path>
                    <path d="M23.3854869,65.2049415 L39.4167064,65.2049415" id="Line-7" transform="translate(31.385487, 65.204942) rotate(-19.000000) translate(-31.385487, -65.204942) "></path>
                </g>
            </g>
        </g>
    </g>
</svg>