<?xml version="1.0" encoding="UTF-8"?>
<svg width="90px" height="91px" viewBox="0 0 90 91" version="1.1" xmlns="http://www.w3.org/2000/svg" xmlns:xlink="http://www.w3.org/1999/xlink">
    <!-- Generator: Sketch 50.2 (55047) - http://www.bohemiancoding.com/sketch -->
    <title>clock copy</title>
    <desc>Created with Sketch.</desc>
    <defs></defs>
    <g id="second-page" stroke="none" stroke-width="1" fill="none" fill-rule="evenodd">
        <g id="Artboard" transform="translate(-514.000000, -111.000000)" stroke="#2C3846" stroke-width="2">
            <g id="clock-copy" transform="translate(515.000000, 112.000000)">
                <path d="M43.96875,0 C19.691912,0 0,19.69187 0,43.96875 C0,68.24555 19.691912,88.03125 43.96875,88.03125 C68.245588,88.03125 87.9375,68.24555 87.9375,43.96875 C87.9375,19.69187 68.245588,0 43.96875,0 Z M13.46875,40 C11.001235,40 8.96875,42.03247 8.96875,44.5 C8.96875,46.9675 11.001235,49 13.46875,49 C15.936265,49 17.96875,46.9675 17.96875,44.5 C17.96875,42.03247 15.936265,40 13.46875,40 Z M75.46875,40 C73.001235,40 70.96875,42.03247 70.96875,44.5 C70.96875,46.9675 73.001235,49 75.46875,49 C77.936265,49 79.96875,46.9675 79.96875,44.5 C79.96875,42.03247 77.936265,40 75.46875,40 Z M44.46875,71 C42.001235,71 39.96875,73.0325 39.96875,75.5 C39.96875,77.9675 42.001235,80 44.46875,80 C46.936265,80 48.96875,77.9675 48.96875,75.5 C48.96875,73.0325 46.936265,71 44.46875,71 Z" id="Shape" fill-rule="nonzero"></path>
                <path d="M56,57 C55.4477155,57 55,57.4477155 55,58 C55,58.5522845 55.4477155,59 56,59 C56.5522845,59 57,58.5522845 57,58 C57,57.4477155 56.5522845,57 56,57 Z" id="Path"></path>
                <path d="M41.96875,14 L41.96875,44 C41.972988,44.528809 42.1864684,45.0344205 42.5625,45.40625 L51.5625,54.40625" id="Path" stroke-linecap="round"></path>
            </g>
        </g>
    </g>
</svg>