<?xml version="1.0" encoding="UTF-8"?>
<svg width="84px" height="92px" viewBox="0 0 84 92" version="1.1" xmlns="http://www.w3.org/2000/svg" xmlns:xlink="http://www.w3.org/1999/xlink">
    <!-- Generator: Sketch 50.2 (55047) - http://www.bohemiancoding.com/sketch -->
    <title>heals copy</title>
    <desc>Created with Sketch.</desc>
    <defs></defs>
    <g id="second-page" stroke="none" stroke-width="1" fill="none" fill-rule="evenodd">
        <g id="Artboard" transform="translate(-315.000000, -110.000000)" stroke="#2C3846" stroke-width="2">
            <g id="heals-copy" transform="translate(316.000000, 111.000000)">
                <path d="M40.8407407,73.8517431 C41.0049355,73.7419662 41.2009729,73.6070774 41.4646208,73.4239084 C42.0813751,72.9954192 42.3591544,72.8093248 42.7024989,72.6050545 L43.9253638,71.8487202 C45.1669737,70.9685091 46.1227098,70.3482927 47.1772396,69.750483 C50.2356798,67.9291854 52.3527986,66.5513254 54.2444968,65.0761567 C58.2791059,61.9616685 60.3950822,58.1364817 60.5444444,53.8548387 L60.5444444,53.6967742 L60.5506527,53.5855183 C60.6206879,52.9599296 60.5916135,52.3539484 60.5009194,51.8138657 C60.469294,51.6255369 60.4396112,51.4978764 60.4242113,51.4443812 L60.3851852,51.3088143 L60.3851852,51.0520553 C60.3280158,50.889653 60.2887793,50.7125698 60.2422948,50.4588228 C60.179652,50.1168721 60.1619181,50.034148 60.1179834,49.9033245 L60.0969569,49.8313566 C59.3544846,46.8837474 57.9012402,44.7562924 55.7772396,43.4914525 C53.6983898,42.2534997 50.8217412,42.0631618 47.8024438,42.9620668 C47.4954673,43.0491164 47.1704872,43.1694297 46.8184043,43.3247371 C46.2403942,43.5797033 45.7636016,43.8350896 44.6323988,44.4750724 L44.6297088,44.4764123 C44.529119,44.5263299 44.4131849,44.5929461 44.1394271,44.7559686 C43.8159626,44.9485913 43.6797363,45.0268675 43.4815956,45.124437 C41.485627,46.0248893 39.8998321,46.0384783 38.2061899,45.1309702 C37.9609459,45.0429418 37.7192935,44.9283108 37.4382754,44.7761781 C37.3908492,44.7505033 36.9697292,44.5147305 36.8898234,44.4750724 L36.8437117,44.45049 C35.2439985,43.5432258 34.5437167,43.1957117 33.7072242,42.9584179 C30.7004811,42.0631618 27.8238325,42.2534997 25.7449826,43.4914525 C23.4995919,44.8285801 22.0174112,46.9983959 21.6035861,49.7365335 L21.5797255,49.8944111 L21.5078879,50.0370085 C21.382635,50.2856349 21.2962963,50.5998353 21.2962963,50.8516129 L21.2962963,51.3088143 L21.2572701,51.4443812 C21.2418703,51.4978764 21.2121875,51.6255369 21.1805621,51.8138657 C21.0898679,52.3539484 21.0607936,52.9599296 21.1308288,53.5855183 L21.137037,53.6967742 L21.136434,53.8201163 C21.2863992,58.1364817 23.4023756,61.9616685 27.4408694,65.0791708 C28.6432081,66.0167784 29.6861433,66.7068526 32.0987416,68.2164282 C33.3269293,68.9849118 33.8713855,69.3303954 34.5709325,69.7938815 C35.7616458,70.6380106 36.6629692,71.2229164 37.7049085,71.8147319 L38.9635011,72.5956443 C39.2232452,72.7503216 39.4871209,72.9220091 39.8125567,73.1445164 C39.9258995,73.2220112 40.015736,73.2841773 40.2168607,73.4239084 C40.4805086,73.6070774 40.676546,73.7419662 40.8407407,73.8517431 Z" id="Shape" fill-rule="nonzero"></path>
                <path d="M6.01347763,27.6125399 C2.19892989,33.839231 0,41.1628217 0,49 C0,71.6436747 18.3563253,90 41,90 C63.6436747,90 82,71.6436747 82,49 C82,45.112468 81.4589469,41.3513057 80.4480348,37.7877072" id="Oval-5"></path>
                <path d="M73.1336316,0.109677419 C76.1595575,0.741935484 78.0706687,2.63870968 78.8669649,5.64193548 C80.6188168,13.7032258 81.5743724,32.6709677 81.5743724,32.8290323 C81.7336316,35.2 81.2558538,36.7806452 79.9817798,37.4129032 L79.1854835,37.8870968 C77.9114094,38.5193548 76.3188168,38.2032258 74.4077057,36.9387097 C74.2484464,36.7806452 58.1632612,26.5064516 52.1114094,20.9741935 C49.8817798,18.9193548 49.0854835,16.2322581 50.2002983,13.2290323" id="Path" stroke-linecap="round"></path>
                <path d="M3.18873976,21.3230316 C2.8018217,22.7310882 3.0290741,24.3475125 3.74590737,25.4913121 C5.19131649,28.2300287 8.68050502,29.1370084 11.6372875,27.5998364 C14.4377573,26.1439282 15.421819,22.5344609 13.7968155,19.8463166 C12.700981,18.0789443 10.7891852,17 8.75411192,17 C7.81896627,17 6.87247761,17.2683966 5.92131677,17.8075815 C4.53927537,18.6305856 3.59462685,19.8459436 3.18873976,21.3230316 Z" id="Path"></path>
            </g>
        </g>
    </g>
</svg>