<?xml version="1.0" encoding="UTF-8"?>
<svg width="94px" height="90px" viewBox="0 0 94 90" version="1.1" xmlns="http://www.w3.org/2000/svg" xmlns:xlink="http://www.w3.org/1999/xlink">
    <!-- Generator: Sketch 50.2 (55047) - http://www.bohemiancoding.com/sketch -->
    <title>joy copy</title>
    <desc>Created with Sketch.</desc>
    <defs></defs>
    <g id="second-page" stroke="none" stroke-width="1" fill="none" fill-rule="evenodd">
        <g id="Artboard" transform="translate(-108.000000, -321.000000)" stroke="#2C3846" stroke-width="2">
            <g id="joy-copy" transform="translate(109.000000, 322.000000)">
                <path d="M73.1236962,27.8051948 C66.363443,27.8051948 60.2669873,31.3420779 56.9037468,37.0155844 C50.1539608,33.7327562 42.00418,33.3680522 35.3349873,37.1254545 C31.984557,31.4379221 25.8019241,27.804026 18.972962,27.804026 C8.51058228,27.8051948 0,36.2815584 0,46.7016883 L0.23756962,78.6493506 C1.31711392,83.8962338 5.95670886,87.8538961 11.5,87.8538961 C14.9331139,87.8538961 18.1601013,86.3320779 20.3541266,83.6788312 L28.5712405,65.1096104 L64.0180253,65.0757143 L70.8411646,83.0125974 C73.1493165,86.117013 76.5964051,87.8550649 80.2088608,87.8550649 C85.7521519,87.8550649 90.3917468,83.8974026 91.4712911,78.6505195 L92,46.7016883 C92,36.2815584 83.5325063,27.8051948 73.1236962,27.8051948 Z" id="Shape" fill-rule="nonzero"></path>
                <ellipse id="Oval" fill-rule="nonzero" cx="80.2717468" cy="45.9711688" rx="1.70293671" ry="1.71285714"></ellipse>
                <ellipse id="Oval" fill-rule="nonzero" cx="74.6772152" cy="40.3561039" rx="1.70410127" ry="1.71402597"></ellipse>
                <ellipse id="Oval" fill-rule="nonzero" cx="69.0826835" cy="45.9711688" rx="1.70293671" ry="1.71285714"></ellipse>
                <ellipse id="Oval" fill-rule="nonzero" cx="74.6772152" cy="51.5850649" rx="1.70410127" ry="1.71402597"></ellipse>
                <path d="M22.1265823,43.5844156 L19.7974684,43.5844156 L19.7974684,41.2467532 C19.7974684,39.9563636 18.7540253,38.9090909 17.4683544,38.9090909 C16.1826835,38.9090909 15.1392405,39.9563636 15.1392405,41.2467532 L15.1392405,43.5844156 L12.8101266,43.5844156 C11.5244557,43.5844156 10.4810127,44.6316883 10.4810127,45.9220779 C10.4810127,47.2124675 11.5244557,48.2597403 12.8101266,48.2597403 L15.1392405,48.2597403 L15.1392405,50.5974026 C15.1392405,51.8877922 16.1826835,52.9350649 17.4683544,52.9350649 C18.7540253,52.9350649 19.7974684,51.8877922 19.7974684,50.5974026 L19.7974684,48.2597403 L22.1265823,48.2597403 C23.4122532,48.2597403 24.4556962,47.2124675 24.4556962,45.9220779 C24.4556962,44.6316883 23.4122532,43.5844156 22.1265823,43.5844156 Z" id="Shape" fill-rule="nonzero"></path>
                <path d="M45.5959623,33.9769052 C44.2299763,28.2184381 45.2121897,23.6049473 48.5426026,20.1364326 C53.538222,14.9336607 59.1531854,15.4187783 61.170105,14.9336607 C63.1870247,14.448543 67.0221666,12.6264455 67.0221666,9.10555553 C67.0221666,6.75829556 66.1532764,3.72311038 64.4154961,0" id="Path-3" stroke-linecap="round"></path>
            </g>
        </g>
    </g>
</svg>