<?xml version="1.0" encoding="UTF-8"?>
<svg width="105px" height="90px" viewBox="0 0 105 90" version="1.1" xmlns="http://www.w3.org/2000/svg" xmlns:xlink="http://www.w3.org/1999/xlink">
    <!-- Generator: Sketch 50.2 (55047) - http://www.bohemiancoding.com/sketch -->
    <title>pay</title>
    <desc>Created with Sketch.</desc>
    <defs></defs>
    <g id="second-page" stroke="none" stroke-width="1" fill="none" fill-rule="evenodd">
        <g id="Artboard" transform="translate(-102.000000, -111.000000)">
            <g id="pay" transform="translate(104.000000, 112.000000)">
                <path d="M86.195713,54.0233918 C71.4333644,55.0877193 57.8191985,62.7836257 46.0093197,69.497076 C37.3979497,74.4093567 29.6887232,78.748538 22.9636533,79.8128655 C22.8816403,79.8128655 22.7176142,79.8128655 22.6356011,79.8947368 C22.471575,79.8947368 22.389562,79.8947368 22.2255359,79.8947368 C22.0615098,79.8947368 21.9794967,79.8947368 21.8974837,79.8947368 C21.6514445,79.8947368 21.5694315,79.8947368 21.5694315,79.8947368 C21.3233924,79.8947368 21.3233924,79.8947368 21.2413793,79.8947368 C21.1867039,79.8947368 21.0773532,79.8947368 20.9133271,79.8947368 C20.8586518,79.8947368 20.749301,79.8947368 20.5852749,79.8947368 C20.5032619,79.8947368 20.3392358,79.8947368 20.2572227,79.8947368 C19.6831314,79.8947368 19.1090401,79.8947368 18.4529357,79.8128655 C17.7968313,79.8128655 17.304753,79.3216374 17.1407269,78.748538 L9.59552656,46 C7.95526561,46.4912281 6.39701771,46.9005848 4.75675676,47.1461988 C3.19850885,47.3918129 1.64026095,47.5555556 3.62376795e-13,47.5555556 L9.10344828,88 C27.0643057,87.9181287 36.3317801,82.1871345 46.2553588,76.0467836 C56.4249767,69.7426901 67.1686859,63.1111111 88,61.2280702 L86.195713,54.0233918 Z" id="Shape" stroke="#2C3846" stroke-width="2" fill-rule="nonzero"></path>
                <path d="M9.66891103,45.3033127 L9.08659044,43.0302932 L6.0318181,29.7995292 C5.86669527,29.0552987 6.36206376,28.3110682 7.10511649,28.0629914 C7.27023932,28.0629914 7.35280074,27.9802991 7.51792356,28.0629914 C18.6637145,28.8072219 29.0664528,22.1091476 39.7994367,15.0803042 C54.3302457,5.57069262 69.6866688,-4.35238038 89.4188469,2.0149248 C89.9142154,2.18030935 90.244461,2.59377072 90.3270224,3.08992437 L101.968182,53.201443 C102.133305,53.9456735 101.637936,54.689904 100.894884,54.9379808 C100.647199,55.0206731 100.482076,55.0206731 100.234392,54.9379808 C96.6842514,54.111058 93.2166719,53.7802889 89.7490925,53.7802889 L87.2722986,53.7802889" id="Path" stroke="#2C3846" stroke-width="2"></path>
                <path d="M77.2071761,16.2310263 C78.0213517,16.2310263 78.5912746,16.8890686 78.5912746,17.6293661 C78.5912746,18.4519189 77.9399341,19.0277059 77.2071761,19.0277059 C76.3115829,19.0277059 75.4974072,19.1099612 74.7646491,19.1099612 C74.0318911,19.1922165 73.4619681,19.2744718 72.8920452,19.4389823 C71.9150344,19.6857482 71.0194412,20.3437904 70.4495183,21.1663433 C69.9610129,21.9066408 69.7167602,22.8114489 69.8795953,23.716257 C70.123848,24.867831 70.6123534,25.6081285 71.3451115,26.0194049 C72.2407047,26.5129366 73.5433857,26.5951919 75.4159897,26.2661708 C78.1027693,25.8548944 80.1382083,26.1016602 81.5223069,26.6774472 C83.4763285,27.5822553 84.4533392,29.0628504 84.860427,30.7902113 C84.860427,30.7902113 84.860427,30.8724666 84.860427,30.8724666 C85.1860973,32.4353169 84.9418446,34.0804226 84.127669,35.4787624 C83.4763285,36.5480811 82.5807353,37.3706339 81.1966367,37.8641656 L82.0922299,41.2366322 C82.255065,41.9769297 81.8479772,42.7994825 81.1152191,42.9639931 C80.382461,43.1285037 79.5682854,42.7172272 79.4054503,41.9769297 L78.5098571,38.5222078 C78.0213517,38.6044631 77.4514287,38.6867184 76.8000882,38.7689737 C75.4159897,38.9334843 73.9504735,39.0157395 72.4035398,38.9334843 C71.5893642,38.851229 71.0194412,38.1931867 71.1008588,37.4528892 C71.1822763,36.6303363 71.8336169,36.0545494 72.5663749,36.1368046 C73.9504735,36.2190599 75.2531545,36.1368046 76.3930004,36.0545494 C77.5328463,35.8900388 78.6726922,35.643273 79.7311205,35.3965071 C80.7081313,35.1497413 81.2780542,34.6562096 81.6851421,34.0804226 C82.0922299,33.340125 82.255065,32.4353169 82.0922299,31.5305088 L82.0922299,31.4482536 C81.9293947,30.5434454 81.4408894,29.8031479 80.382461,29.3096162 C79.4054503,28.8983398 77.9399341,28.7338292 75.8230775,29.0628504 C73.299133,29.4741268 71.426529,29.3096162 69.9610129,28.4870634 C68.4140792,27.6645106 67.518486,26.2661708 67.1113982,24.292044 C66.7857279,22.6469383 67.1928157,20.9195774 68.0884089,19.6034929 C68.821167,18.5341742 69.7981778,17.6293661 71.0194412,17.1358344 L70.123848,13.7633678 C69.9610129,13.0230703 70.3681007,12.2005175 71.1008588,12.0360069 C71.8336169,11.8714963 72.6477925,12.2827728 72.8106276,13.0230703 L73.7062208,16.3955369 C73.8690559,16.3955369 74.1133086,16.3132816 74.3575613,16.3132816 C75.171737,16.2310263 76.1487477,16.148771 77.1257585,16.148771 L77.2071761,16.2310263 Z" id="Path" fill="#484848"></path>
                <path d="M59,32 C57.4372294,32.9812756 56.2034632,33.7990054 54.8874459,34.6167351 C43.7835498,41.8127565 33.0909091,48.681686 21,47.9457293" id="Path" stroke="#2C3846" stroke-width="2" stroke-linecap="round"></path>
                <path d="M43,52 C36.5686355,55.2396818 30.0231347,57.3663782 23,56.9474711" id="Path-Copy-2" stroke="#2C3846" stroke-width="2" stroke-linecap="round"></path>
                <path d="M56,22 C54.4372294,22.9812756 53.2034632,23.7990054 51.8874459,24.6167351 C40.7835498,31.8127565 30.0909091,38.681686 18,37.9457293" id="Path-Copy" stroke="#2C3846" stroke-width="2" stroke-linecap="round"></path>
            </g>
        </g>
    </g>
</svg>