<?xml version="1.0" encoding="UTF-8"?>
<svg width="24px" height="18px" viewBox="0 0 24 18" version="1.1" xmlns="http://www.w3.org/2000/svg" xmlns:xlink="http://www.w3.org/1999/xlink">
    <!-- Generator: Sketch 50.2 (55047) - http://www.bohemiancoding.com/sketch -->
    <title>Group 2</title>
    <desc>Created with Sketch.</desc>
    <defs></defs>
    <g id="second-page" stroke="none" stroke-width="1" fill="none" fill-rule="evenodd">
        <g id="layout_desktop-copy-6" transform="translate(-870.000000, -327.000000)" fill="#00A1E4">
            <g id="Group-4-Copy" transform="translate(834.000000, 316.000000)">
                <g id="Group-2" transform="translate(36.000000, 11.000000)">
                    <path d="M0,12.3535156 C0,9.8632688 0.577793701,7.51954224 1.73339844,5.32226562 C2.88900317,3.12498901 4.44334961,1.35091821 6.39648438,0 L9.64355469,3.61328125 C8.86230078,4.05273657 8.10954138,4.67121997 7.38525391,5.46875 C6.66096643,6.26628003 6.23372461,7.08007397 6.10351562,7.91015625 C7.34050098,8.20312646 8.30891577,8.80940295 9.00878906,9.72900391 C9.70866235,10.6486049 10.0585938,11.6617783 10.0585938,12.7685547 C10.0585938,14.1520251 9.57845532,15.3320264 8.61816406,16.3085938 C7.6578728,17.2851611 6.48600952,17.7734375 5.10253906,17.7734375 C3.65396411,17.7734375 2.44141113,17.2932991 1.46484375,16.3330078 C0.488276367,15.3727166 0,14.0462324 0,12.3535156 Z" id="Headline-H1-Copy-3"></path>
                    <path d="M13,12.3535156 C13,9.8632688 13.5777937,7.51954224 14.7333984,5.32226562 C15.8890032,3.12498901 17.4433496,1.35091821 19.3964844,0 L22.6435547,3.61328125 C21.8623008,4.05273657 21.1095414,4.67121997 20.3852539,5.46875 C19.6609664,6.26628003 19.2337246,7.08007397 19.1035156,7.91015625 C20.340501,8.20312646 21.3089158,8.80940295 22.0087891,9.72900391 C22.7086624,10.6486049 23.0585938,11.6617783 23.0585938,12.7685547 C23.0585938,14.1520251 22.5784553,15.3320264 21.6181641,16.3085938 C20.6578728,17.2851611 19.4860095,17.7734375 18.1025391,17.7734375 C16.6539641,17.7734375 15.4414111,17.2932991 14.4648438,16.3330078 C13.4882764,15.3727166 13,14.0462324 13,12.3535156 Z" id="Headline-H1-Copy-4"></path>
                </g>
            </g>
        </g>
    </g>
</svg>