<?xml version="1.0" standalone="no"?>
<!DOCTYPE svg PUBLIC "-//W3C//DTD SVG 20010904//EN"
 "http://www.w3.org/TR/2001/REC-SVG-20010904/DTD/svg10.dtd">
<svg version="1.0" xmlns="http://www.w3.org/2000/svg"
 width="700.000000pt" height="700.000000pt" viewBox="0 0 700.000000 700.000000"
 preserveAspectRatio="xMidYMid meet">
<metadata>
Created by potrace 1.11, written by Peter Selinger 2001-2013
</metadata>
<g transform="translate(0.000000,700.000000) scale(0.100000,-0.100000)"
fill="#000000" stroke="none">
<path d="M3367 6384 c-1 -1 -47 -5 -102 -9 -55 -4 -102 -8 -105 -10 -3 -2 -32
-6 -65 -9 -33 -3 -71 -8 -85 -11 -14 -3 -59 -12 -100 -21 -41 -8 -85 -17 -98
-20 -61 -12 -270 -80 -372 -121 -465 -184 -871 -483 -1185 -873 -187 -233
-303 -428 -421 -708 -83 -196 -170 -512 -190 -687 -3 -33 -8 -69 -10 -80 -22
-109 -22 -509 1 -675 2 -14 6 -47 9 -73 16 -132 98 -467 135 -552 5 -11 19
-47 32 -80 12 -33 40 -98 61 -143 21 -46 38 -85 38 -87 0 -19 165 -293 247
-411 97 -138 296 -357 443 -485 365 -319 836 -556 1290 -649 58 -12 112 -23
121 -25 8 -2 42 -6 74 -9 32 -4 61 -8 64 -10 12 -8 221 -19 346 -20 179 0 361
15 495 40 14 3 34 7 45 8 11 2 38 7 59 11 22 4 50 11 63 16 13 5 23 6 23 3 0
-2 8 0 18 5 9 5 31 11 47 14 39 6 288 89 351 117 195 86 301 141 434 224 202
126 360 254 542 441 48 49 89 88 89 85 1 -3 2 -221 3 -485 l1 -480 360 0 360
0 -1 1520 c0 1337 -3 1606 -19 1715 -2 14 -7 45 -10 70 -4 25 -13 79 -21 120
-8 41 -17 86 -20 100 -3 14 -16 66 -29 115 -130 482 -387 926 -741 1280 -343
343 -754 589 -1218 730 -66 19 -135 38 -155 41 -20 3 -39 8 -42 10 -4 2 -24 6
-45 10 -22 3 -55 9 -74 14 -19 5 -57 11 -85 15 -27 3 -59 7 -70 9 -64 12 -477
29 -488 20z m318 -728 c44 -4 93 -9 110 -12 191 -31 247 -45 400 -95 804 -266
1395 -1023 1461 -1874 11 -144 5 -428 -10 -454 -2 -3 -6 -30 -10 -59 -3 -30
-15 -94 -26 -143 -139 -625 -572 -1172 -1153 -1458 -363 -179 -734 -249 -1142
-217 -84 7 -289 40 -340 56 -173 51 -222 68 -295 97 -471 193 -866 555 -1104
1015 -68 132 -133 298 -166 426 -24 93 -25 97 -55 267 -7 41 -18 206 -18 280
-6 613 254 1201 714 1620 352 320 823 522 1289 551 47 3 86 7 87 8 3 3 179 -2
258 -8z"/>
<path d="M3508 5185 c-1 -1 -52 -6 -113 -9 -138 -8 -179 -14 -274 -37 -42 -11
-83 -21 -92 -23 -154 -39 -439 -185 -568 -291 -215 -179 -352 -348 -471 -585
-39 -77 -97 -224 -104 -265 -2 -11 -11 -45 -20 -75 -18 -64 -24 -94 -32 -169
-3 -30 -8 -64 -10 -75 -10 -52 -2 -332 11 -396 3 -14 8 -43 10 -65 3 -22 16
-80 30 -130 145 -532 533 -956 1045 -1143 107 -39 256 -77 340 -87 36 -4 74
-9 85 -11 27 -6 283 -5 315 0 14 3 45 7 70 10 224 29 450 111 658 238 366 224
651 618 748 1034 15 65 18 81 30 164 19 132 19 360 -1 471 -4 19 -8 48 -11 66
-6 46 -42 175 -75 273 -58 166 -188 386 -308 523 -46 51 -162 166 -197 193
-68 54 -180 134 -187 134 -5 0 -22 9 -38 21 -107 76 -383 177 -558 205 -18 3
-43 8 -55 10 -11 2 -61 7 -111 10 -49 3 -95 7 -102 9 -6 2 -13 2 -15 0z"/>
</g>
</svg>
